0
SECTION
2
HEADER
9
$INSUNITS
70
4
9
$ACADVER
1
AC1014
9
$HANDSEED
5
FFFF
0
ENDSEC
0
SECTION
2
TABLES
0
TABLE
2
VPORT
5
8
100
AcDbSymbolTable
0
ENDTAB
0
TABLE
2
LTYPE
5
5
100
AcDbSymbolTable
0
LTYPE
5
14
100
AcDbSymbolTableRecord
100
AcDbLinetypeTableRecord
2
BYBLOCK
70
0
0
LTYPE
5
15
100
AcDbSymbolTableRecord
100
AcDbLinetypeTableRecord
2
BYLAYER
70
0
0
ENDTAB
0
TABLE
2
LAYER
5
2
100
AcDbSymbolTable
70
2
0
LAYER
5
50
100
AcDbSymbolTableRecord
100
AcDbLayerTableRecord
2
0
70
0
6
CONTINUOUS
0
ENDTAB
0
TABLE
2
STYLE
5
3
100
AcDbSymbolTable
70
1
0
STYLE
5
11
100
AcDbSymbolTableRecord
100
AcDbTextStyleTableRecord
2
STANDARD
70
0
0
ENDTAB
0
TABLE
2
VIEW
5
6
100
AcDbSymbolTable
70
0
0
ENDTAB
0
TABLE
2
UCS
5
7
100
AcDbSymbolTable
70
0
0
ENDTAB
0
TABLE
2
APPID
5
9
100
AcDbSymbolTable
70
2
0
APPID
5
12
100
AcDbSymbolTableRecord
100
AcDbRegAppTableRecord
2
ACAD
70
0
0
ENDTAB
0
TABLE
2
DIMSTYLE
5
A
100
AcDbSymbolTable
70
1
0
ENDTAB
0
TABLE
2
BLOCK_RECORD
5
1
100
AcDbSymbolTable
70
1
0
BLOCK_RECORD
5
1F
100
AcDbSymbolTableRecord
100
AcDbBlockTableRecord
2
*MODEL_SPACE
0
BLOCK_RECORD
5
1B
100
AcDbSymbolTableRecord
100
AcDbBlockTableRecord
2
*PAPER_SPACE
0
ENDTAB
0
ENDSEC
0
SECTION
2
BLOCKS
0
BLOCK
5
20
100
AcDbEntity
100
AcDbBlockBegin
2
*MODEL_SPACE
0
ENDBLK
5
21
100
AcDbEntity
100
AcDbBlockEnd
0
BLOCK
5
1C
100
AcDbEntity
100
AcDbBlockBegin
2
*PAPER_SPACE
0
ENDBLK
5
1D
100
AcDbEntity
100
AcDbBlockEnd
0
ENDSEC
0
SECTION
2
ENTITIES
0
LWPOLYLINE
5
100
100
AcDbEntity
8
0
100
AcDbPolyline
90
32
70
1
43
0.0
10
463.00000000000006
20
-35
10
463.00000000000006
20
-5
10
461
20
-5
10
461
20
0
10
408.00000000000006
20
0
10
408.00000000000006
20
-5
10
406
20
-5
10
406
20
0
10
340.33333333333337
20
0
10
340.33333333333337
20
-5
10
338.33333333333337
20
-5
10
338.33333333333337
20
0
10
272.66666666666663
20
0
10
272.66666666666663
20
-5
10
270.66666666666669
20
-5
10
270.66666666666669
20
0
10
205
20
0
10
205
20
-5
10
203
20
-5
10
203
20
0
10
137.33333333333331
20
0
10
137.33333333333331
20
-5
10
135.33333333333334
20
-5
10
135.33333333333334
20
0
10
69.666666666666671
20
0
10
69.666666666666671
20
-5
10
67.666666666666671
20
-5
10
67.666666666666671
20
0
10
1.9999999999999998
20
0
10
1.9999999999999998
20
-5
10
0
20
-5
10
0
20
-35
0
LINE
5
101
100
AcDbEntity
8
0
100
AcDbLine
10
1.9999999999999998
20
-5
30
0
11
2.0000000000000284
21
-35
31
0
0
LINE
5
102
100
AcDbEntity
8
0
100
AcDbLine
10
67.666666666666671
20
-5
30
0
11
67.666666666666657
21
-35
31
0
0
LINE
5
103
100
AcDbEntity
8
0
100
AcDbLine
10
69.666666666666671
20
-5
30
0
11
69.666666666666686
21
-35
31
0
0
LINE
5
104
100
AcDbEntity
8
0
100
AcDbLine
10
135.33333333333334
20
-5
30
0
11
135.33333333333331
21
-35
31
0
0
LINE
5
105
100
AcDbEntity
8
0
100
AcDbLine
10
137.33333333333331
20
-5
30
0
11
137.33333333333334
21
-35
31
0
0
LINE
5
106
100
AcDbEntity
8
0
100
AcDbLine
10
203
20
-5
30
0
11
203.00000000000006
21
-35
31
0
0
LINE
5
107
100
AcDbEntity
8
0
100
AcDbLine
10
205
20
-5
30
0
11
205
21
-35
31
0
0
LINE
5
108
100
AcDbEntity
8
0
100
AcDbLine
10
270.66666666666669
20
-5
30
0
11
270.66666666666669
21
-35
31
0
0
LINE
5
109
100
AcDbEntity
8
0
100
AcDbLine
10
272.66666666666663
20
-5
30
0
11
272.66666666666663
21
-35
31
0
0
LINE
5
110
100
AcDbEntity
8
0
100
AcDbLine
10
338.33333333333337
20
-5
30
0
11
338.33333333333337
21
-35
31
0
0
LINE
5
111
100
AcDbEntity
8
0
100
AcDbLine
10
340.33333333333337
20
-5
30
0
11
340.33333333333337
21
-35
31
0
0
LINE
5
112
100
AcDbEntity
8
0
100
AcDbLine
10
406
20
-5
30
0
11
406
21
-35
31
0
0
LINE
5
113
100
AcDbEntity
8
0
100
AcDbLine
10
408.00000000000006
20
-5
30
0
11
408.00000000000006
21
-35
31
0
0
LINE
5
114
100
AcDbEntity
8
0
100
AcDbLine
10
461
20
-5
30
0
11
461
21
-35
31
0
0
LINE
5
115
100
AcDbEntity
8
0
100
AcDbLine
10
1.9999999999999998
20
0
30
0
11
10.000000149011612
21
0
31
0
0
LINE
5
116
100
AcDbEntity
8
0
100
AcDbLine
10
67.666666666666671
20
0
30
0
11
59.666666666666671
21
0
31
0
0
LINE
5
117
100
AcDbEntity
8
0
100
AcDbLine
10
67.666666666666671
20
-7.9999999999999991
30
0
11
67.666666666666671
21
0
31
0
0
LINE
5
118
100
AcDbEntity
8
0
100
AcDbLine
10
69.666666666666671
20
0
30
0
11
77.666666666666671
21
0
31
0
0
LINE
5
119
100
AcDbEntity
8
0
100
AcDbLine
10
69.666666666666671
20
-8
30
0
11
69.666666666666671
21
0
31
0
0
LINE
5
120
100
AcDbEntity
8
0
100
AcDbLine
10
135.33333333333334
20
0
30
0
11
127.33333333333333
21
0
31
0
0
LINE
5
121
100
AcDbEntity
8
0
100
AcDbLine
10
135.33333333333334
20
-8
30
0
11
135.33333333333334
21
0
31
0
0
LINE
5
122
100
AcDbEntity
8
0
100
AcDbLine
10
137.33333333333331
20
0
30
0
11
145.33333333333334
21
0
31
0
0
LINE
5
123
100
AcDbEntity
8
0
100
AcDbLine
10
137.33333333333331
20
-8
30
0
11
137.33333333333331
21
0
31
0
0
LINE
5
124
100
AcDbEntity
8
0
100
AcDbLine
10
203
20
0
30
0
11
195
21
0
31
0
0
LINE
5
125
100
AcDbEntity
8
0
100
AcDbLine
10
203
20
-8
30
0
11
203
21
0
31
0
0
LINE
5
126
100
AcDbEntity
8
0
100
AcDbLine
10
205
20
0
30
0
11
213
21
0
31
0
0
LINE
5
127
100
AcDbEntity
8
0
100
AcDbLine
10
205
20
-7.9999999999999991
30
0
11
205
21
0
31
0
0
LINE
5
128
100
AcDbEntity
8
0
100
AcDbLine
10
270.66666666666669
20
0
30
0
11
262.66666666666663
21
0
31
0
0
LINE
5
129
100
AcDbEntity
8
0
100
AcDbLine
10
270.66666666666669
20
-8
30
0
11
270.66666666666669
21
0
31
0
0
LINE
5
130
100
AcDbEntity
8
0
100
AcDbLine
10
272.66666666666663
20
0
30
0
11
280.66666666666669
21
0
31
0
0
LINE
5
131
100
AcDbEntity
8
0
100
AcDbLine
10
272.66666666666663
20
-8
30
0
11
272.66666666666663
21
0
31
0
0
LINE
5
132
100
AcDbEntity
8
0
100
AcDbLine
10
338.33333333333337
20
0
30
0
11
330.33333333333337
21
0
31
0
0
LINE
5
133
100
AcDbEntity
8
0
100
AcDbLine
10
338.33333333333337
20
-7.9999999999999991
30
0
11
338.33333333333337
21
0
31
0
0
LINE
5
134
100
AcDbEntity
8
0
100
AcDbLine
10
340.33333333333337
20
0
30
0
11
348.33333333333337
21
0
31
0
0
LINE
5
135
100
AcDbEntity
8
0
100
AcDbLine
10
340.33333333333337
20
-8
30
0
11
340.33333333333337
21
0
31
0
0
LINE
5
136
100
AcDbEntity
8
0
100
AcDbLine
10
406
20
0
30
0
11
398.00000000000006
21
0
31
0
0
LINE
5
137
100
AcDbEntity
8
0
100
AcDbLine
10
406
20
-8
30
0
11
406
21
0
31
0
0
LINE
5
138
100
AcDbEntity
8
0
100
AcDbLine
10
408.00000000000006
20
0
30
0
11
416
21
0
31
0
0
LINE
5
139
100
AcDbEntity
8
0
100
AcDbLine
10
408.00000000000006
20
-8
30
0
11
408.00000000000006
21
0
31
0
0
LINE
5
140
100
AcDbEntity
8
0
100
AcDbLine
10
461
20
0
30
0
11
453.00000000000006
21
0
31
0
0
LINE
5
141
100
AcDbEntity
8
0
100
AcDbLine
10
461
20
-7.9999999999999991
30
0
11
461
21
0
31
0
0
LWPOLYLINE
5
142
100
AcDbEntity
8
0
100
AcDbPolyline
90
8
70
1
43
0.0
10
448.00000000000006
20
-8
10
421.00000000000011
20
-8
42
0.41421356237309515
10
416.00000000000011
20
-13.000000000000004
10
416.00000000000011
20
-20.000000447034854
42
0.41421356237309503
10
421.00000000000011
20
-25.000000447034854
10
448.00000000000006
20
-25.000000447034857
42
0.41421356237310231
10
453.00000000000006
20
-20.000000447034875
10
453.00000000000006
20
-12.999999999999998
42
0.4142135623731022
0
LWPOLYLINE
5
143
100
AcDbEntity
8
0
100
AcDbPolyline
90
8
70
1
43
0.0
10
393
20
-8
10
353.33333333333343
20
-8
42
0.41421356237309503
10
348.33333333333343
20
-13
10
348.33333333333343
20
-20.000000447034854
42
0.41421356237309503
10
353.33333333333343
20
-25.000000447034854
10
393
20
-25.000000447034854
42
0.41421356237309503
10
398
20
-20.000000447034854
10
398
20
-13
42
0.41421356237309503
0
LWPOLYLINE
5
144
100
AcDbEntity
8
0
100
AcDbPolyline
90
8
70
1
43
0.0
10
325.33333333333331
20
-8
10
285.66666666666669
20
-8
42
0.41421356237309492
10
280.66666666666669
20
-12.999999999999998
10
280.66666666666669
20
-20.000000447034871
42
0.41421356237309503
10
285.66666666666669
20
-25.000000447034871
10
325.33333333333331
20
-25.000000447034871
42
0.41421356237309503
10
330.33333333333331
20
-20.000000447034871
10
330.33333333333331
20
-13
42
0.41421356237309503
0
LWPOLYLINE
5
145
100
AcDbEntity
8
0
100
AcDbPolyline
90
8
70
1
43
0.0
10
257.66666666666663
20
-7.9999999999999982
10
218
20
-7.9999999999999982
42
0.41421356237309503
10
213
20
-12.999999999999998
10
213
20
-20.000000447034854
42
0.41421356237309503
10
218
20
-25.000000447034854
10
257.66666666666663
20
-25.000000447034854
42
0.41421356237309503
10
262.66666666666663
20
-20.000000447034854
10
262.66666666666663
20
-12.999999999999998
42
0.41421356237309503
0
LWPOLYLINE
5
146
100
AcDbEntity
8
0
100
AcDbPolyline
90
8
70
1
43
0.0
10
190
20
-8
10
150.33333333333331
20
-8
42
0.41421356237309503
10
145.33333333333331
20
-13
10
145.33333333333331
20
-20.000000447034843
42
0.41421356237309503
10
150.33333333333331
20
-25.000000447034843
10
190
20
-25.000000447034843
42
0.41421356237309503
10
195
20
-20.000000447034843
10
195
20
-12.999999999999998
42
0.41421356237309492
0
LWPOLYLINE
5
147
100
AcDbEntity
8
0
100
AcDbPolyline
90
8
70
1
43
0.0
10
122.33333333333334
20
-8
10
82.666666666666657
20
-8
42
0.41421356237309503
10
77.666666666666671
20
-13
10
77.666666666666671
20
-20.00000044703485
42
0.41421356237309503
10
82.666666666666657
20
-25.00000044703485
10
122.33333333333334
20
-25.00000044703485
42
0.41421356237309503
10
127.33333333333334
20
-20.00000044703485
10
127.33333333333334
20
-13
42
0.41421356237309503
0
LWPOLYLINE
5
148
100
AcDbEntity
8
0
100
AcDbPolyline
90
8
70
1
43
0.0
10
54.666666666666671
20
-8.0000001192092896
10
15.000000149011612
20
-8.0000001192092896
42
0.41421356237309503
10
10.000000149011612
20
-13.00000011920929
10
10.000000149011612
20
-20.000000447034836
42
0.41421356237309503
10
15.000000149011612
20
-25.000000447034836
10
54.666666666666671
20
-25.000000447034836
42
0.41421356237309503
10
59.666666666666671
20
-20.000000447034836
10
59.666666666666671
20
-13.00000011920929
42
0.41421356237309503
0
ENDSEC
0
SECTION
2
OBJECTS
0
DICTIONARY
5
C
100
AcDbDictionary
3
ACAD_GROUP
350
D
3
ACAD_MLINESTYLE
350
17
0
DICTIONARY
5
D
100
AcDbDictionary
0
DICTIONARY
5
1A
330
C
100
AcDbDictionary
0
DICTIONARY
5
17
100
AcDbDictionary
0
ENDSEC
0
EOF
