0
SECTION
2
HEADER
9
$INSUNITS
70
4
9
$ACADVER
1
AC1014
9
$HANDSEED
5
FFFF
0
ENDSEC
0
SECTION
2
TABLES
0
TABLE
2
VPORT
5
8
100
AcDbSymbolTable
0
ENDTAB
0
TABLE
2
LTYPE
5
5
100
AcDbSymbolTable
0
LTYPE
5
14
100
AcDbSymbolTableRecord
100
AcDbLinetypeTableRecord
2
BYBLOCK
70
0
0
LTYPE
5
15
100
AcDbSymbolTableRecord
100
AcDbLinetypeTableRecord
2
BYLAYER
70
0
0
ENDTAB
0
TABLE
2
LAYER
5
2
100
AcDbSymbolTable
70
2
0
LAYER
5
50
100
AcDbSymbolTableRecord
100
AcDbLayerTableRecord
2
0
70
0
6
CONTINUOUS
0
ENDTAB
0
TABLE
2
STYLE
5
3
100
AcDbSymbolTable
70
1
0
STYLE
5
11
100
AcDbSymbolTableRecord
100
AcDbTextStyleTableRecord
2
STANDARD
70
0
0
ENDTAB
0
TABLE
2
VIEW
5
6
100
AcDbSymbolTable
70
0
0
ENDTAB
0
TABLE
2
UCS
5
7
100
AcDbSymbolTable
70
0
0
ENDTAB
0
TABLE
2
APPID
5
9
100
AcDbSymbolTable
70
2
0
APPID
5
12
100
AcDbSymbolTableRecord
100
AcDbRegAppTableRecord
2
ACAD
70
0
0
ENDTAB
0
TABLE
2
DIMSTYLE
5
A
100
AcDbSymbolTable
70
1
0
ENDTAB
0
TABLE
2
BLOCK_RECORD
5
1
100
AcDbSymbolTable
70
1
0
BLOCK_RECORD
5
1F
100
AcDbSymbolTableRecord
100
AcDbBlockTableRecord
2
*MODEL_SPACE
0
BLOCK_RECORD
5
1B
100
AcDbSymbolTableRecord
100
AcDbBlockTableRecord
2
*PAPER_SPACE
0
ENDTAB
0
ENDSEC
0
SECTION
2
BLOCKS
0
BLOCK
5
20
100
AcDbEntity
100
AcDbBlockBegin
2
*MODEL_SPACE
0
ENDBLK
5
21
100
AcDbEntity
100
AcDbBlockEnd
0
BLOCK
5
1C
100
AcDbEntity
100
AcDbBlockBegin
2
*PAPER_SPACE
0
ENDBLK
5
1D
100
AcDbEntity
100
AcDbBlockEnd
0
ENDSEC
0
SECTION
2
ENTITIES
0
LWPOLYLINE
5
100
100
AcDbEntity
8
0
100
AcDbPolyline
90
4
70
1
43
0.0
10
285
20
16
10
325
20
16
10
325
20
20
10
285
20
20
0
LWPOLYLINE
5
101
100
AcDbEntity
8
0
100
AcDbPolyline
90
4
70
1
43
0.0
10
115
20
16
10
155
20
16
10
155
20
20
10
115
20
20
0
LINE
5
102
100
AcDbEntity
8
0
100
AcDbLine
10
100
20
0
30
0
11
350
21
0
31
0
0
LINE
5
103
100
AcDbEntity
8
0
100
AcDbLine
10
350
20
0
30
0
11
350
21
30
31
0
0
SPLINE
5
104
100
AcDbEntity
8
0
100
AcDbSpline
70
1064
71
5
72
121
73
115
74
0
42
0.000000001
43
0.0000000001
44
0.0000000001
40
-1
40
-1
40
-1
40
-1
40
-1
40
-1
40
-0.99090909090908819
40
-0.98181818181817915
40
-0.97272727272727011
40
-0.96363636363636107
40
-0.95454545454545203
40
-0.94545454545454299
40
-0.93636363636363396
40
-0.92727272727272492
40
-0.91818181818181588
40
-0.90909090909090684
40
-0.8999999999999978
40
-0.89090909090908876
40
-0.88181818181817972
40
-0.87272727272727069
40
-0.86363636363636165
40
-0.85454545454545261
40
-0.84545454545454357
40
-0.83636363636363453
40
-0.82727272727272549
40
-0.81818181818181646
40
-0.80909090909090742
40
-0.79999999999999838
40
-0.79090909090908934
40
-0.7818181818181803
40
-0.77272727272727126
40
-0.76363636363636223
40
-0.75454545454545319
40
-0.74545454545454415
40
-0.73636363636363511
40
-0.72727272727272607
40
-0.71818181818181703
40
-0.70909090909090799
40
-0.69999999999999896
40
-0.69090909090908992
40
-0.68181818181818088
40
-0.67272727272727184
40
-0.6636363636363628
40
-0.65454545454545376
40
-0.64545454545454473
40
-0.63636363636363569
40
-0.62727272727272665
40
-0.61818181818181761
40
-0.60909090909090857
40
-0.59999999999999953
40
-0.5909090909090905
40
-0.58181818181818146
40
-0.57272727272727242
40
-0.56363636363636338
40
-0.55454545454545434
40
-0.5454545454545453
40
-0.53636363636363626
40
-0.52727272727272723
40
-0.51818181818181819
40
-0.50909090909090915
40
-0.50000000000000011
40
-0.49090909090909102
40
-0.48181818181818192
40
-0.47272727272727283
40
-0.46363636363636374
40
-0.45454545454545464
40
-0.44545454545454555
40
-0.43636363636363645
40
-0.42727272727272736
40
-0.41818181818181827
40
-0.40909090909090917
40
-0.40000000000000008
40
-0.39090909090909098
40
-0.38181818181818189
40
-0.3727272727272728
40
-0.3636363636363637
40
-0.35454545454545461
40
-0.34545454545454551
40
-0.33636363636363642
40
-0.32727272727272733
40
-0.31818181818181823
40
-0.30909090909090914
40
-0.30000000000000004
40
-0.29090909090909095
40
-0.28181818181818186
40
-0.27272727272727276
40
-0.26363636363636367
40
-0.25454545454545457
40
-0.24545454545454551
40
-0.23636363636363641
40
-0.22727272727272732
40
-0.21818181818181823
40
-0.20909090909090913
40
-0.20000000000000004
40
-0.19090909090909094
40
-0.18181818181818185
40
-0.17272727272727276
40
-0.16363636363636366
40
-0.15454545454545457
40
-0.14545454545454548
40
-0.13636363636363638
40
-0.12727272727272729
40
-0.11818181818181821
40
-0.10909090909090911
40
-0.10000000000000002
40
-0.090909090909090925
40
-0.081818181818181832
40
-0.072727272727272738
40
-0.063636363636363644
40
-0.05454545454545455
40
-0.045454545454545456
40
-0.036363636363636362
40
-0.027272727272727271
40
-0.018181818181818181
40
-0.0090909090909090905
40
-0
40
-0
40
-0
40
-0
40
-0
40
-0
10
350
20
30
30
0
10
349.31375454317907
20
29.966196551915619
30
0
10
347.94060179564485
20
29.898707834309217
30
0
10
345.87888716623945
20
29.797829293503245
30
0
10
343.12596283193773
20
29.66403373973915
30
0
10
339.67848669529269
20
29.497977089650504
30
0
10
336.22559166632078
20
29.333124832166206
30
0
10
332.76908395968638
20
29.16950943400014
30
0
10
329.31198217960468
20
29.00718443104422
30
0
10
325.85881055180198
20
28.846229442558879
30
0
10
322.41592816669288
20
28.686755649932259
30
0
10
318.99177633582246
20
28.528910224804541
30
0
10
315.59732855736786
20
28.372883364093767
30
0
10
312.24581120284108
20
28.218905963507236
30
0
10
308.95163755857135
20
28.067237251682499
30
0
10
305.72955270332409
20
27.918155038223695
30
0
10
302.59368966860262
20
27.771945043844845
30
0
10
299.55667021542865
20
27.628890308432776
30
0
10
296.62866957062914
20
27.489261301819006
30
0
10
293.81653281555197
20
27.353303991337654
30
0
10
291.12277333595409
20
27.221233129597351
30
0
10
288.54504084560818
20
27.093202978869204
30
0
10
286.07586181423778
20
26.969262016468299
30
0
10
283.70234814874249
20
26.849314258454253
30
0
10
281.40580085040307
20
26.733073643280335
30
0
10
279.16162152156255
20
26.620030839713511
30
0
10
276.93843655285957
20
26.509391208293245
30
0
10
274.69991575335024
20
26.400109528473685
30
0
10
272.41055431010221
20
26.291065300410381
30
0
10
270.04033392843144
20
26.181199849624171
30
0
10
267.5701774264478
20
26.069677465720808
30
0
10
264.99628769947202
20
25.956016516299698
30
0
10
262.33694445509349
20
25.840283665910153
30
0
10
259.6287022890977
20
25.723018724921374
30
0
10
256.91650388402093
20
25.605005240474551
30
0
10
254.24571883019354
20
25.487089785012913
30
0
10
251.65326298664499
20
25.369978268337071
30
0
10
249.15939473764837
20
25.254048715976062
30
0
10
246.7585309998932
20
25.139140954126461
30
0
10
244.41244919347474
20
25.024402004442805
30
0
10
242.06342826180159
20
24.908595702196713
30
0
10
239.64563937400493
20
24.790371628175514
30
0
10
237.09716331796105
20
24.668548618793462
30
0
10
234.37182319005277
20
24.542394092082624
30
0
10
231.45091154478945
20
24.411900759475476
30
0
10
228.35550262059357
20
24.278077504417883
30
0
10
225.13619392787143
20
24.142695147124513
30
0
10
221.86222336463277
20
24.008016948336607
30
0
10
218.61074645430352
20
23.876533467251562
30
0
10
215.45623642680411
20
23.750699299609558
30
0
10
212.45940543399701
20
23.632660816585592
30
0
10
209.6573199044806
20
23.524006790398367
30
0
10
207.05058220233894
20
23.425462511160788
30
0
10
204.59972288822473
20
23.33676105321284
30
0
10
202.24197333670992
20
23.256904534980116
30
0
10
199.90371549037138
20
23.184344779326423
30
0
10
197.51495155973797
20
23.117196811447368
30
0
10
195.02221112630781
20
23.053435674743497
30
0
10
192.40381259616012
20
22.991106096562525
30
0
10
189.6789924720542
20
22.928508632974776
30
0
10
186.89387385996682
20
22.864300498945951
30
0
10
184.11082038845825
20
22.797613022330228
30
0
10
181.39673785999494
20
22.728154961160499
30
0
10
178.8112355720348
20
22.656340195453506
30
0
10
176.39623227221625
20
22.58336319716431
30
0
10
174.16145504633295
20
22.511402931245787
30
0
10
172.08759796839195
20
22.443292621933377
30
0
10
170.14051083088094
20
22.381870121336927
30
0
10
168.28276523696417
20
22.329383061724855
30
0
10
166.4847625667193
20
22.28696172598481
30
0
10
164.73981888265712
20
22.253839742642274
30
0
10
163.06244026459692
20
22.227572159807924
30
0
10
161.46786990215728
20
22.205351525933782
30
0
10
159.95864144804213
20
22.184915304595776
30
0
10
158.50388894214012
20
22.165872918124808
30
0
10
157.03664943395279
20
22.149993434834684
30
0
10
155.48665476057241
20
22.139442603406778
30
0
10
153.80211284100449
20
22.135658701020859
30
0
10
151.9835997080105
20
22.137521917542401
30
0
10
150.08120656584316
20
22.141673065256107
30
0
10
148.16229711417867
20
22.14454865303448
30
0
10
146.28712863914774
20
22.143963122052185
30
0
10
144.48207846094749
20
22.140815371768447
30
0
10
142.7116214789078
20
22.140912666346502
30
0
10
140.90552713631814
20
22.15259929479911
30
0
10
138.99100386119957
20
22.183998580609149
30
0
10
136.92049371603642
20
22.24061960722835
30
0
10
134.70723327545988
20
22.322286940089473
30
0
10
132.43858477425437
20
22.422026817287048
30
0
10
130.23191875538728
20
22.530020983682935
30
0
10
128.20080648677859
20
22.63664954342844
30
0
10
126.41807391034156
20
22.735813443288649
30
0
10
124.87796580487836
20
22.828328704303228
30
0
10
123.46516038748341
20
22.924739692750546
30
0
10
122.02226958838941
20
23.040043254311815
30
0
10
120.40581085070031
20
23.18925895713226
30
0
10
118.55563753365344
20
23.382143785980961
30
0
10
116.53072093060835
20
23.61992910895578
30
0
10
114.45265594147466
20
23.897774616019781
30
0
10
112.4632845066043
20
24.206100493945335
30
0
10
110.68139503944884
20
24.532594627936412
30
0
10
109.14865470219164
20
24.863356939842234
30
0
10
107.82099855044683
20
25.186621210819343
30
0
10
106.62661884232833
20
25.500858767834952
30
0
10
105.50385587010271
20
25.820475799509627
30
0
10
104.45592734967725
20
26.18575383027606
30
0
10
103.51710035820611
20
26.640991107852841
30
0
10
102.70035595395458
20
27.205971532009844
30
0
10
101.95843556380666
20
27.851387063704923
30
0
10
101.24593035568071
20
28.51873011478105
30
0
10
100.60189548379785
20
29.140172503561537
30
0
10
100.23335731124257
20
29.552602813108251
30
0
10
100.07238579995773
20
29.800114559144379
30
0
10
100.01567027772631
20
29.93791553740013
30
0
10
100
20
30
30
0
0
LINE
5
105
100
AcDbEntity
8
0
100
AcDbLine
10
100
20
30
30
0
11
100
21
0
31
0
0
LWPOLYLINE
5
106
100
AcDbEntity
8
0
100
AcDbPolyline
90
4
70
1
43
0.0
10
325
20
16
10
285
20
16
10
285
20
20
10
325
20
20
0
LWPOLYLINE
5
107
100
AcDbEntity
8
0
100
AcDbPolyline
90
4
70
1
43
0.0
10
155
20
16
10
115
20
16
10
115
20
20
10
155
20
20
0
LINE
5
108
100
AcDbEntity
8
0
100
AcDbLine
10
350
20
0
30
0
11
100
21
0
31
0
0
LINE
5
109
100
AcDbEntity
8
0
100
AcDbLine
10
100
20
0
30
0
11
100
21
30
31
0
0
SPLINE
5
110
100
AcDbEntity
8
0
100
AcDbSpline
70
1064
71
5
72
121
73
115
74
0
42
0.000000001
43
0.0000000001
44
0.0000000001
40
0
40
0
40
0
40
0
40
0
40
0
40
0.0090909090909090905
40
0.018181818181818181
40
0.027272727272727271
40
0.036363636363636362
40
0.045454545454545456
40
0.05454545454545455
40
0.063636363636363644
40
0.072727272727272738
40
0.081818181818181832
40
0.090909090909090925
40
0.10000000000000002
40
0.10909090909090911
40
0.11818181818181821
40
0.12727272727272729
40
0.13636363636363638
40
0.14545454545454548
40
0.15454545454545457
40
0.16363636363636366
40
0.17272727272727276
40
0.18181818181818185
40
0.19090909090909094
40
0.20000000000000004
40
0.20909090909090913
40
0.21818181818181823
40
0.22727272727272732
40
0.23636363636363641
40
0.24545454545454551
40
0.25454545454545457
40
0.26363636363636367
40
0.27272727272727276
40
0.28181818181818186
40
0.29090909090909095
40
0.30000000000000004
40
0.30909090909090914
40
0.31818181818181823
40
0.32727272727272733
40
0.33636363636363642
40
0.34545454545454551
40
0.35454545454545461
40
0.3636363636363637
40
0.3727272727272728
40
0.38181818181818189
40
0.39090909090909098
40
0.40000000000000008
40
0.40909090909090917
40
0.41818181818181827
40
0.42727272727272736
40
0.43636363636363645
40
0.44545454545454555
40
0.45454545454545464
40
0.46363636363636374
40
0.47272727272727283
40
0.48181818181818192
40
0.49090909090909102
40
0.50000000000000011
40
0.50909090909090915
40
0.51818181818181819
40
0.52727272727272723
40
0.53636363636363626
40
0.5454545454545453
40
0.55454545454545434
40
0.56363636363636338
40
0.57272727272727242
40
0.58181818181818146
40
0.5909090909090905
40
0.59999999999999953
40
0.60909090909090857
40
0.61818181818181761
40
0.62727272727272665
40
0.63636363636363569
40
0.64545454545454473
40
0.65454545454545376
40
0.6636363636363628
40
0.67272727272727184
40
0.68181818181818088
40
0.69090909090908992
40
0.69999999999999896
40
0.70909090909090799
40
0.71818181818181703
40
0.72727272727272607
40
0.73636363636363511
40
0.74545454545454415
40
0.75454545454545319
40
0.76363636363636223
40
0.77272727272727126
40
0.7818181818181803
40
0.79090909090908934
40
0.79999999999999838
40
0.80909090909090742
40
0.81818181818181646
40
0.82727272727272549
40
0.83636363636363453
40
0.84545454545454357
40
0.85454545454545261
40
0.86363636363636165
40
0.87272727272727069
40
0.88181818181817972
40
0.89090909090908876
40
0.8999999999999978
40
0.90909090909090684
40
0.91818181818181588
40
0.92727272727272492
40
0.93636363636363396
40
0.94545454545454299
40
0.95454545454545203
40
0.96363636363636107
40
0.97272727272727011
40
0.98181818181817915
40
0.99090909090908819
40
1
40
1
40
1
40
1
40
1
40
1
10
100
20
30
30
0
10
100.01567027772631
20
29.93791553740013
30
0
10
100.07238579995773
20
29.800114559144379
30
0
10
100.23335731124257
20
29.552602813108251
30
0
10
100.60189548379785
20
29.140172503561537
30
0
10
101.24593035568071
20
28.51873011478105
30
0
10
101.95843556380666
20
27.851387063704923
30
0
10
102.70035595395458
20
27.205971532009844
30
0
10
103.51710035820611
20
26.640991107852841
30
0
10
104.45592734967725
20
26.18575383027606
30
0
10
105.50385587010271
20
25.820475799509627
30
0
10
106.62661884232833
20
25.500858767834952
30
0
10
107.82099855044683
20
25.186621210819343
30
0
10
109.14865470219164
20
24.863356939842234
30
0
10
110.68139503944884
20
24.532594627936412
30
0
10
112.4632845066043
20
24.206100493945335
30
0
10
114.45265594147466
20
23.897774616019781
30
0
10
116.53072093060835
20
23.61992910895578
30
0
10
118.55563753365344
20
23.382143785980961
30
0
10
120.40581085070031
20
23.18925895713226
30
0
10
122.02226958838941
20
23.040043254311815
30
0
10
123.46516038748341
20
22.924739692750546
30
0
10
124.87796580487836
20
22.828328704303228
30
0
10
126.41807391034156
20
22.735813443288649
30
0
10
128.20080648677859
20
22.63664954342844
30
0
10
130.23191875538728
20
22.530020983682935
30
0
10
132.43858477425437
20
22.422026817287048
30
0
10
134.70723327545988
20
22.322286940089473
30
0
10
136.92049371603642
20
22.24061960722835
30
0
10
138.99100386119957
20
22.183998580609149
30
0
10
140.90552713631814
20
22.15259929479911
30
0
10
142.7116214789078
20
22.140912666346502
30
0
10
144.48207846094749
20
22.140815371768447
30
0
10
146.28712863914774
20
22.143963122052185
30
0
10
148.16229711417867
20
22.14454865303448
30
0
10
150.08120656584316
20
22.141673065256107
30
0
10
151.9835997080105
20
22.137521917542401
30
0
10
153.80211284100449
20
22.135658701020859
30
0
10
155.48665476057241
20
22.139442603406778
30
0
10
157.03664943395279
20
22.149993434834684
30
0
10
158.50388894214012
20
22.165872918124808
30
0
10
159.95864144804213
20
22.184915304595776
30
0
10
161.46786990215728
20
22.205351525933782
30
0
10
163.06244026459692
20
22.227572159807924
30
0
10
164.73981888265712
20
22.253839742642274
30
0
10
166.4847625667193
20
22.28696172598481
30
0
10
168.28276523696417
20
22.329383061724855
30
0
10
170.14051083088094
20
22.381870121336927
30
0
10
172.08759796839195
20
22.443292621933377
30
0
10
174.16145504633295
20
22.511402931245787
30
0
10
176.39623227221625
20
22.58336319716431
30
0
10
178.8112355720348
20
22.656340195453506
30
0
10
181.39673785999494
20
22.728154961160499
30
0
10
184.11082038845825
20
22.797613022330228
30
0
10
186.89387385996682
20
22.864300498945951
30
0
10
189.6789924720542
20
22.928508632974776
30
0
10
192.40381259616012
20
22.991106096562525
30
0
10
195.02221112630781
20
23.053435674743497
30
0
10
197.51495155973797
20
23.117196811447368
30
0
10
199.90371549037138
20
23.184344779326423
30
0
10
202.24197333670992
20
23.256904534980116
30
0
10
204.59972288822473
20
23.33676105321284
30
0
10
207.05058220233894
20
23.425462511160788
30
0
10
209.6573199044806
20
23.524006790398367
30
0
10
212.45940543399701
20
23.632660816585592
30
0
10
215.45623642680411
20
23.750699299609558
30
0
10
218.61074645430352
20
23.876533467251562
30
0
10
221.86222336463277
20
24.008016948336607
30
0
10
225.13619392787143
20
24.142695147124513
30
0
10
228.35550262059357
20
24.278077504417883
30
0
10
231.45091154478945
20
24.411900759475476
30
0
10
234.37182319005277
20
24.542394092082624
30
0
10
237.09716331796105
20
24.668548618793462
30
0
10
239.64563937400493
20
24.790371628175514
30
0
10
242.06342826180159
20
24.908595702196713
30
0
10
244.41244919347474
20
25.024402004442805
30
0
10
246.7585309998932
20
25.139140954126461
30
0
10
249.15939473764837
20
25.254048715976062
30
0
10
251.65326298664499
20
25.369978268337071
30
0
10
254.24571883019354
20
25.487089785012913
30
0
10
256.91650388402093
20
25.605005240474551
30
0
10
259.6287022890977
20
25.723018724921374
30
0
10
262.33694445509349
20
25.840283665910153
30
0
10
264.99628769947202
20
25.956016516299698
30
0
10
267.5701774264478
20
26.069677465720808
30
0
10
270.04033392843144
20
26.181199849624171
30
0
10
272.41055431010221
20
26.291065300410381
30
0
10
274.69991575335024
20
26.400109528473685
30
0
10
276.93843655285957
20
26.509391208293245
30
0
10
279.16162152156255
20
26.620030839713511
30
0
10
281.40580085040307
20
26.733073643280335
30
0
10
283.70234814874249
20
26.849314258454253
30
0
10
286.07586181423778
20
26.969262016468299
30
0
10
288.54504084560818
20
27.093202978869204
30
0
10
291.12277333595409
20
27.221233129597351
30
0
10
293.81653281555197
20
27.353303991337654
30
0
10
296.62866957062914
20
27.489261301819006
30
0
10
299.55667021542865
20
27.628890308432776
30
0
10
302.59368966860262
20
27.771945043844845
30
0
10
305.72955270332409
20
27.918155038223695
30
0
10
308.95163755857135
20
28.067237251682499
30
0
10
312.24581120284108
20
28.218905963507236
30
0
10
315.59732855736786
20
28.372883364093767
30
0
10
318.99177633582246
20
28.528910224804541
30
0
10
322.41592816669288
20
28.686755649932259
30
0
10
325.85881055180198
20
28.846229442558879
30
0
10
329.31198217960468
20
29.00718443104422
30
0
10
332.76908395968638
20
29.16950943400014
30
0
10
336.22559166632078
20
29.333124832166206
30
0
10
339.67848669529269
20
29.497977089650504
30
0
10
343.12596283193773
20
29.66403373973915
30
0
10
345.87888716623945
20
29.797829293503245
30
0
10
347.94060179564485
20
29.898707834309217
30
0
10
349.31375454317907
20
29.966196551915619
30
0
10
350
20
30
30
0
0
LINE
5
111
100
AcDbEntity
8
0
100
AcDbLine
10
350
20
30
30
0
11
350
21
0
31
0
0
ENDSEC
0
SECTION
2
OBJECTS
0
DICTIONARY
5
C
100
AcDbDictionary
3
ACAD_GROUP
350
D
3
ACAD_MLINESTYLE
350
17
0
DICTIONARY
5
D
100
AcDbDictionary
0
DICTIONARY
5
1A
330
C
100
AcDbDictionary
0
DICTIONARY
5
17
100
AcDbDictionary
0
ENDSEC
0
EOF
