0
SECTION
2
HEADER
9
$INSUNITS
70
4
9
$ACADVER
1
AC1014
9
$HANDSEED
5
FFFF
0
ENDSEC
0
SECTION
2
TABLES
0
TABLE
2
VPORT
5
8
100
AcDbSymbolTable
0
ENDTAB
0
TABLE
2
LTYPE
5
5
100
AcDbSymbolTable
0
LTYPE
5
14
100
AcDbSymbolTableRecord
100
AcDbLinetypeTableRecord
2
BYBLOCK
70
0
0
LTYPE
5
15
100
AcDbSymbolTableRecord
100
AcDbLinetypeTableRecord
2
BYLAYER
70
0
0
ENDTAB
0
TABLE
2
LAYER
5
2
100
AcDbSymbolTable
70
2
0
LAYER
5
50
100
AcDbSymbolTableRecord
100
AcDbLayerTableRecord
2
0
70
0
6
CONTINUOUS
0
ENDTAB
0
TABLE
2
STYLE
5
3
100
AcDbSymbolTable
70
1
0
STYLE
5
11
100
AcDbSymbolTableRecord
100
AcDbTextStyleTableRecord
2
STANDARD
70
0
0
ENDTAB
0
TABLE
2
VIEW
5
6
100
AcDbSymbolTable
70
0
0
ENDTAB
0
TABLE
2
UCS
5
7
100
AcDbSymbolTable
70
0
0
ENDTAB
0
TABLE
2
APPID
5
9
100
AcDbSymbolTable
70
2
0
APPID
5
12
100
AcDbSymbolTableRecord
100
AcDbRegAppTableRecord
2
ACAD
70
0
0
ENDTAB
0
TABLE
2
DIMSTYLE
5
A
100
AcDbSymbolTable
70
1
0
ENDTAB
0
TABLE
2
BLOCK_RECORD
5
1
100
AcDbSymbolTable
70
1
0
BLOCK_RECORD
5
1F
100
AcDbSymbolTableRecord
100
AcDbBlockTableRecord
2
*MODEL_SPACE
0
BLOCK_RECORD
5
1B
100
AcDbSymbolTableRecord
100
AcDbBlockTableRecord
2
*PAPER_SPACE
0
ENDTAB
0
ENDSEC
0
SECTION
2
BLOCKS
0
BLOCK
5
20
100
AcDbEntity
100
AcDbBlockBegin
2
*MODEL_SPACE
0
ENDBLK
5
21
100
AcDbEntity
100
AcDbBlockEnd
0
BLOCK
5
1C
100
AcDbEntity
100
AcDbBlockBegin
2
*PAPER_SPACE
0
ENDBLK
5
1D
100
AcDbEntity
100
AcDbBlockEnd
0
ENDSEC
0
SECTION
2
ENTITIES
0
LINE
5
100
100
AcDbEntity
8
0
100
AcDbLine
10
7.5548602154225799
20
-120.34213202609695
30
0
11
7.8695600000000008
21
-120.57200000000002
31
0
0
LINE
5
101
100
AcDbEntity
8
0
100
AcDbLine
10
7.8695600000000008
20
-120.57200000000002
30
0
11
8.2282600000000006
21
-120.83
31
0
0
LINE
5
102
100
AcDbEntity
8
0
100
AcDbLine
10
8.2282600000000006
20
-120.83
30
0
11
8.5869600000000013
21
-121.04700000000001
31
0
0
LINE
5
103
100
AcDbEntity
8
0
100
AcDbLine
10
8.5869600000000013
20
-121.04700000000001
30
0
11
8.9456500000000005
21
-121.233
31
0
0
LINE
5
104
100
AcDbEntity
8
0
100
AcDbLine
10
8.9456500000000005
20
-121.233
30
0
11
9.3043499999999995
21
-121.419
31
0
0
LINE
5
105
100
AcDbEntity
8
0
100
AcDbLine
10
9.3043499999999995
20
-121.419
30
0
11
9.6630399999999987
21
-121.57299999999999
31
0
0
LINE
5
106
100
AcDbEntity
8
0
100
AcDbLine
10
9.6630399999999987
20
-121.57299999999999
30
0
11
10.021699999999999
21
-121.68799999999999
31
0
0
LINE
5
107
100
AcDbEntity
8
0
100
AcDbLine
10
10.021699999999999
20
-121.68799999999999
30
0
11
10.739100000000001
21
-121.91800000000001
31
0
0
LINE
5
108
100
AcDbEntity
8
0
100
AcDbLine
10
10.739100000000001
20
-121.91800000000001
30
0
11
11.097799999999999
21
-122.03400000000001
31
0
0
LINE
5
109
100
AcDbEntity
8
0
100
AcDbLine
10
11.097799999999999
20
-122.03400000000001
30
0
11
11.4565
21
-122.13900000000001
31
0
0
LINE
5
110
100
AcDbEntity
8
0
100
AcDbLine
10
11.4565
20
-122.13900000000001
30
0
11
11.815200000000001
21
-122.23100000000002
31
0
0
LINE
5
111
100
AcDbEntity
8
0
100
AcDbLine
10
11.815200000000001
20
-122.23100000000002
30
0
11
12.1739
21
-122.324
31
0
0
LINE
5
112
100
AcDbEntity
8
0
100
AcDbLine
10
12.1739
20
-122.324
30
0
11
13.250000000000002
21
-122.59999999999999
31
0
0
LINE
5
113
100
AcDbEntity
8
0
100
AcDbLine
10
13.250000000000002
20
-122.59999999999999
30
0
11
13.608700000000002
21
-122.69100000000002
31
0
0
LINE
5
114
100
AcDbEntity
8
0
100
AcDbLine
10
13.608700000000002
20
-122.69100000000002
30
0
11
14.326100000000002
21
-122.84500000000001
31
0
0
LINE
5
115
100
AcDbEntity
8
0
100
AcDbLine
10
14.326100000000002
20
-122.84500000000001
30
0
11
14.684799999999999
21
-122.92299999999999
31
0
0
LINE
5
116
100
AcDbEntity
8
0
100
AcDbLine
10
14.684799999999999
20
-122.92299999999999
30
0
11
15
21
-122.99100000000001
31
0
0
LINE
5
117
100
AcDbEntity
8
0
100
AcDbLine
10
15
20
-122.99100000000001
30
0
11
15.043500000000002
21
-123
31
0
0
LINE
5
118
100
AcDbEntity
8
0
100
AcDbLine
10
15.043500000000002
20
-123
30
0
11
15.402200000000001
21
-123.078
31
0
0
LINE
5
119
100
AcDbEntity
8
0
100
AcDbLine
10
15.402200000000001
20
-123.078
30
0
11
15.760899999999999
21
-123.155
31
0
0
LINE
5
120
100
AcDbEntity
8
0
100
AcDbLine
10
15.760899999999999
20
-123.155
30
0
11
16.119599999999998
21
-123.233
31
0
0
LINE
5
121
100
AcDbEntity
8
0
100
AcDbLine
10
16.119599999999998
20
-123.233
30
0
11
16.478300000000001
21
-123.30100000000002
31
0
0
LINE
5
122
100
AcDbEntity
8
0
100
AcDbLine
10
16.478300000000001
20
-123.30100000000002
30
0
11
16.837
21
-123.36300000000001
31
0
0
LINE
5
123
100
AcDbEntity
8
0
100
AcDbLine
10
16.837
20
-123.36300000000001
30
0
11
17.195599999999999
21
-123.42500000000001
31
0
0
LINE
5
124
100
AcDbEntity
8
0
100
AcDbLine
10
17.195599999999999
20
-123.42500000000001
30
0
11
19.347799999999999
21
-123.79700000000001
31
0
0
LINE
5
125
100
AcDbEntity
8
0
100
AcDbLine
10
19.347799999999999
20
-123.79700000000001
30
0
11
19.706499999999998
21
-123.855
31
0
0
LINE
5
126
100
AcDbEntity
8
0
100
AcDbLine
10
19.706499999999998
20
-123.855
30
0
11
20.065200000000001
21
-123.89800000000001
31
0
0
LINE
5
127
100
AcDbEntity
8
0
100
AcDbLine
10
20.065200000000001
20
-123.89800000000001
30
0
11
20.423900000000003
21
-123.94200000000001
31
0
0
LINE
5
128
100
AcDbEntity
8
0
100
AcDbLine
10
20.423900000000003
20
-123.94200000000001
30
0
11
21.141300000000001
21
-124.02799999999999
31
0
0
LINE
5
129
100
AcDbEntity
8
0
100
AcDbLine
10
21.141300000000001
20
-124.02799999999999
30
0
11
21.5
21
-124.07200000000002
31
0
0
LINE
5
130
100
AcDbEntity
8
0
100
AcDbLine
10
21.5
20
-124.07200000000002
30
0
11
22.5761
21
-124.20100000000002
31
0
0
LINE
5
131
100
AcDbEntity
8
0
100
AcDbLine
10
22.5761
20
-124.20100000000002
30
0
11
22.934800000000003
21
-124.24500000000002
31
0
0
LINE
5
132
100
AcDbEntity
8
0
100
AcDbLine
10
22.934800000000003
20
-124.24500000000002
30
0
11
24.010899999999999
21
-124.374
31
0
0
LINE
5
133
100
AcDbEntity
8
0
100
AcDbLine
10
24.010899999999999
20
-124.374
30
0
11
24.369599999999998
21
-124.41800000000001
31
0
0
LINE
5
134
100
AcDbEntity
8
0
100
AcDbLine
10
24.369599999999998
20
-124.41800000000001
30
0
11
24.728300000000001
21
-124.45100000000002
31
0
0
LINE
5
135
100
AcDbEntity
8
0
100
AcDbLine
10
24.728300000000001
20
-124.45100000000002
30
0
11
25
21
-124.473
31
0
0
LINE
5
136
100
AcDbEntity
8
0
100
AcDbLine
10
25
20
-124.473
30
0
11
25.087000000000003
21
-124.48
31
0
0
LINE
5
137
100
AcDbEntity
8
0
100
AcDbLine
10
25.087000000000003
20
-124.48
30
0
11
25.445600000000002
21
-124.51000000000001
31
0
0
LINE
5
138
100
AcDbEntity
8
0
100
AcDbLine
10
25.445600000000002
20
-124.51000000000001
30
0
11
25.804300000000001
21
-124.53900000000002
31
0
0
LINE
5
139
100
AcDbEntity
8
0
100
AcDbLine
10
25.804300000000001
20
-124.53900000000002
30
0
11
26.521699999999999
21
-124.59899999999999
31
0
0
LINE
5
140
100
AcDbEntity
8
0
100
AcDbLine
10
26.521699999999999
20
-124.59899999999999
30
0
11
26.880400000000005
21
-124.628
31
0
0
LINE
5
141
100
AcDbEntity
8
0
100
AcDbLine
10
26.880400000000005
20
-124.628
30
0
11
27.239100000000001
21
-124.658
31
0
0
LINE
5
142
100
AcDbEntity
8
0
100
AcDbLine
10
27.239100000000001
20
-124.658
30
0
11
27.597799999999999
21
-124.68700000000001
31
0
0
LINE
5
143
100
AcDbEntity
8
0
100
AcDbLine
10
27.597799999999999
20
-124.68700000000001
30
0
11
28.315200000000004
21
-124.74700000000001
31
0
0
LINE
5
144
100
AcDbEntity
8
0
100
AcDbLine
10
28.315200000000004
20
-124.74700000000001
30
0
11
28.673900000000003
21
-124.77600000000002
31
0
0
LINE
5
145
100
AcDbEntity
8
0
100
AcDbLine
10
28.673900000000003
20
-124.77600000000002
30
0
11
29.391300000000005
21
-124.83600000000001
31
0
0
LINE
5
146
100
AcDbEntity
8
0
100
AcDbLine
10
29.391300000000005
20
-124.83600000000001
30
0
11
29.75
21
-124.86499999999999
31
0
0
LINE
5
147
100
AcDbEntity
8
0
100
AcDbLine
10
29.75
20
-124.86499999999999
30
0
11
30
21
-124.88600000000002
31
0
0
LINE
5
148
100
AcDbEntity
8
0
100
AcDbLine
10
30
20
-124.88600000000002
30
0
11
33.260899999999999
21
-125.053
31
0
0
LINE
5
149
100
AcDbEntity
8
0
100
AcDbLine
10
33.260899999999999
20
-125.053
30
0
11
36.521700000000003
21
-125.19100000000002
31
0
0
LINE
5
150
100
AcDbEntity
8
0
100
AcDbLine
10
52.826099999999997
20
-125.56800000000001
30
0
11
56.086999999999996
21
-125.59100000000001
31
0
0
LINE
5
151
100
AcDbEntity
8
0
100
AcDbLine
10
56.086999999999996
20
-125.59100000000001
30
0
11
59.347799999999999
21
-125.56
31
0
0
LINE
5
152
100
AcDbEntity
8
0
100
AcDbLine
10
59.347799999999999
20
-125.56
30
0
11
62.608700000000006
21
-125.53
31
0
0
LINE
5
153
100
AcDbEntity
8
0
100
AcDbLine
10
62.608700000000006
20
-125.53
30
0
11
65.5
21
-125.503
31
0
0
LINE
5
154
100
AcDbEntity
8
0
100
AcDbLine
10
65.5
20
-125.503
30
0
11
65.5
21
-121.503
31
0
0
LINE
5
155
100
AcDbEntity
8
0
100
AcDbLine
10
65.5
20
-121.503
30
0
11
69.5
21
-121.503
31
0
0
LINE
5
156
100
AcDbEntity
8
0
100
AcDbLine
10
69.5
20
-121.503
30
0
11
69.5
21
-125.44800000000001
31
0
0
LINE
5
157
100
AcDbEntity
8
0
100
AcDbLine
10
69.5
20
-125.44800000000001
30
0
11
72.391300000000001
21
-125.38600000000002
31
0
0
LINE
5
158
100
AcDbEntity
8
0
100
AcDbLine
10
72.391300000000001
20
-125.38600000000002
30
0
11
75.652199999999993
21
-125.31700000000001
31
0
0
LINE
5
159
100
AcDbEntity
8
0
100
AcDbLine
10
75.652199999999993
20
-125.31700000000001
30
0
11
78.913100000000014
21
-125.24700000000003
31
0
0
LINE
5
160
100
AcDbEntity
8
0
100
AcDbLine
10
78.913100000000014
20
-125.24700000000003
30
0
11
82.173900000000003
21
-125.16300000000001
31
0
0
LINE
5
161
100
AcDbEntity
8
0
100
AcDbLine
10
82.173900000000003
20
-125.16300000000001
30
0
11
88.695700000000016
21
-124.97300000000001
31
0
0
LINE
5
162
100
AcDbEntity
8
0
100
AcDbLine
10
88.695700000000016
20
-124.97300000000001
30
0
11
91.956500000000005
21
-124.878
31
0
0
LINE
5
163
100
AcDbEntity
8
0
100
AcDbLine
10
91.956500000000005
20
-124.878
30
0
11
98.478300000000019
21
-124.688
31
0
0
LINE
5
164
100
AcDbEntity
8
0
100
AcDbLine
10
98.478300000000019
20
-124.688
30
0
11
101.739
21
-124.59299999999999
31
0
0
LINE
5
165
100
AcDbEntity
8
0
100
AcDbLine
10
101.739
20
-124.59299999999999
30
0
11
105
21
-124.49799999999999
31
0
0
LINE
5
166
100
AcDbEntity
8
0
100
AcDbLine
10
105
20
-124.49799999999999
30
0
11
114.78299999999999
21
-124.13500000000001
31
0
0
LINE
5
167
100
AcDbEntity
8
0
100
AcDbLine
10
114.78299999999999
20
-124.13500000000001
30
0
11
118.04299999999999
21
-124.01400000000001
31
0
0
LINE
5
168
100
AcDbEntity
8
0
100
AcDbLine
10
118.04299999999999
20
-124.01400000000001
30
0
11
127.82600000000002
21
-123.65100000000001
31
0
0
LINE
5
169
100
AcDbEntity
8
0
100
AcDbLine
10
127.82600000000002
20
-123.65100000000001
30
0
11
131.08700000000002
21
-123.521
31
0
0
LINE
5
170
100
AcDbEntity
8
0
100
AcDbLine
10
131.08700000000002
20
-123.521
30
0
11
137.60900000000001
21
-123.23100000000002
31
0
0
LINE
5
171
100
AcDbEntity
8
0
100
AcDbLine
10
137.60900000000001
20
-123.23100000000002
30
0
11
140.87
21
-123.08500000000001
31
0
0
LINE
5
172
100
AcDbEntity
8
0
100
AcDbLine
10
140.87
20
-123.08500000000001
30
0
11
144.13
21
-122.94
31
0
0
LINE
5
173
100
AcDbEntity
8
0
100
AcDbLine
10
144.13
20
-122.94
30
0
11
147.39100000000002
21
-122.795
31
0
0
LINE
5
174
100
AcDbEntity
8
0
100
AcDbLine
10
147.39100000000002
20
-122.795
30
0
11
150.65200000000002
21
-122.649
31
0
0
LINE
5
175
100
AcDbEntity
8
0
100
AcDbLine
10
150.65200000000002
20
-122.649
30
0
11
153.91299999999998
21
-122.50399999999999
31
0
0
LINE
5
176
100
AcDbEntity
8
0
100
AcDbLine
10
153.91299999999998
20
-122.50399999999999
30
0
11
157.17400000000001
21
-122.352
31
0
0
LINE
5
177
100
AcDbEntity
8
0
100
AcDbLine
10
160.435
20
-122.19799999999999
30
0
11
163.69600000000003
21
-122.04300000000001
31
0
0
LINE
5
178
100
AcDbEntity
8
0
100
AcDbLine
10
163.69600000000003
20
-122.04300000000001
30
0
11
166.95699999999999
21
-121.88900000000001
31
0
0
LINE
5
179
100
AcDbEntity
8
0
100
AcDbLine
10
170.21700000000004
20
-121.73400000000001
30
0
11
173
21
-121.60200000000002
31
0
0
LINE
5
180
100
AcDbEntity
8
0
100
AcDbLine
10
173
20
-121.60200000000002
30
0
11
173
21
-117.602
31
0
0
LINE
5
181
100
AcDbEntity
8
0
100
AcDbLine
10
173
20
-117.602
30
0
11
177
21
-117.602
31
0
0
LINE
5
182
100
AcDbEntity
8
0
100
AcDbLine
10
177
20
-117.602
30
0
11
177
21
-121.41300000000001
31
0
0
LINE
5
183
100
AcDbEntity
8
0
100
AcDbLine
10
189.78300000000002
20
-120.804
30
0
11
193.04300000000001
21
-120.64900000000002
31
0
0
LINE
5
184
100
AcDbEntity
8
0
100
AcDbLine
10
193.04300000000001
20
-120.64900000000002
30
0
11
196.30400000000003
21
-120.49300000000001
31
0
0
LINE
5
185
100
AcDbEntity
8
0
100
AcDbLine
10
196.30400000000003
20
-120.49300000000001
30
0
11
199.56500000000003
21
-120.33799999999999
31
0
0
LINE
5
186
100
AcDbEntity
8
0
100
AcDbLine
10
199.56500000000003
20
-120.33799999999999
30
0
11
202.82600000000002
21
-120.182
31
0
0
LINE
5
187
100
AcDbEntity
8
0
100
AcDbLine
10
238.69600000000003
20
-114.28200000000002
30
0
11
235.435
21
-113.74000000000001
31
0
0
LINE
5
188
100
AcDbEntity
8
0
100
AcDbLine
10
235.435
20
-113.74000000000001
30
0
11
235
21
-113.66799999999999
31
0
0
LINE
5
189
100
AcDbEntity
8
0
100
AcDbLine
10
235
20
-113.66799999999999
30
0
11
232.17400000000001
21
-113.19900000000001
31
0
0
LINE
5
190
100
AcDbEntity
8
0
100
AcDbLine
10
232.17400000000001
20
-113.19900000000001
30
0
11
228.91300000000001
21
-112.679
31
0
0
LINE
5
191
100
AcDbEntity
8
0
100
AcDbLine
10
228.91300000000001
20
-112.679
30
0
11
225.65200000000004
21
-112.19499999999999
31
0
0
LINE
5
192
100
AcDbEntity
8
0
100
AcDbLine
10
225.65200000000004
20
-112.19499999999999
30
0
11
225
21
-112.09800000000001
31
0
0
LINE
5
193
100
AcDbEntity
8
0
100
AcDbLine
10
225
20
-112.09800000000001
30
0
11
222.39100000000002
21
-111.71100000000001
31
0
0
LINE
5
194
100
AcDbEntity
8
0
100
AcDbLine
10
222.39100000000002
20
-111.71100000000001
30
0
11
219.13
21
-111.22700000000002
31
0
0
LINE
5
195
100
AcDbEntity
8
0
100
AcDbLine
10
219.13
20
-111.22700000000002
30
0
11
215.87000000000003
21
-110.74300000000001
31
0
0
LINE
5
196
100
AcDbEntity
8
0
100
AcDbLine
10
215.87000000000003
20
-110.74300000000001
30
0
11
206.08700000000002
21
-109.291
31
0
0
LINE
5
197
100
AcDbEntity
8
0
100
AcDbLine
10
206.08700000000002
20
-109.291
30
0
11
202.82600000000002
21
-108.86200000000002
31
0
0
LINE
5
198
100
AcDbEntity
8
0
100
AcDbLine
10
177
20
-105.69400000000002
30
0
11
177
21
-109.283
31
0
0
LINE
5
199
100
AcDbEntity
8
0
100
AcDbLine
10
177
20
-109.283
30
0
11
173
21
-109.283
31
0
0
LINE
5
200
100
AcDbEntity
8
0
100
AcDbLine
10
173
20
-109.283
30
0
11
173
21
-105.283
31
0
0
LINE
5
201
100
AcDbEntity
8
0
100
AcDbLine
10
173
20
-105.283
30
0
11
170.21700000000004
21
-104.99700000000003
31
0
0
LINE
5
202
100
AcDbEntity
8
0
100
AcDbLine
10
170.21700000000004
20
-104.99700000000003
30
0
11
166.95699999999999
21
-104.66200000000001
31
0
0
LINE
5
203
100
AcDbEntity
8
0
100
AcDbLine
10
166.95699999999999
20
-104.66200000000001
30
0
11
157.17400000000001
21
-103.65700000000002
31
0
0
LINE
5
204
100
AcDbEntity
8
0
100
AcDbLine
10
157.17400000000001
20
-103.65700000000002
30
0
11
153.91299999999998
21
-103.35500000000002
31
0
0
LINE
5
205
100
AcDbEntity
8
0
100
AcDbLine
10
153.91299999999998
20
-103.35500000000002
30
0
11
144.13
21
-102.599
31
0
0
LINE
5
206
100
AcDbEntity
8
0
100
AcDbLine
10
144.13
20
-102.599
30
0
11
140.87
21
-102.346
31
0
0
LINE
5
207
100
AcDbEntity
8
0
100
AcDbLine
10
140.87
20
-102.346
30
0
11
131.08700000000002
21
-101.59
31
0
0
LINE
5
208
100
AcDbEntity
8
0
100
AcDbLine
10
131.08700000000002
20
-101.59
30
0
11
127.82600000000002
21
-101.40500000000002
31
0
0
LINE
5
209
100
AcDbEntity
8
0
100
AcDbLine
10
127.82600000000002
20
-101.40500000000002
30
0
11
118.04299999999999
21
-100.93700000000001
31
0
0
LINE
5
210
100
AcDbEntity
8
0
100
AcDbLine
10
118.04299999999999
20
-100.93700000000001
30
0
11
114.78299999999999
21
-100.78100000000001
31
0
0
LINE
5
211
100
AcDbEntity
8
0
100
AcDbLine
10
114.78299999999999
20
-100.78100000000001
30
0
11
105
21
-100.313
31
0
0
LINE
5
212
100
AcDbEntity
8
0
100
AcDbLine
10
105
20
-100.313
30
0
11
101.739
21
-100.30100000000002
31
0
0
LINE
5
213
100
AcDbEntity
8
0
100
AcDbLine
10
101.739
20
-100.30100000000002
30
0
11
98.478300000000019
21
-100.28800000000001
31
0
0
LINE
5
214
100
AcDbEntity
8
0
100
AcDbLine
10
98.478300000000019
20
-100.28800000000001
30
0
11
88.695599999999999
21
-100.25200000000001
31
0
0
LINE
5
215
100
AcDbEntity
8
0
100
AcDbLine
10
88.695599999999999
20
-100.25200000000001
30
0
11
85.43480000000001
21
-100.23899999999999
31
0
0
LINE
5
216
100
AcDbEntity
8
0
100
AcDbLine
10
85.43480000000001
20
-100.23899999999999
30
0
11
82.173900000000003
21
-100.227
31
0
0
LINE
5
217
100
AcDbEntity
8
0
100
AcDbLine
10
82.173900000000003
20
-100.227
30
0
11
78.912999999999997
21
-100.24900000000001
31
0
0
LINE
5
218
100
AcDbEntity
8
0
100
AcDbLine
10
78.912999999999997
20
-100.24900000000001
30
0
11
75.652199999999993
21
-100.383
31
0
0
LINE
5
219
100
AcDbEntity
8
0
100
AcDbLine
10
75.652199999999993
20
-100.383
30
0
11
72.391300000000001
21
-100.51600000000001
31
0
0
LINE
5
220
100
AcDbEntity
8
0
100
AcDbLine
10
72.391300000000001
20
-100.51600000000001
30
0
11
69.5
21
-100.63400000000001
31
0
0
LINE
5
221
100
AcDbEntity
8
0
100
AcDbLine
10
69.5
20
-100.63400000000001
30
0
11
69.5
21
-104.634
31
0
0
LINE
5
222
100
AcDbEntity
8
0
100
AcDbLine
10
69.5
20
-104.634
30
0
11
65.5
21
-104.634
31
0
0
LINE
5
223
100
AcDbEntity
8
0
100
AcDbLine
10
65.5
20
-104.634
30
0
11
65.5
21
-100.854
31
0
0
LINE
5
224
100
AcDbEntity
8
0
100
AcDbLine
10
65.5
20
-100.854
30
0
11
62.608700000000006
21
-101.07799999999999
31
0
0
LINE
5
225
100
AcDbEntity
8
0
100
AcDbLine
10
62.608700000000006
20
-101.07799999999999
30
0
11
59.347799999999999
21
-101.331
31
0
0
LINE
5
226
100
AcDbEntity
8
0
100
AcDbLine
10
59.347799999999999
20
-101.331
30
0
11
56.086999999999996
21
-101.584
31
0
0
LINE
5
227
100
AcDbEntity
8
0
100
AcDbLine
10
56.086999999999996
20
-101.584
30
0
11
52.826099999999997
21
-101.90600000000002
31
0
0
LINE
5
228
100
AcDbEntity
8
0
100
AcDbLine
10
52.826099999999997
20
-101.90600000000002
30
0
11
49.565200000000004
21
-102.301
31
0
0
LINE
5
229
100
AcDbEntity
8
0
100
AcDbLine
10
49.565200000000004
20
-102.301
30
0
11
46.304400000000001
21
-102.697
31
0
0
LINE
5
230
100
AcDbEntity
8
0
100
AcDbLine
10
46.304400000000001
20
-102.697
30
0
11
43.043500000000002
21
-103.09200000000003
31
0
0
LINE
5
231
100
AcDbEntity
8
0
100
AcDbLine
10
43.043500000000002
20
-103.09200000000003
30
0
11
39.782600000000002
21
-103.60500000000002
31
0
0
LINE
5
232
100
AcDbEntity
8
0
100
AcDbLine
10
39.782600000000002
20
-103.60500000000002
30
0
11
36.521700000000003
21
-104.19
31
0
0
LINE
5
233
100
AcDbEntity
8
0
100
AcDbLine
10
36.521700000000003
20
-104.19
30
0
11
33.260899999999999
21
-104.77500000000001
31
0
0
LINE
5
234
100
AcDbEntity
8
0
100
AcDbLine
10
33.260899999999999
20
-104.77500000000001
30
0
11
30
21
-105.35899999999999
31
0
0
LINE
5
235
100
AcDbEntity
8
0
100
AcDbLine
10
30
20
-105.35899999999999
30
0
11
29.75
21
-105.404
31
0
0
LINE
5
236
100
AcDbEntity
8
0
100
AcDbLine
10
29.75
20
-105.404
30
0
11
29.391300000000005
21
-105.46900000000001
31
0
0
LINE
5
237
100
AcDbEntity
8
0
100
AcDbLine
10
29.391300000000005
20
-105.46900000000001
30
0
11
29.032599999999999
21
-105.54700000000003
31
0
0
LINE
5
238
100
AcDbEntity
8
0
100
AcDbLine
10
29.032599999999999
20
-105.54700000000003
30
0
11
26.521699999999999
21
-106.149
31
0
0
LINE
5
239
100
AcDbEntity
8
0
100
AcDbLine
10
26.521699999999999
20
-106.149
30
0
11
26.163000000000004
21
-106.23400000000001
31
0
0
LINE
5
240
100
AcDbEntity
8
0
100
AcDbLine
10
26.163000000000004
20
-106.23400000000001
30
0
11
25.445600000000002
21
-106.40600000000001
31
0
0
LINE
5
241
100
AcDbEntity
8
0
100
AcDbLine
10
25.445600000000002
20
-106.40600000000001
30
0
11
25.087000000000003
21
-106.492
31
0
0
LINE
5
242
100
AcDbEntity
8
0
100
AcDbLine
10
25.087000000000003
20
-106.492
30
0
11
25
21
-106.51299999999999
31
0
0
LINE
5
243
100
AcDbEntity
8
0
100
AcDbLine
10
25
20
-106.51299999999999
30
0
11
24.728300000000001
21
-106.578
31
0
0
LINE
5
244
100
AcDbEntity
8
0
100
AcDbLine
10
24.728300000000001
20
-106.578
30
0
11
23.293500000000002
21
-106.92200000000001
31
0
0
LINE
5
245
100
AcDbEntity
8
0
100
AcDbLine
10
23.293500000000002
20
-106.92200000000001
30
0
11
22.934800000000003
21
-107.01100000000002
31
0
0
LINE
5
246
100
AcDbEntity
8
0
100
AcDbLine
10
22.934800000000003
20
-107.01100000000002
30
0
11
22.217400000000001
21
-107.20700000000001
31
0
0
LINE
5
247
100
AcDbEntity
8
0
100
AcDbLine
10
22.217400000000001
20
-107.20700000000001
30
0
11
21.858699999999999
21
-107.30600000000001
31
0
0
LINE
5
248
100
AcDbEntity
8
0
100
AcDbLine
10
21.858699999999999
20
-107.30600000000001
30
0
11
21.141300000000001
21
-107.50200000000001
31
0
0
LINE
5
249
100
AcDbEntity
8
0
100
AcDbLine
10
21.141300000000001
20
-107.50200000000001
30
0
11
20.782599999999999
21
-107.60400000000001
31
0
0
LINE
5
250
100
AcDbEntity
8
0
100
AcDbLine
10
20.782599999999999
20
-107.60400000000001
30
0
11
20.065200000000001
21
-107.81800000000001
31
0
0
LINE
5
251
100
AcDbEntity
8
0
100
AcDbLine
10
20.065200000000001
20
-107.81800000000001
30
0
11
19.706499999999998
21
-107.926
31
0
0
LINE
5
252
100
AcDbEntity
8
0
100
AcDbLine
10
19.706499999999998
20
-107.926
30
0
11
19.347799999999999
21
-108.033
31
0
0
LINE
5
253
100
AcDbEntity
8
0
100
AcDbLine
10
19.347799999999999
20
-108.033
30
0
11
18.989100000000004
21
-108.14100000000002
31
0
0
LINE
5
254
100
AcDbEntity
8
0
100
AcDbLine
10
18.989100000000004
20
-108.14100000000002
30
0
11
18.271700000000003
21
-108.37700000000001
31
0
0
LINE
5
255
100
AcDbEntity
8
0
100
AcDbLine
10
18.271700000000003
20
-108.37700000000001
30
0
11
17.913
21
-108.49600000000002
31
0
0
LINE
5
256
100
AcDbEntity
8
0
100
AcDbLine
10
17.913
20
-108.49600000000002
30
0
11
17.554300000000001
21
-108.614
31
0
0
LINE
5
257
100
AcDbEntity
8
0
100
AcDbLine
10
17.554300000000001
20
-108.614
30
0
11
17.195599999999999
21
-108.73400000000001
31
0
0
LINE
5
258
100
AcDbEntity
8
0
100
AcDbLine
10
17.195599999999999
20
-108.73400000000001
30
0
11
16.837
21
-108.864
31
0
0
LINE
5
259
100
AcDbEntity
8
0
100
AcDbLine
10
16.837
20
-108.864
30
0
11
16.478300000000001
21
-108.99500000000002
31
0
0
LINE
5
260
100
AcDbEntity
8
0
100
AcDbLine
10
16.478300000000001
20
-108.99500000000002
30
0
11
16.119599999999998
21
-109.12500000000001
31
0
0
LINE
5
261
100
AcDbEntity
8
0
100
AcDbLine
10
16.119599999999998
20
-109.12500000000001
30
0
11
15.760899999999999
21
-109.25600000000001
31
0
0
LINE
5
262
100
AcDbEntity
8
0
100
AcDbLine
10
15.760899999999999
20
-109.25600000000001
30
0
11
15.402200000000001
21
-109.39200000000001
31
0
0
LINE
5
263
100
AcDbEntity
8
0
100
AcDbLine
10
15.402200000000001
20
-109.39200000000001
30
0
11
15.043500000000002
21
-109.53299999999999
31
0
0
LINE
5
264
100
AcDbEntity
8
0
100
AcDbLine
10
15.043500000000002
20
-109.53299999999999
30
0
11
15
21
-109.55
31
0
0
LINE
5
265
100
AcDbEntity
8
0
100
AcDbLine
10
15
20
-109.55
30
0
11
14.684799999999999
21
-109.673
31
0
0
LINE
5
266
100
AcDbEntity
8
0
100
AcDbLine
10
14.684799999999999
20
-109.673
30
0
11
14.326100000000002
21
-109.81299999999999
31
0
0
LINE
5
267
100
AcDbEntity
8
0
100
AcDbLine
10
14.326100000000002
20
-109.81299999999999
30
0
11
13.967400000000001
21
-109.95800000000001
31
0
0
LINE
5
268
100
AcDbEntity
8
0
100
AcDbLine
10
13.967400000000001
20
-109.95800000000001
30
0
11
12.891300000000001
21
-110.40799999999999
31
0
0
LINE
5
269
100
AcDbEntity
8
0
100
AcDbLine
10
12.891300000000001
20
-110.40799999999999
30
0
11
12.5326
21
-110.56399999999999
31
0
0
LINE
5
270
100
AcDbEntity
8
0
100
AcDbLine
10
12.5326
20
-110.56399999999999
30
0
11
12.1739
21
-110.723
31
0
0
LINE
5
271
100
AcDbEntity
8
0
100
AcDbLine
10
12.1739
20
-110.723
30
0
11
11.4565
21
-111.04300000000001
31
0
0
LINE
5
272
100
AcDbEntity
8
0
100
AcDbLine
10
11.4565
20
-111.04300000000001
30
0
11
10.739100000000001
21
-111.38100000000001
31
0
0
LINE
5
273
100
AcDbEntity
8
0
100
AcDbLine
10
10.739100000000001
20
-111.38100000000001
30
0
11
10.380400000000002
21
-111.55100000000002
31
0
0
LINE
5
274
100
AcDbEntity
8
0
100
AcDbLine
10
10.380400000000002
20
-111.55100000000002
30
0
11
10.021699999999999
21
-111.72800000000001
31
0
0
LINE
5
275
100
AcDbEntity
8
0
100
AcDbLine
10
10.021699999999999
20
-111.72800000000001
30
0
11
9.6630399999999987
21
-111.91400000000002
31
0
0
LINE
5
276
100
AcDbEntity
8
0
100
AcDbLine
10
9.6630399999999987
20
-111.91400000000002
30
0
11
9.3043499999999995
21
-112.10000000000001
31
0
0
LINE
5
277
100
AcDbEntity
8
0
100
AcDbLine
10
9.3043499999999995
20
-112.10000000000001
30
0
11
8.9456500000000005
21
-112.30200000000002
31
0
0
LINE
5
278
100
AcDbEntity
8
0
100
AcDbLine
10
8.9456500000000005
20
-112.30200000000002
30
0
11
8.5869600000000013
21
-112.53100000000002
31
0
0
LINE
5
279
100
AcDbEntity
8
0
100
AcDbLine
10
8.5869600000000013
20
-112.53100000000002
30
0
11
8.2282600000000006
21
-112.759
31
0
0
LINE
5
280
100
AcDbEntity
8
0
100
AcDbLine
10
8.2282600000000006
20
-112.759
30
0
11
7.8695600000000008
21
-113.07400000000001
31
0
0
LINE
5
281
100
AcDbEntity
8
0
100
AcDbLine
10
7.8695600000000008
20
-113.07400000000001
30
0
11
7.5481701675444057
21
-113.37416335518867
31
0
0
LINE
5
282
100
AcDbEntity
8
0
100
AcDbLine
10
7.5481701675444057
20
-113.37416335518867
30
0
11
11.035500000000001
21
-116.86100000000002
31
0
0
LINE
5
283
100
AcDbEntity
8
0
100
AcDbLine
10
7.8695600000000008
20
-120.57200000000002
30
0
11
7.5548602154225799
21
-120.34213202609695
31
0
0
LINE
5
284
100
AcDbEntity
8
0
100
AcDbLine
10
11.035500000000001
20
-116.86100000000002
30
0
11
7.5481701675444057
21
-113.37416335518867
31
0
0
LINE
5
285
100
AcDbEntity
8
0
100
AcDbLine
10
7.5481701675444057
20
-113.37416335518867
30
0
11
7.8695600000000008
21
-113.07400000000001
31
0
0
LINE
5
286
100
AcDbEntity
8
0
100
AcDbLine
10
7.8695600000000008
20
-113.07400000000001
30
0
11
8.2282600000000006
21
-112.759
31
0
0
LINE
5
287
100
AcDbEntity
8
0
100
AcDbLine
10
8.2282600000000006
20
-112.759
30
0
11
8.5869600000000013
21
-112.53100000000002
31
0
0
LINE
5
288
100
AcDbEntity
8
0
100
AcDbLine
10
8.5869600000000013
20
-112.53100000000002
30
0
11
8.9456500000000005
21
-112.30200000000002
31
0
0
LINE
5
289
100
AcDbEntity
8
0
100
AcDbLine
10
8.9456500000000005
20
-112.30200000000002
30
0
11
9.3043499999999995
21
-112.10000000000001
31
0
0
LINE
5
290
100
AcDbEntity
8
0
100
AcDbLine
10
9.3043499999999995
20
-112.10000000000001
30
0
11
9.6630399999999987
21
-111.91400000000002
31
0
0
LINE
5
291
100
AcDbEntity
8
0
100
AcDbLine
10
9.6630399999999987
20
-111.91400000000002
30
0
11
10.021699999999999
21
-111.72800000000001
31
0
0
LINE
5
292
100
AcDbEntity
8
0
100
AcDbLine
10
10.021699999999999
20
-111.72800000000001
30
0
11
10.380400000000002
21
-111.55100000000002
31
0
0
LINE
5
293
100
AcDbEntity
8
0
100
AcDbLine
10
10.380400000000002
20
-111.55100000000002
30
0
11
10.739100000000001
21
-111.38100000000001
31
0
0
LINE
5
294
100
AcDbEntity
8
0
100
AcDbLine
10
10.739100000000001
20
-111.38100000000001
30
0
11
11.4565
21
-111.04300000000001
31
0
0
LINE
5
295
100
AcDbEntity
8
0
100
AcDbLine
10
11.4565
20
-111.04300000000001
30
0
11
12.1739
21
-110.723
31
0
0
LINE
5
296
100
AcDbEntity
8
0
100
AcDbLine
10
12.1739
20
-110.723
30
0
11
12.5326
21
-110.56399999999999
31
0
0
LINE
5
297
100
AcDbEntity
8
0
100
AcDbLine
10
12.5326
20
-110.56399999999999
30
0
11
12.891300000000001
21
-110.40799999999999
31
0
0
LINE
5
298
100
AcDbEntity
8
0
100
AcDbLine
10
12.891300000000001
20
-110.40799999999999
30
0
11
13.967400000000001
21
-109.95800000000001
31
0
0
LINE
5
299
100
AcDbEntity
8
0
100
AcDbLine
10
13.967400000000001
20
-109.95800000000001
30
0
11
14.326100000000002
21
-109.81299999999999
31
0
0
LINE
5
300
100
AcDbEntity
8
0
100
AcDbLine
10
14.326100000000002
20
-109.81299999999999
30
0
11
14.684799999999999
21
-109.673
31
0
0
LINE
5
301
100
AcDbEntity
8
0
100
AcDbLine
10
14.684799999999999
20
-109.673
30
0
11
15
21
-109.55
31
0
0
LINE
5
302
100
AcDbEntity
8
0
100
AcDbLine
10
15
20
-109.55
30
0
11
15.043500000000002
21
-109.53299999999999
31
0
0
LINE
5
303
100
AcDbEntity
8
0
100
AcDbLine
10
15.043500000000002
20
-109.53299999999999
30
0
11
15.402200000000001
21
-109.39200000000001
31
0
0
LINE
5
304
100
AcDbEntity
8
0
100
AcDbLine
10
15.402200000000001
20
-109.39200000000001
30
0
11
15.760899999999999
21
-109.25600000000001
31
0
0
LINE
5
305
100
AcDbEntity
8
0
100
AcDbLine
10
15.760899999999999
20
-109.25600000000001
30
0
11
16.119599999999998
21
-109.12500000000001
31
0
0
LINE
5
306
100
AcDbEntity
8
0
100
AcDbLine
10
16.119599999999998
20
-109.12500000000001
30
0
11
16.478300000000001
21
-108.99500000000002
31
0
0
LINE
5
307
100
AcDbEntity
8
0
100
AcDbLine
10
16.478300000000001
20
-108.99500000000002
30
0
11
16.837
21
-108.864
31
0
0
LINE
5
308
100
AcDbEntity
8
0
100
AcDbLine
10
16.837
20
-108.864
30
0
11
17.195599999999999
21
-108.73400000000001
31
0
0
LINE
5
309
100
AcDbEntity
8
0
100
AcDbLine
10
17.195599999999999
20
-108.73400000000001
30
0
11
17.554300000000001
21
-108.614
31
0
0
LINE
5
310
100
AcDbEntity
8
0
100
AcDbLine
10
17.554300000000001
20
-108.614
30
0
11
17.913
21
-108.49600000000002
31
0
0
LINE
5
311
100
AcDbEntity
8
0
100
AcDbLine
10
17.913
20
-108.49600000000002
30
0
11
18.271699999999999
21
-108.37700000000001
31
0
0
LINE
5
312
100
AcDbEntity
8
0
100
AcDbLine
10
18.271699999999999
20
-108.37700000000001
30
0
11
18.989100000000001
21
-108.14100000000002
31
0
0
LINE
5
313
100
AcDbEntity
8
0
100
AcDbLine
10
18.989100000000001
20
-108.14100000000002
30
0
11
19.347799999999999
21
-108.033
31
0
0
LINE
5
314
100
AcDbEntity
8
0
100
AcDbLine
10
19.347799999999999
20
-108.033
30
0
11
19.706499999999998
21
-107.926
31
0
0
LINE
5
315
100
AcDbEntity
8
0
100
AcDbLine
10
19.706499999999998
20
-107.926
30
0
11
20.065200000000001
21
-107.81800000000001
31
0
0
LINE
5
316
100
AcDbEntity
8
0
100
AcDbLine
10
20.065200000000001
20
-107.81800000000001
30
0
11
20.782599999999999
21
-107.60400000000001
31
0
0
LINE
5
317
100
AcDbEntity
8
0
100
AcDbLine
10
20.782599999999999
20
-107.60400000000001
30
0
11
21.141300000000001
21
-107.50200000000001
31
0
0
LINE
5
318
100
AcDbEntity
8
0
100
AcDbLine
10
21.141300000000001
20
-107.50200000000001
30
0
11
21.858699999999999
21
-107.30600000000001
31
0
0
LINE
5
319
100
AcDbEntity
8
0
100
AcDbLine
10
21.858699999999999
20
-107.30600000000001
30
0
11
22.217400000000001
21
-107.20700000000001
31
0
0
LINE
5
320
100
AcDbEntity
8
0
100
AcDbLine
10
22.217400000000001
20
-107.20700000000001
30
0
11
22.934800000000003
21
-107.01100000000002
31
0
0
LINE
5
321
100
AcDbEntity
8
0
100
AcDbLine
10
22.934800000000003
20
-107.01100000000002
30
0
11
23.293500000000002
21
-106.92200000000001
31
0
0
LINE
5
322
100
AcDbEntity
8
0
100
AcDbLine
10
23.293500000000002
20
-106.92200000000001
30
0
11
24.728300000000001
21
-106.578
31
0
0
LINE
5
323
100
AcDbEntity
8
0
100
AcDbLine
10
24.728300000000001
20
-106.578
30
0
11
25
21
-106.51299999999999
31
0
0
LINE
5
324
100
AcDbEntity
8
0
100
AcDbLine
10
25
20
-106.51299999999999
30
0
11
25.087000000000003
21
-106.492
31
0
0
LINE
5
325
100
AcDbEntity
8
0
100
AcDbLine
10
25.087000000000003
20
-106.492
30
0
11
25.445600000000002
21
-106.40600000000001
31
0
0
LINE
5
326
100
AcDbEntity
8
0
100
AcDbLine
10
25.445600000000002
20
-106.40600000000001
30
0
11
26.163000000000004
21
-106.23400000000001
31
0
0
LINE
5
327
100
AcDbEntity
8
0
100
AcDbLine
10
26.163000000000004
20
-106.23400000000001
30
0
11
26.521699999999999
21
-106.149
31
0
0
LINE
5
328
100
AcDbEntity
8
0
100
AcDbLine
10
26.521699999999999
20
-106.149
30
0
11
29.032599999999999
21
-105.54700000000003
31
0
0
LINE
5
329
100
AcDbEntity
8
0
100
AcDbLine
10
29.032599999999999
20
-105.54700000000003
30
0
11
29.391300000000005
21
-105.46900000000001
31
0
0
LINE
5
330
100
AcDbEntity
8
0
100
AcDbLine
10
29.391300000000005
20
-105.46900000000001
30
0
11
29.75
21
-105.404
31
0
0
LINE
5
331
100
AcDbEntity
8
0
100
AcDbLine
10
29.75
20
-105.404
30
0
11
30
21
-105.35899999999999
31
0
0
LINE
5
332
100
AcDbEntity
8
0
100
AcDbLine
10
30
20
-105.35899999999999
30
0
11
33.260899999999999
21
-104.77500000000001
31
0
0
LINE
5
333
100
AcDbEntity
8
0
100
AcDbLine
10
33.260899999999999
20
-104.77500000000001
30
0
11
36.521700000000003
21
-104.19
31
0
0
LINE
5
334
100
AcDbEntity
8
0
100
AcDbLine
10
36.521700000000003
20
-104.19
30
0
11
39.782600000000002
21
-103.60500000000002
31
0
0
LINE
5
335
100
AcDbEntity
8
0
100
AcDbLine
10
39.782600000000002
20
-103.60500000000002
30
0
11
43.043500000000002
21
-103.09200000000003
31
0
0
LINE
5
336
100
AcDbEntity
8
0
100
AcDbLine
10
43.043500000000002
20
-103.09200000000003
30
0
11
46.304400000000001
21
-102.697
31
0
0
LINE
5
337
100
AcDbEntity
8
0
100
AcDbLine
10
46.304400000000001
20
-102.697
30
0
11
49.565200000000004
21
-102.301
31
0
0
LINE
5
338
100
AcDbEntity
8
0
100
AcDbLine
10
49.565200000000004
20
-102.301
30
0
11
52.826099999999997
21
-101.90600000000002
31
0
0
LINE
5
339
100
AcDbEntity
8
0
100
AcDbLine
10
52.826099999999997
20
-101.90600000000002
30
0
11
56.086999999999996
21
-101.584
31
0
0
LINE
5
340
100
AcDbEntity
8
0
100
AcDbLine
10
56.086999999999996
20
-101.584
30
0
11
59.347799999999999
21
-101.331
31
0
0
LINE
5
341
100
AcDbEntity
8
0
100
AcDbLine
10
59.347799999999999
20
-101.331
30
0
11
62.608700000000006
21
-101.07799999999999
31
0
0
LINE
5
342
100
AcDbEntity
8
0
100
AcDbLine
10
62.608700000000006
20
-101.07799999999999
30
0
11
65.5
21
-100.854
31
0
0
LINE
5
343
100
AcDbEntity
8
0
100
AcDbLine
10
65.5
20
-100.854
30
0
11
65.5
21
-104.634
31
0
0
LINE
5
344
100
AcDbEntity
8
0
100
AcDbLine
10
65.5
20
-104.634
30
0
11
69.5
21
-104.634
31
0
0
LINE
5
345
100
AcDbEntity
8
0
100
AcDbLine
10
69.5
20
-104.634
30
0
11
69.5
21
-100.63400000000001
31
0
0
LINE
5
346
100
AcDbEntity
8
0
100
AcDbLine
10
69.5
20
-100.63400000000001
30
0
11
72.391300000000001
21
-100.51600000000001
31
0
0
LINE
5
347
100
AcDbEntity
8
0
100
AcDbLine
10
72.391300000000001
20
-100.51600000000001
30
0
11
75.652199999999993
21
-100.383
31
0
0
LINE
5
348
100
AcDbEntity
8
0
100
AcDbLine
10
75.652199999999993
20
-100.383
30
0
11
78.912999999999997
21
-100.24900000000001
31
0
0
LINE
5
349
100
AcDbEntity
8
0
100
AcDbLine
10
78.912999999999997
20
-100.24900000000001
30
0
11
82.173900000000003
21
-100.227
31
0
0
LINE
5
350
100
AcDbEntity
8
0
100
AcDbLine
10
82.173900000000003
20
-100.227
30
0
11
85.43480000000001
21
-100.23899999999999
31
0
0
LINE
5
351
100
AcDbEntity
8
0
100
AcDbLine
10
85.43480000000001
20
-100.23899999999999
30
0
11
88.695599999999999
21
-100.25200000000001
31
0
0
LINE
5
352
100
AcDbEntity
8
0
100
AcDbLine
10
88.695599999999999
20
-100.25200000000001
30
0
11
98.478300000000019
21
-100.28800000000001
31
0
0
LINE
5
353
100
AcDbEntity
8
0
100
AcDbLine
10
98.478300000000019
20
-100.28800000000001
30
0
11
101.739
21
-100.30100000000002
31
0
0
LINE
5
354
100
AcDbEntity
8
0
100
AcDbLine
10
101.739
20
-100.30100000000002
30
0
11
105
21
-100.313
31
0
0
LINE
5
355
100
AcDbEntity
8
0
100
AcDbLine
10
105
20
-100.313
30
0
11
114.78299999999999
21
-100.78100000000001
31
0
0
LINE
5
356
100
AcDbEntity
8
0
100
AcDbLine
10
114.78299999999999
20
-100.78100000000001
30
0
11
118.04299999999999
21
-100.93700000000001
31
0
0
LINE
5
357
100
AcDbEntity
8
0
100
AcDbLine
10
118.04299999999999
20
-100.93700000000001
30
0
11
127.82600000000002
21
-101.40500000000002
31
0
0
LINE
5
358
100
AcDbEntity
8
0
100
AcDbLine
10
127.82600000000002
20
-101.40500000000002
30
0
11
131.08700000000002
21
-101.59
31
0
0
LINE
5
359
100
AcDbEntity
8
0
100
AcDbLine
10
131.08700000000002
20
-101.59
30
0
11
140.87
21
-102.346
31
0
0
LINE
5
360
100
AcDbEntity
8
0
100
AcDbLine
10
140.87
20
-102.346
30
0
11
144.13
21
-102.599
31
0
0
LINE
5
361
100
AcDbEntity
8
0
100
AcDbLine
10
144.13
20
-102.599
30
0
11
153.91299999999998
21
-103.35500000000002
31
0
0
LINE
5
362
100
AcDbEntity
8
0
100
AcDbLine
10
153.91299999999998
20
-103.35500000000002
30
0
11
157.17400000000001
21
-103.65700000000002
31
0
0
LINE
5
363
100
AcDbEntity
8
0
100
AcDbLine
10
157.17400000000001
20
-103.65700000000002
30
0
11
166.95699999999999
21
-104.66200000000001
31
0
0
LINE
5
364
100
AcDbEntity
8
0
100
AcDbLine
10
166.95699999999999
20
-104.66200000000001
30
0
11
170.21700000000004
21
-104.99700000000003
31
0
0
LINE
5
365
100
AcDbEntity
8
0
100
AcDbLine
10
170.21700000000004
20
-104.99700000000003
30
0
11
173
21
-105.283
31
0
0
LINE
5
366
100
AcDbEntity
8
0
100
AcDbLine
10
173
20
-105.283
30
0
11
173
21
-109.283
31
0
0
LINE
5
367
100
AcDbEntity
8
0
100
AcDbLine
10
173
20
-109.283
30
0
11
177
21
-109.283
31
0
0
LINE
5
368
100
AcDbEntity
8
0
100
AcDbLine
10
177
20
-109.283
30
0
11
177
21
-105.69400000000002
31
0
0
LINE
5
369
100
AcDbEntity
8
0
100
AcDbLine
10
186.52200000000005
20
-106.815
30
0
11
189.78300000000002
21
-107.224
31
0
0
LINE
5
370
100
AcDbEntity
8
0
100
AcDbLine
10
189.78300000000002
20
-107.224
30
0
11
193.04300000000001
21
-107.63400000000001
31
0
0
LINE
5
371
100
AcDbEntity
8
0
100
AcDbLine
10
193.04300000000001
20
-107.63400000000001
30
0
11
196.30400000000003
21
-108.04299999999999
31
0
0
LINE
5
372
100
AcDbEntity
8
0
100
AcDbLine
10
196.30400000000003
20
-108.04299999999999
30
0
11
199.56500000000003
21
-108.453
31
0
0
LINE
5
373
100
AcDbEntity
8
0
100
AcDbLine
10
199.56500000000003
20
-108.453
30
0
11
202.82600000000002
21
-108.86200000000002
31
0
0
LINE
5
374
100
AcDbEntity
8
0
100
AcDbLine
10
202.82600000000002
20
-108.86200000000002
30
0
11
206.08700000000002
21
-109.291
31
0
0
LINE
5
375
100
AcDbEntity
8
0
100
AcDbLine
10
206.08700000000002
20
-109.291
30
0
11
215.87000000000003
21
-110.74300000000001
31
0
0
LINE
5
376
100
AcDbEntity
8
0
100
AcDbLine
10
215.87000000000003
20
-110.74300000000001
30
0
11
219.13
21
-111.22700000000002
31
0
0
LINE
5
377
100
AcDbEntity
8
0
100
AcDbLine
10
219.13
20
-111.22700000000002
30
0
11
222.39100000000002
21
-111.71100000000001
31
0
0
LINE
5
378
100
AcDbEntity
8
0
100
AcDbLine
10
222.39100000000002
20
-111.71100000000001
30
0
11
225
21
-112.09800000000001
31
0
0
LINE
5
379
100
AcDbEntity
8
0
100
AcDbLine
10
225
20
-112.09800000000001
30
0
11
225.65200000000004
21
-112.19499999999999
31
0
0
LINE
5
380
100
AcDbEntity
8
0
100
AcDbLine
10
225.65200000000004
20
-112.19499999999999
30
0
11
228.91300000000001
21
-112.679
31
0
0
LINE
5
381
100
AcDbEntity
8
0
100
AcDbLine
10
228.91300000000001
20
-112.679
30
0
11
232.17400000000001
21
-113.19900000000001
31
0
0
LINE
5
382
100
AcDbEntity
8
0
100
AcDbLine
10
232.17400000000001
20
-113.19900000000001
30
0
11
235
21
-113.66799999999999
31
0
0
LINE
5
383
100
AcDbEntity
8
0
100
AcDbLine
10
235
20
-113.66799999999999
30
0
11
235.435
21
-113.74000000000001
31
0
0
LINE
5
384
100
AcDbEntity
8
0
100
AcDbLine
10
235.435
20
-113.74000000000001
30
0
11
238.69600000000003
21
-114.28200000000002
31
0
0
LINE
5
385
100
AcDbEntity
8
0
100
AcDbLine
10
202.82600000000002
20
-120.182
30
0
11
199.56500000000003
21
-120.33799999999999
31
0
0
LINE
5
386
100
AcDbEntity
8
0
100
AcDbLine
10
199.56500000000003
20
-120.33799999999999
30
0
11
196.30400000000003
21
-120.49300000000001
31
0
0
LINE
5
387
100
AcDbEntity
8
0
100
AcDbLine
10
196.30400000000003
20
-120.49300000000001
30
0
11
193.04300000000001
21
-120.64900000000002
31
0
0
LINE
5
388
100
AcDbEntity
8
0
100
AcDbLine
10
193.04300000000001
20
-120.64900000000002
30
0
11
189.78300000000002
21
-120.804
31
0
0
LINE
5
389
100
AcDbEntity
8
0
100
AcDbLine
10
177
20
-121.41300000000001
30
0
11
177
21
-117.602
31
0
0
LINE
5
390
100
AcDbEntity
8
0
100
AcDbLine
10
177
20
-117.602
30
0
11
173
21
-117.602
31
0
0
LINE
5
391
100
AcDbEntity
8
0
100
AcDbLine
10
173
20
-117.602
30
0
11
173
21
-121.60200000000002
31
0
0
LINE
5
392
100
AcDbEntity
8
0
100
AcDbLine
10
173
20
-121.60200000000002
30
0
11
170.21700000000004
21
-121.73400000000001
31
0
0
LINE
5
393
100
AcDbEntity
8
0
100
AcDbLine
10
166.95699999999999
20
-121.88900000000001
30
0
11
163.69600000000003
21
-122.04300000000001
31
0
0
LINE
5
394
100
AcDbEntity
8
0
100
AcDbLine
10
163.69600000000003
20
-122.04300000000001
30
0
11
160.435
21
-122.19799999999999
31
0
0
LINE
5
395
100
AcDbEntity
8
0
100
AcDbLine
10
157.17400000000001
20
-122.352
30
0
11
153.91299999999998
21
-122.50399999999999
31
0
0
LINE
5
396
100
AcDbEntity
8
0
100
AcDbLine
10
153.91299999999998
20
-122.50399999999999
30
0
11
150.65200000000002
21
-122.649
31
0
0
LINE
5
397
100
AcDbEntity
8
0
100
AcDbLine
10
150.65200000000002
20
-122.649
30
0
11
147.39100000000002
21
-122.795
31
0
0
LINE
5
398
100
AcDbEntity
8
0
100
AcDbLine
10
147.39100000000002
20
-122.795
30
0
11
144.13
21
-122.94
31
0
0
LINE
5
399
100
AcDbEntity
8
0
100
AcDbLine
10
144.13
20
-122.94
30
0
11
140.87
21
-123.08500000000001
31
0
0
LINE
5
400
100
AcDbEntity
8
0
100
AcDbLine
10
140.87
20
-123.08500000000001
30
0
11
137.60900000000001
21
-123.23100000000002
31
0
0
LINE
5
401
100
AcDbEntity
8
0
100
AcDbLine
10
137.60900000000001
20
-123.23100000000002
30
0
11
131.08700000000002
21
-123.521
31
0
0
LINE
5
402
100
AcDbEntity
8
0
100
AcDbLine
10
131.08700000000002
20
-123.521
30
0
11
127.82600000000002
21
-123.65100000000001
31
0
0
LINE
5
403
100
AcDbEntity
8
0
100
AcDbLine
10
127.82600000000002
20
-123.65100000000001
30
0
11
118.04299999999999
21
-124.01400000000001
31
0
0
LINE
5
404
100
AcDbEntity
8
0
100
AcDbLine
10
118.04299999999999
20
-124.01400000000001
30
0
11
114.78299999999999
21
-124.13500000000001
31
0
0
LINE
5
405
100
AcDbEntity
8
0
100
AcDbLine
10
114.78299999999999
20
-124.13500000000001
30
0
11
105
21
-124.49799999999999
31
0
0
LINE
5
406
100
AcDbEntity
8
0
100
AcDbLine
10
105
20
-124.49799999999999
30
0
11
101.739
21
-124.59299999999999
31
0
0
LINE
5
407
100
AcDbEntity
8
0
100
AcDbLine
10
101.739
20
-124.59299999999999
30
0
11
98.478300000000019
21
-124.688
31
0
0
LINE
5
408
100
AcDbEntity
8
0
100
AcDbLine
10
98.478300000000019
20
-124.688
30
0
11
91.956500000000005
21
-124.878
31
0
0
LINE
5
409
100
AcDbEntity
8
0
100
AcDbLine
10
91.956500000000005
20
-124.878
30
0
11
88.695700000000016
21
-124.97300000000001
31
0
0
LINE
5
410
100
AcDbEntity
8
0
100
AcDbLine
10
88.695700000000016
20
-124.97300000000001
30
0
11
82.173900000000003
21
-125.16300000000001
31
0
0
LINE
5
411
100
AcDbEntity
8
0
100
AcDbLine
10
82.173900000000003
20
-125.16300000000001
30
0
11
78.913100000000014
21
-125.24700000000003
31
0
0
LINE
5
412
100
AcDbEntity
8
0
100
AcDbLine
10
78.913100000000014
20
-125.24700000000003
30
0
11
75.652199999999993
21
-125.31700000000001
31
0
0
LINE
5
413
100
AcDbEntity
8
0
100
AcDbLine
10
75.652199999999993
20
-125.31700000000001
30
0
11
72.391300000000001
21
-125.38600000000002
31
0
0
LINE
5
414
100
AcDbEntity
8
0
100
AcDbLine
10
72.391300000000001
20
-125.38600000000002
30
0
11
69.5
21
-125.44800000000001
31
0
0
LINE
5
415
100
AcDbEntity
8
0
100
AcDbLine
10
69.5
20
-125.44800000000001
30
0
11
69.5
21
-121.503
31
0
0
LINE
5
416
100
AcDbEntity
8
0
100
AcDbLine
10
69.5
20
-121.503
30
0
11
65.5
21
-121.503
31
0
0
LINE
5
417
100
AcDbEntity
8
0
100
AcDbLine
10
65.5
20
-121.503
30
0
11
65.5
21
-125.503
31
0
0
LINE
5
418
100
AcDbEntity
8
0
100
AcDbLine
10
65.5
20
-125.503
30
0
11
62.608700000000006
21
-125.53
31
0
0
LINE
5
419
100
AcDbEntity
8
0
100
AcDbLine
10
62.608700000000006
20
-125.53
30
0
11
59.347799999999999
21
-125.56
31
0
0
LINE
5
420
100
AcDbEntity
8
0
100
AcDbLine
10
59.347799999999999
20
-125.56
30
0
11
56.086999999999996
21
-125.59100000000001
31
0
0
LINE
5
421
100
AcDbEntity
8
0
100
AcDbLine
10
56.086999999999996
20
-125.59100000000001
30
0
11
52.826099999999997
21
-125.56800000000001
31
0
0
LINE
5
422
100
AcDbEntity
8
0
100
AcDbLine
10
46.304400000000001
20
-125.50399999999999
30
0
11
43.043500000000002
21
-125.46700000000001
31
0
0
LINE
5
423
100
AcDbEntity
8
0
100
AcDbLine
10
36.521700000000003
20
-125.19100000000002
30
0
11
33.260899999999999
21
-125.053
31
0
0
LINE
5
424
100
AcDbEntity
8
0
100
AcDbLine
10
33.260899999999999
20
-125.053
30
0
11
30
21
-124.88600000000002
31
0
0
LINE
5
425
100
AcDbEntity
8
0
100
AcDbLine
10
30
20
-124.88600000000002
30
0
11
29.75
21
-124.86499999999999
31
0
0
LINE
5
426
100
AcDbEntity
8
0
100
AcDbLine
10
29.75
20
-124.86499999999999
30
0
11
29.391300000000005
21
-124.83600000000001
31
0
0
LINE
5
427
100
AcDbEntity
8
0
100
AcDbLine
10
29.391300000000005
20
-124.83600000000001
30
0
11
28.673900000000003
21
-124.77600000000002
31
0
0
LINE
5
428
100
AcDbEntity
8
0
100
AcDbLine
10
28.673900000000003
20
-124.77600000000002
30
0
11
28.315200000000004
21
-124.74700000000001
31
0
0
LINE
5
429
100
AcDbEntity
8
0
100
AcDbLine
10
28.315200000000004
20
-124.74700000000001
30
0
11
27.597799999999999
21
-124.68700000000001
31
0
0
LINE
5
430
100
AcDbEntity
8
0
100
AcDbLine
10
27.597799999999999
20
-124.68700000000001
30
0
11
27.239100000000001
21
-124.658
31
0
0
LINE
5
431
100
AcDbEntity
8
0
100
AcDbLine
10
27.239100000000001
20
-124.658
30
0
11
26.880400000000005
21
-124.628
31
0
0
LINE
5
432
100
AcDbEntity
8
0
100
AcDbLine
10
26.880400000000005
20
-124.628
30
0
11
26.521699999999999
21
-124.59899999999999
31
0
0
LINE
5
433
100
AcDbEntity
8
0
100
AcDbLine
10
26.521699999999999
20
-124.59899999999999
30
0
11
25.804300000000001
21
-124.53900000000002
31
0
0
LINE
5
434
100
AcDbEntity
8
0
100
AcDbLine
10
25.804300000000001
20
-124.53900000000002
30
0
11
25.445600000000002
21
-124.51000000000001
31
0
0
LINE
5
435
100
AcDbEntity
8
0
100
AcDbLine
10
25.445600000000002
20
-124.51000000000001
30
0
11
25.087000000000003
21
-124.48
31
0
0
LINE
5
436
100
AcDbEntity
8
0
100
AcDbLine
10
25.087000000000003
20
-124.48
30
0
11
25
21
-124.473
31
0
0
LINE
5
437
100
AcDbEntity
8
0
100
AcDbLine
10
25
20
-124.473
30
0
11
24.728300000000001
21
-124.45100000000002
31
0
0
LINE
5
438
100
AcDbEntity
8
0
100
AcDbLine
10
24.728300000000001
20
-124.45100000000002
30
0
11
24.369599999999998
21
-124.41800000000001
31
0
0
LINE
5
439
100
AcDbEntity
8
0
100
AcDbLine
10
24.369599999999998
20
-124.41800000000001
30
0
11
24.010899999999999
21
-124.374
31
0
0
LINE
5
440
100
AcDbEntity
8
0
100
AcDbLine
10
24.010899999999999
20
-124.374
30
0
11
22.934800000000003
21
-124.24500000000002
31
0
0
LINE
5
441
100
AcDbEntity
8
0
100
AcDbLine
10
22.934800000000003
20
-124.24500000000002
30
0
11
22.5761
21
-124.20100000000002
31
0
0
LINE
5
442
100
AcDbEntity
8
0
100
AcDbLine
10
22.5761
20
-124.20100000000002
30
0
11
21.5
21
-124.07200000000002
31
0
0
LINE
5
443
100
AcDbEntity
8
0
100
AcDbLine
10
21.5
20
-124.07200000000002
30
0
11
21.141300000000001
21
-124.02799999999999
31
0
0
LINE
5
444
100
AcDbEntity
8
0
100
AcDbLine
10
21.141300000000001
20
-124.02799999999999
30
0
11
20.423900000000003
21
-123.94200000000001
31
0
0
LINE
5
445
100
AcDbEntity
8
0
100
AcDbLine
10
20.423900000000003
20
-123.94200000000001
30
0
11
20.065200000000001
21
-123.89800000000001
31
0
0
LINE
5
446
100
AcDbEntity
8
0
100
AcDbLine
10
20.065200000000001
20
-123.89800000000001
30
0
11
19.706499999999998
21
-123.855
31
0
0
LINE
5
447
100
AcDbEntity
8
0
100
AcDbLine
10
19.706499999999998
20
-123.855
30
0
11
19.347799999999999
21
-123.79700000000001
31
0
0
LINE
5
448
100
AcDbEntity
8
0
100
AcDbLine
10
19.347799999999999
20
-123.79700000000001
30
0
11
17.195599999999999
21
-123.42500000000001
31
0
0
LINE
5
449
100
AcDbEntity
8
0
100
AcDbLine
10
17.195599999999999
20
-123.42500000000001
30
0
11
16.837
21
-123.36300000000001
31
0
0
LINE
5
450
100
AcDbEntity
8
0
100
AcDbLine
10
16.837
20
-123.36300000000001
30
0
11
16.478300000000001
21
-123.30100000000002
31
0
0
LINE
5
451
100
AcDbEntity
8
0
100
AcDbLine
10
16.478300000000001
20
-123.30100000000002
30
0
11
16.119599999999998
21
-123.233
31
0
0
LINE
5
452
100
AcDbEntity
8
0
100
AcDbLine
10
16.119599999999998
20
-123.233
30
0
11
15.760899999999999
21
-123.155
31
0
0
LINE
5
453
100
AcDbEntity
8
0
100
AcDbLine
10
15.760899999999999
20
-123.155
30
0
11
15.402200000000001
21
-123.078
31
0
0
LINE
5
454
100
AcDbEntity
8
0
100
AcDbLine
10
15.402200000000001
20
-123.078
30
0
11
15.043500000000002
21
-123
31
0
0
LINE
5
455
100
AcDbEntity
8
0
100
AcDbLine
10
15.043500000000002
20
-123
30
0
11
15
21
-122.99100000000001
31
0
0
LINE
5
456
100
AcDbEntity
8
0
100
AcDbLine
10
15
20
-122.99100000000001
30
0
11
14.684799999999999
21
-122.92299999999999
31
0
0
LINE
5
457
100
AcDbEntity
8
0
100
AcDbLine
10
14.684799999999999
20
-122.92299999999999
30
0
11
14.326100000000002
21
-122.84500000000001
31
0
0
LINE
5
458
100
AcDbEntity
8
0
100
AcDbLine
10
14.326100000000002
20
-122.84500000000001
30
0
11
13.608700000000002
21
-122.69100000000002
31
0
0
LINE
5
459
100
AcDbEntity
8
0
100
AcDbLine
10
13.608700000000002
20
-122.69100000000002
30
0
11
13.250000000000002
21
-122.59999999999999
31
0
0
LINE
5
460
100
AcDbEntity
8
0
100
AcDbLine
10
13.250000000000002
20
-122.59999999999999
30
0
11
12.1739
21
-122.324
31
0
0
LINE
5
461
100
AcDbEntity
8
0
100
AcDbLine
10
12.1739
20
-122.324
30
0
11
11.815200000000001
21
-122.23100000000002
31
0
0
LINE
5
462
100
AcDbEntity
8
0
100
AcDbLine
10
11.815200000000001
20
-122.23100000000002
30
0
11
11.4565
21
-122.13900000000001
31
0
0
LINE
5
463
100
AcDbEntity
8
0
100
AcDbLine
10
11.4565
20
-122.13900000000001
30
0
11
11.097799999999999
21
-122.03400000000001
31
0
0
LINE
5
464
100
AcDbEntity
8
0
100
AcDbLine
10
11.097799999999999
20
-122.03400000000001
30
0
11
10.739100000000001
21
-121.91800000000001
31
0
0
LINE
5
465
100
AcDbEntity
8
0
100
AcDbLine
10
10.739100000000001
20
-121.91800000000001
30
0
11
10.021699999999999
21
-121.68799999999999
31
0
0
LINE
5
466
100
AcDbEntity
8
0
100
AcDbLine
10
10.021699999999999
20
-121.68799999999999
30
0
11
9.6630399999999987
21
-121.57299999999999
31
0
0
LINE
5
467
100
AcDbEntity
8
0
100
AcDbLine
10
9.6630399999999987
20
-121.57299999999999
30
0
11
9.3043499999999995
21
-121.419
31
0
0
LINE
5
468
100
AcDbEntity
8
0
100
AcDbLine
10
9.3043499999999995
20
-121.419
30
0
11
8.9456500000000005
21
-121.233
31
0
0
LINE
5
469
100
AcDbEntity
8
0
100
AcDbLine
10
8.9456500000000005
20
-121.233
30
0
11
8.5869600000000013
21
-121.04700000000001
31
0
0
LINE
5
470
100
AcDbEntity
8
0
100
AcDbLine
10
8.5869600000000013
20
-121.04700000000001
30
0
11
8.2282600000000006
21
-120.83
31
0
0
LINE
5
471
100
AcDbEntity
8
0
100
AcDbLine
10
8.2282600000000006
20
-120.83
30
0
11
7.8695600000000008
21
-120.57200000000002
31
0
0
LINE
5
472
100
AcDbEntity
8
0
100
AcDbLine
10
39.782600000000002
20
-125.32900000000001
30
0
11
39.782600000000002
21
-130.00001649447452
31
0
0
LINE
5
473
100
AcDbEntity
8
0
100
AcDbLine
10
39.782600000000002
20
-130.00001649447452
30
0
11
49.782599838135738
21
-130.00001649447452
31
0
0
LINE
5
474
100
AcDbEntity
8
0
100
AcDbLine
10
49.782599838135738
20
-130.00001649447452
30
0
11
49.826381159470266
21
-125.53856303385663
31
0
0
LINE
5
475
100
AcDbEntity
8
0
100
AcDbLine
10
41.652336696221937
20
-125.40812651846994
30
0
11
41.652336696221937
21
-127.04367527332117
31
0
0
LINE
5
476
100
AcDbEntity
8
0
100
AcDbLine
10
41.652336696221937
20
-127.04367527332117
30
0
11
48.200760750137107
21
-127.04367527332117
31
0
0
LINE
5
477
100
AcDbEntity
8
0
100
AcDbLine
10
48.200760750137107
20
-127.04367527332117
30
0
11
48.215686351541635
21
-125.52275649020159
31
0
0
LINE
5
478
100
AcDbEntity
8
0
100
AcDbLine
10
170.21700000000004
20
-130
30
0
11
156.26725108592336
21
-130
31
0
0
LINE
5
479
100
AcDbEntity
8
0
100
AcDbLine
10
39.782600000000002
20
-130.00001649447452
30
0
11
49.782599838135738
21
-130.00001649447452
31
0
0
LINE
5
480
100
AcDbEntity
8
0
100
AcDbLine
10
41.652336696221937
20
-125.40812651846994
30
0
11
43.043500000000002
21
-125.46700000000001
31
0
0
LINE
5
481
100
AcDbEntity
8
0
100
AcDbLine
10
46.304400000000001
20
-125.50399999999999
30
0
11
48.215686351541635
21
-125.52275649020159
31
0
0
LINE
5
482
100
AcDbEntity
8
0
100
AcDbLine
10
36.521700000000003
20
-125.19100000000002
30
0
11
39.782600000000002
21
-125.32900000000001
31
0
0
LINE
5
483
100
AcDbEntity
8
0
100
AcDbLine
10
52.826099999999997
20
-125.56800000000001
30
0
11
49.826381159470266
21
-125.53856303385663
31
0
0
LINE
5
484
100
AcDbEntity
8
0
100
AcDbLine
10
212.60900000000004
20
-119.715
30
0
11
207.5257382341708
21
-119.95817351593664
31
0
0
LINE
5
485
100
AcDbEntity
8
0
100
AcDbLine
10
170.21700000000004
20
-130
30
0
11
156.26725108592336
21
-130
31
0
0
LINE
5
486
100
AcDbEntity
8
0
100
AcDbLine
10
170.21700000000004
20
-121.73400000000001
30
0
11
170.21700000000004
21
-130
31
0
0
LINE
5
487
100
AcDbEntity
8
0
100
AcDbLine
10
166.95699999999999
20
-121.88900000000001
30
0
11
166.95699999999999
21
-125.867
31
0
0
LINE
5
488
100
AcDbEntity
8
0
100
AcDbLine
10
166.95699999999999
20
-125.867
30
0
11
160.00000238418579
21
-125.867
31
0
0
LINE
5
489
100
AcDbEntity
8
0
100
AcDbLine
10
160.00000238418579
20
-125.867
30
0
11
160.435
21
-122.19799999999999
31
0
0
LINE
5
490
100
AcDbEntity
8
0
100
AcDbLine
10
157.17400000000001
20
-122.352
30
0
11
156.26725108592336
21
-130
31
0
0
LINE
5
491
100
AcDbEntity
8
0
100
AcDbLine
10
212.60900000000004
20
-119.715
30
0
11
215.04656994390089
21
-119.59761829188992
31
0
0
LINE
5
492
100
AcDbEntity
8
0
100
AcDbLine
10
238.69600000000003
20
-114.28200000000002
30
0
11
239.53505626712499
21
-114.42119946044608
31
0
0
LINE
5
493
100
AcDbEntity
8
0
100
AcDbLine
10
183.50077778649367
20
-106.43514685448096
30
0
11
188.34053340650897
21
-118.87086393870868
31
0
0
LINE
5
494
100
AcDbEntity
8
0
100
AcDbLine
10
244.11595540874001
20
-115.20313509344072
30
0
11
239.53505626712499
21
-114.42119946044608
31
0
0
LINE
5
495
100
AcDbEntity
8
0
100
AcDbLine
10
215.04656994390089
20
-119.59761829188992
30
0
11
224.28220922101943
21
-119.15566745531613
31
0
0
LINE
5
496
100
AcDbEntity
8
0
100
AcDbLine
10
188.34053340650897
20
-118.87086393870868
30
0
11
189.10541301303999
21
-120.83621655919598
31
0
0
LINE
5
497
100
AcDbEntity
8
0
100
AcDbLine
10
189.78300000000002
20
-120.804
30
0
11
189.10541301303999
21
-120.83621655919598
31
0
0
LINE
5
498
100
AcDbEntity
8
0
100
AcDbLine
10
244.11595540874001
20
-115.20313509344072
30
0
11
224.13881502387713
21
-116.15909641247077
31
0
0
LINE
5
499
100
AcDbEntity
8
0
100
AcDbLine
10
224.13881502387713
20
-116.15909641247077
30
0
11
224.28220922101943
21
-119.15566745531613
31
0
0
LINE
5
500
100
AcDbEntity
8
0
100
AcDbLine
10
207.5257382341708
20
-119.95817351593664
30
0
11
202.82600000000002
21
-120.182
31
0
0
LINE
5
501
100
AcDbEntity
8
0
100
AcDbLine
10
11.035500000000001
20
-116.86100000000002
30
0
11
7.5548602154225799
21
-120.34213202609695
31
0
0
LINE
5
502
100
AcDbEntity
8
0
100
AcDbLine
10
179
20
-121.31833333333334
30
0
11
177
21
-121.41300000000001
31
0
0
LINE
5
503
100
AcDbEntity
8
0
100
AcDbLine
10
177
20
-105.69400000000002
30
0
11
179
21
-105.89933333333335
31
0
0
LINE
5
504
100
AcDbEntity
8
0
100
AcDbLine
10
186.52200000000005
20
-106.815
30
0
11
183.50077778649367
21
-106.43514685448096
31
0
0
CIRCLE
5
505
100
AcDbEntity
8
0
100
AcDbCircle
10
100.03259299990927
20
-112.75889944350706
30
0
40
4.9999999999999982
0
LINE
5
506
100
AcDbEntity
8
0
100
AcDbLine
10
179
20
-105.89933333333335
30
0
11
179
21
-121.31833333333334
31
0
0
ENDSEC
0
SECTION
2
OBJECTS
0
DICTIONARY
5
C
100
AcDbDictionary
3
ACAD_GROUP
350
D
3
ACAD_MLINESTYLE
350
17
0
DICTIONARY
5
D
100
AcDbDictionary
0
DICTIONARY
5
1A
330
C
100
AcDbDictionary
0
DICTIONARY
5
17
100
AcDbDictionary
0
ENDSEC
0
EOF
