0
SECTION
2
HEADER
9
$INSUNITS
70
4
9
$ACADVER
1
AC1014
9
$HANDSEED
5
FFFF
0
ENDSEC
0
SECTION
2
TABLES
0
TABLE
2
VPORT
5
8
100
AcDbSymbolTable
0
ENDTAB
0
TABLE
2
LTYPE
5
5
100
AcDbSymbolTable
0
LTYPE
5
14
100
AcDbSymbolTableRecord
100
AcDbLinetypeTableRecord
2
BYBLOCK
70
0
0
LTYPE
5
15
100
AcDbSymbolTableRecord
100
AcDbLinetypeTableRecord
2
BYLAYER
70
0
0
ENDTAB
0
TABLE
2
LAYER
5
2
100
AcDbSymbolTable
70
2
0
LAYER
5
50
100
AcDbSymbolTableRecord
100
AcDbLayerTableRecord
2
0
70
0
6
CONTINUOUS
0
ENDTAB
0
TABLE
2
STYLE
5
3
100
AcDbSymbolTable
70
1
0
STYLE
5
11
100
AcDbSymbolTableRecord
100
AcDbTextStyleTableRecord
2
STANDARD
70
0
0
ENDTAB
0
TABLE
2
VIEW
5
6
100
AcDbSymbolTable
70
0
0
ENDTAB
0
TABLE
2
UCS
5
7
100
AcDbSymbolTable
70
0
0
ENDTAB
0
TABLE
2
APPID
5
9
100
AcDbSymbolTable
70
2
0
APPID
5
12
100
AcDbSymbolTableRecord
100
AcDbRegAppTableRecord
2
ACAD
70
0
0
ENDTAB
0
TABLE
2
DIMSTYLE
5
A
100
AcDbSymbolTable
70
1
0
ENDTAB
0
TABLE
2
BLOCK_RECORD
5
1
100
AcDbSymbolTable
70
1
0
BLOCK_RECORD
5
1F
100
AcDbSymbolTableRecord
100
AcDbBlockTableRecord
2
*MODEL_SPACE
0
BLOCK_RECORD
5
1B
100
AcDbSymbolTableRecord
100
AcDbBlockTableRecord
2
*PAPER_SPACE
0
ENDTAB
0
ENDSEC
0
SECTION
2
BLOCKS
0
BLOCK
5
20
100
AcDbEntity
100
AcDbBlockBegin
2
*MODEL_SPACE
0
ENDBLK
5
21
100
AcDbEntity
100
AcDbBlockEnd
0
BLOCK
5
1C
100
AcDbEntity
100
AcDbBlockBegin
2
*PAPER_SPACE
0
ENDBLK
5
1D
100
AcDbEntity
100
AcDbBlockEnd
0
ENDSEC
0
SECTION
2
ENTITIES
0
CIRCLE
5
100
100
AcDbEntity
8
0
100
AcDbCircle
10
100.03259299990927
20
-112.75889944350706
30
0
40
5
0
CIRCLE
5
101
100
AcDbEntity
8
0
100
AcDbCircle
10
100.03259299990927
20
-112.75889944350706
30
0
40
4.9999999999999982
0
LINE
5
102
100
AcDbEntity
8
0
100
AcDbLine
10
224.13881502387713
20
-116.15909641247077
30
0
11
234.96015728937709
21
-115.64126531019542
31
0
0
LINE
5
103
100
AcDbEntity
8
0
100
AcDbLine
10
171
20
-107.08799968053629
30
0
11
170.01254917244452
21
-106.98652252039226
31
0
0
LINE
5
104
100
AcDbEntity
8
0
100
AcDbLine
10
170.01254917244452
20
-106.98652252039226
30
0
11
166.75258615720128
21
-106.65152632097306
31
0
0
LINE
5
105
100
AcDbEntity
8
0
100
AcDbLine
10
166.75258615720128
20
-106.65152632097306
30
0
11
156.9795886750023
21
-105.64755387186648
31
0
0
LINE
5
106
100
AcDbEntity
8
0
100
AcDbLine
10
156.9795886750023
20
-105.64755387186648
30
0
11
153.74372796465758
21
-105.34788201215352
31
0
0
LINE
5
107
100
AcDbEntity
8
0
100
AcDbLine
10
153.74372796465758
20
-105.34788201215352
30
0
11
143.97557809505736
21
-104.59302958432792
31
0
0
LINE
5
108
100
AcDbEntity
8
0
100
AcDbLine
10
143.97557809505736
20
-104.59302958432792
30
0
11
140.71557809505745
21
-104.34002958432794
31
0
0
LINE
5
109
100
AcDbEntity
8
0
100
AcDbLine
10
140.71557809505745
20
-104.34002958432794
30
0
11
130.9532988263831
21
-103.58563081839542
31
0
0
LINE
5
110
100
AcDbEntity
8
0
100
AcDbLine
10
130.9532988263831
20
-103.58563081839542
30
0
11
127.72157451287836
21
-103.40229165924244
31
0
0
LINE
5
111
100
AcDbEntity
8
0
100
AcDbLine
10
127.72157451287836
20
-103.40229165924244
30
0
11
117.94741849305127
21
-102.93471473833073
31
0
0
LINE
5
112
100
AcDbEntity
8
0
100
AcDbLine
10
117.94741849305127
20
-102.93471473833073
30
0
11
114.68741849310938
21
-102.77871473833351
31
0
0
LINE
5
113
100
AcDbEntity
8
0
100
AcDbLine
10
114.68741849310938
20
-102.77871473833351
30
0
11
104.94851167572153
21
-102.31282407181632
31
0
0
LINE
5
114
100
AcDbEntity
8
0
100
AcDbLine
10
104.94851167572153
20
-102.31282407181632
30
0
11
101.73133332961828
21
-102.30098532905232
31
0
0
LINE
5
115
100
AcDbEntity
8
0
100
AcDbLine
10
101.73133332961828
20
-102.30098532905232
30
0
11
98.470633216787093
21
-102.28798532860247
31
0
0
LINE
5
116
100
AcDbEntity
8
0
100
AcDbLine
10
98.470633216787093
20
-102.28798532860247
30
0
11
88.687933339062738
21
-102.25198532905246
31
0
0
LINE
5
117
100
AcDbEntity
8
0
100
AcDbLine
10
88.687933339062738
20
-102.25198532905246
30
0
11
85.427133339062749
21
-102.23898532905244
31
0
0
LINE
5
118
100
AcDbEntity
8
0
100
AcDbLine
10
85.427133339062749
20
-102.23898532905244
30
0
11
82.176966592762881
21
-102.22702482705741
31
0
0
LINE
5
119
100
AcDbEntity
8
0
100
AcDbLine
10
82.176966592762881
20
-102.22702482705741
30
0
11
78.960820089222835
21
-102.24872289295274
31
0
0
LINE
5
120
100
AcDbEntity
8
0
100
AcDbLine
10
78.960820089222835
20
-102.24872289295274
30
0
11
75.734011961090886
21
-102.38132602383159
31
0
0
LINE
5
121
100
AcDbEntity
8
0
100
AcDbLine
10
75.734011961090886
20
-102.38132602383159
30
0
11
72.472830548841358
21
-102.5143375015921
31
0
0
LINE
5
122
100
AcDbEntity
8
0
100
AcDbLine
10
72.472830548841358
20
-102.5143375015921
30
0
11
71.5
21
-102.55404075091361
31
0
0
LINE
5
123
100
AcDbEntity
8
0
100
AcDbLine
10
63.500000000000007
20
-103.01494081157981
30
0
11
62.763295810583841
21
-103.07201608513468
31
0
0
LINE
5
124
100
AcDbEntity
8
0
100
AcDbLine
10
62.763295810583841
20
-103.07201608513468
30
0
11
59.502506948384848
21
-103.32500746240365
31
0
0
LINE
5
125
100
AcDbEntity
8
0
100
AcDbLine
10
59.502506948384848
20
-103.32500746240365
30
0
11
56.262643000282651
21
-103.57638306927562
31
0
0
LINE
5
126
100
AcDbEntity
8
0
100
AcDbLine
10
56.262643000282651
20
-103.57638306927562
30
0
11
53.044647721815494
21
-103.89414641058211
31
0
0
LINE
5
127
100
AcDbEntity
8
0
100
AcDbLine
10
53.044647721815494
20
-103.89414641058211
30
0
11
49.806010023297361
21
-104.28644972896498
31
0
0
LINE
5
128
100
AcDbEntity
8
0
100
AcDbLine
10
49.806010023297361
20
-104.28644972896498
30
0
11
46.545210023290629
21
-104.68244972896579
31
0
0
LINE
5
129
100
AcDbEntity
8
0
100
AcDbLine
10
46.545210023290629
20
-104.68244972896579
30
0
11
43.3192472099364
21
-105.07321771058898
31
0
0
LINE
5
130
100
AcDbEntity
8
0
100
AcDbLine
10
43.3192472099364
20
-105.07321771058898
30
0
11
40.114624786584095
21
-105.57736420486349
31
0
0
LINE
5
131
100
AcDbEntity
8
0
100
AcDbLine
10
40.114624786584095
20
-105.57736420486349
30
0
11
36.87486391348726
21
-106.15857188089203
31
0
0
LINE
5
132
100
AcDbEntity
8
0
100
AcDbLine
10
36.87486391348726
20
-106.15857188089203
30
0
11
33.613771465723374
21
-106.74362434714016
31
0
0
LINE
5
133
100
AcDbEntity
8
0
100
AcDbLine
10
33.613771465723374
20
-106.74362434714016
30
0
11
30.35343994399339
21
-107.32752253742207
31
0
0
LINE
5
134
100
AcDbEntity
8
0
100
AcDbLine
10
30.35343994399339
20
-107.32752253742207
30
0
11
30.105459169999435
21
-107.37215907674099
31
0
0
LINE
5
135
100
AcDbEntity
8
0
100
AcDbLine
10
30.105459169999435
20
-107.37215907674099
30
0
11
29.782210949710027
21
-107.43073486240816
31
0
0
LINE
5
136
100
AcDbEntity
8
0
100
AcDbLine
10
29.782210949710027
20
-107.43073486240816
30
0
11
29.478283611762333
21
-107.49682444244698
31
0
0
LINE
5
137
100
AcDbEntity
8
0
100
AcDbLine
10
29.478283611762333
20
-107.49682444244698
30
0
11
26.985429471655159
21
-108.09449786326996
31
0
0
LINE
5
138
100
AcDbEntity
8
0
100
AcDbLine
10
26.985429471655159
20
-108.09449786326996
30
0
11
26.62672947165899
21
-108.17949786326906
31
0
0
LINE
5
139
100
AcDbEntity
8
0
100
AcDbLine
10
26.62672947165899
20
-108.17949786326906
30
0
11
25.911956220822528
21
-108.35086808789114
31
0
0
LINE
5
140
100
AcDbEntity
8
0
100
AcDbLine
10
25.911956220822528
20
-108.35086808789114
30
0
11
25.554849637185896
21
-108.4365099344967
31
0
0
LINE
5
141
100
AcDbEntity
8
0
100
AcDbLine
10
25.554849637185896
20
-108.4365099344967
30
0
11
25.467309914167643
21
-108.4576402124666
31
0
0
LINE
5
142
100
AcDbEntity
8
0
100
AcDbLine
10
25.467309914167643
20
-108.4576402124666
30
0
11
25.194116298867115
21
-108.52299753670118
31
0
0
LINE
5
143
100
AcDbEntity
8
0
100
AcDbLine
10
25.194116298867115
20
-108.52299753670118
30
0
11
23.767471018453385
21
-108.86504240460079
31
0
0
LINE
5
144
100
AcDbEntity
8
0
100
AcDbLine
10
23.767471018453385
20
-108.86504240460079
30
0
11
23.439235599763734
21
-108.94648358738135
31
0
0
LINE
5
145
100
AcDbEntity
8
0
100
AcDbLine
10
23.439235599763734
20
-108.94648358738135
30
0
11
22.747000179577753
21
-109.13560840248651
31
0
0
LINE
5
146
100
AcDbEntity
8
0
100
AcDbLine
10
22.747000179577753
20
-109.13560840248651
30
0
11
22.388300179582416
21
-109.23460840248522
31
0
0
LINE
5
147
100
AcDbEntity
8
0
100
AcDbLine
10
22.388300179582416
20
-109.23460840248522
30
0
11
21.678380859221555
21
-109.42856461490608
31
0
0
LINE
5
148
100
AcDbEntity
8
0
100
AcDbLine
10
21.678380859221555
20
-109.42856461490608
30
0
11
21.341992302929551
21
-109.52422012854362
31
0
0
LINE
5
149
100
AcDbEntity
8
0
100
AcDbLine
10
21.341992302929551
20
-109.52422012854362
30
0
11
20.639356279445469
21
-109.73381604299246
31
0
0
LINE
5
150
100
AcDbEntity
8
0
100
AcDbLine
10
20.639356279445469
20
-109.73381604299246
30
0
11
20.280656279445438
21
-109.84181604299245
31
0
0
LINE
5
151
100
AcDbEntity
8
0
100
AcDbLine
10
20.280656279445438
20
-109.84181604299245
30
0
11
19.921956279448121
21
-109.94881604299165
31
0
0
LINE
5
152
100
AcDbEntity
8
0
100
AcDbLine
10
19.921956279448121
20
-109.94881604299165
30
0
11
19.589990796582764
21
-110.04876662049224
31
0
0
LINE
5
153
100
AcDbEntity
8
0
100
AcDbLine
10
19.589990796582764
20
-110.04876662049224
30
0
11
18.899070270141493
21
-110.27605578168563
31
0
0
LINE
5
154
100
AcDbEntity
8
0
100
AcDbLine
10
18.899070270141493
20
-110.27605578168563
30
0
11
18.540370270146859
21
-110.39505578168387
31
0
0
LINE
5
155
100
AcDbEntity
8
0
100
AcDbLine
10
18.540370270146859
20
-110.39505578168387
30
0
11
18.18405395212671
21
-110.5122716320501
31
0
0
LINE
5
156
100
AcDbEntity
8
0
100
AcDbLine
10
18.18405395212671
20
-110.5122716320501
30
0
11
17.853777780334958
21
-110.6227626847822
31
0
0
LINE
5
157
100
AcDbEntity
8
0
100
AcDbLine
10
17.853777780334958
20
-110.6227626847822
30
0
11
17.520864001978314
21
-110.74345089221768
31
0
0
LINE
5
158
100
AcDbEntity
8
0
100
AcDbLine
10
17.520864001978314
20
-110.74345089221768
30
0
11
17.162080093690662
21
-110.87448153616997
31
0
0
LINE
5
159
100
AcDbEntity
8
0
100
AcDbLine
10
17.162080093690662
20
-110.87448153616997
30
0
11
16.80338009369412
21
-111.0044815361687
31
0
0
LINE
5
160
100
AcDbEntity
8
0
100
AcDbLine
10
16.80338009369412
20
-111.0044815361687
30
0
11
16.458493118935319
21
-111.13043691306697
31
0
0
LINE
5
161
100
AcDbEntity
8
0
100
AcDbLine
10
16.458493118935319
20
-111.13043691306697
30
0
11
16.122584138248083
21
-111.25779576830382
31
0
0
LINE
5
162
100
AcDbEntity
8
0
100
AcDbLine
10
16.122584138248083
20
-111.25779576830382
30
0
11
15.773333365142761
21
-111.39508140813609
31
0
0
LINE
5
163
100
AcDbEntity
8
0
100
AcDbLine
10
15.773333365142761
20
-111.39508140813609
30
0
11
15.727525674062921
21
-111.41298326442018
31
0
0
LINE
5
164
100
AcDbEntity
8
0
100
AcDbLine
10
15.727525674062921
20
-111.41298326442018
30
0
11
15.41191643661843
21
-111.53614296050415
31
0
0
LINE
5
165
100
AcDbEntity
8
0
100
AcDbLine
10
15.41191643661843
20
-111.53614296050415
30
0
11
15.064488212300713
21
-111.67174360562397
31
0
0
LINE
5
166
100
AcDbEntity
8
0
100
AcDbLine
10
15.064488212300713
20
-111.67174360562397
30
0
11
14.728004176585387
21
-111.80776307921954
31
0
0
LINE
5
167
100
AcDbEntity
8
0
100
AcDbLine
10
14.728004176585387
20
-111.80776307921954
30
0
11
13.675961029661485
21
-112.2477030626
31
0
0
LINE
5
168
100
AcDbEntity
8
0
100
AcDbLine
10
13.675961029661485
20
-112.2477030626
30
0
11
13.33666913825396
21
-112.39526240204684
31
0
0
LINE
5
169
100
AcDbEntity
8
0
100
AcDbLine
10
13.33666913825396
20
-112.39526240204684
30
0
11
12.9865072626434
21
-112.55047773023776
31
0
0
LINE
5
170
100
AcDbEntity
8
0
100
AcDbLine
10
12.9865072626434
20
-112.55047773023776
30
0
11
12.290165996427637
21
-112.86108437254197
31
0
0
LINE
5
171
100
AcDbEntity
8
0
100
AcDbLine
10
12.290165996427637
20
-112.86108437254197
30
0
11
11.593581478367254
21
-113.18927724556178
31
0
0
LINE
5
172
100
AcDbEntity
8
0
100
AcDbLine
10
11.593581478367254
20
-113.18927724556178
30
0
11
11.251232226345065
21
-113.35152807590404
31
0
0
LINE
5
173
100
AcDbEntity
8
0
100
AcDbLine
10
11.251232226345065
20
-113.35152807590404
30
0
11
10.924669902591749
21
-113.51266978570146
31
0
0
LINE
5
174
100
AcDbEntity
8
0
100
AcDbLine
10
10.924669902591749
20
-113.51266978570146
30
0
11
10.655127173110273
21
-113.65245383656736
31
0
0
LINE
5
175
100
AcDbEntity
8
0
100
AcDbLine
10
10.866559395681508
20
-119.85859163009194
30
0
11
11.352097040848593
21
-120.01425605494336
31
0
0
LINE
5
176
100
AcDbEntity
8
0
100
AcDbLine
10
11.352097040848593
20
-120.01425605494336
30
0
11
11.686550484353193
21
-120.12241496056517
31
0
0
LINE
5
177
100
AcDbEntity
8
0
100
AcDbLine
10
11.686550484353193
20
-120.12241496056517
30
0
11
11.986025452862105
21
-120.21007838875985
31
0
0
LINE
5
178
100
AcDbEntity
8
0
100
AcDbLine
10
11.986025452862105
20
-120.21007838875985
30
0
11
12.314612697444847
21
-120.29435501686584
31
0
0
LINE
5
179
100
AcDbEntity
8
0
100
AcDbLine
10
12.314612697444847
20
-120.29435501686584
30
0
11
12.673312697440425
21
-120.38735501686466
31
0
0
LINE
5
180
100
AcDbEntity
8
0
100
AcDbLine
10
12.673312697440425
20
-120.38735501686466
30
0
11
13.74434518340485
21
-120.66205529204929
31
0
0
LINE
5
181
100
AcDbEntity
8
0
100
AcDbLine
10
13.74434518340485
20
-120.66205529204929
30
0
11
14.064642779162721
21
-120.74331283655437
31
0
0
LINE
5
182
100
AcDbEntity
8
0
100
AcDbLine
10
14.064642779162721
20
-120.74331283655437
30
0
11
14.748469699698191
21
-120.89010590285275
31
0
0
LINE
5
183
100
AcDbEntity
8
0
100
AcDbLine
10
14.748469699698191
20
-120.89010590285275
30
0
11
15.108170833640756
21
-120.96832360134037
31
0
0
LINE
5
184
100
AcDbEntity
8
0
100
AcDbLine
10
15.108170833640756
20
-120.96832360134037
30
0
11
15.413497361891277
21
-121.0341935376381
31
0
0
LINE
5
185
100
AcDbEntity
8
0
100
AcDbLine
10
15.413497361891277
20
-121.0341935376381
30
0
11
15.458602384175723
21
-121.04352561121418
31
0
0
LINE
5
186
100
AcDbEntity
8
0
100
AcDbLine
10
15.458602384175723
20
-121.04352561121418
30
0
11
15.824569699698971
21
-121.12310590285291
31
0
0
LINE
5
187
100
AcDbEntity
8
0
100
AcDbLine
10
15.824569699698971
20
-121.12310590285291
30
0
11
16.183269699699142
21
-121.20010590285295
31
0
0
LINE
5
188
100
AcDbEntity
8
0
100
AcDbLine
10
16.183269699699142
20
-121.20010590285295
30
0
11
16.518413785597073
21
-121.27298362434732
31
0
0
LINE
5
189
100
AcDbEntity
8
0
100
AcDbLine
10
16.518413785597073
20
-121.27298362434732
30
0
11
16.834900408091215
21
-121.33298108832727
31
0
0
LINE
5
190
100
AcDbEntity
8
0
100
AcDbLine
10
16.834900408091215
20
-121.33298108832727
30
0
11
17.177687860710336
21
-121.39223066196094
31
0
0
LINE
5
191
100
AcDbEntity
8
0
100
AcDbLine
10
17.177687860710336
20
-121.39223066196094
30
0
11
17.536287860654472
21
-121.45423066195127
31
0
0
LINE
5
192
100
AcDbEntity
8
0
100
AcDbLine
10
17.536287860654472
20
-121.45423066195127
30
0
11
19.677752373609184
21
-121.82437507177339
31
0
0
LINE
5
193
100
AcDbEntity
8
0
100
AcDbLine
10
19.677752373609184
20
-121.82437507177339
30
0
11
19.985264082513368
21
-121.87409818054516
31
0
0
LINE
5
194
100
AcDbEntity
8
0
100
AcDbLine
10
19.985264082513368
20
-121.87409818054516
30
0
11
20.305978219349647
21
-121.91254453650825
31
0
0
LINE
5
195
100
AcDbEntity
8
0
100
AcDbLine
10
20.305978219349647
20
-121.91254453650825
30
0
11
20.664678219347334
21
-121.95654453650796
31
0
0
LINE
5
196
100
AcDbEntity
8
0
100
AcDbLine
10
20.664678219347334
20
-121.95654453650796
30
0
11
21.38207821934531
21
-122.04254453650771
31
0
0
LINE
5
197
100
AcDbEntity
8
0
100
AcDbLine
10
21.38207821934531
20
-122.04254453650771
30
0
11
21.740778219349039
21
-122.08654453650817
31
0
0
LINE
5
198
100
AcDbEntity
8
0
100
AcDbLine
10
21.740778219349039
20
-122.08654453650817
30
0
11
22.816878219351054
21
-122.21554453650842
31
0
0
LINE
5
199
100
AcDbEntity
8
0
100
AcDbLine
10
22.816878219351054
20
-122.21554453650842
30
0
11
23.175578219352388
21
-122.25954453650859
31
0
0
LINE
5
200
100
AcDbEntity
8
0
100
AcDbLine
10
23.175578219352388
20
-122.25954453650859
30
0
11
24.251678219352382
21
-122.38854453650858
31
0
0
LINE
5
201
100
AcDbEntity
8
0
100
AcDbLine
10
24.251678219352382
20
-122.38854453650858
30
0
11
24.583013645939428
21
-122.42918785619028
31
0
0
LINE
5
202
100
AcDbEntity
8
0
100
AcDbLine
10
24.583013645939428
20
-122.42918785619028
30
0
11
24.900624686527948
21
-122.45840771774431
31
0
0
LINE
5
203
100
AcDbEntity
8
0
100
AcDbLine
10
24.900624686527948
20
-122.45840771774431
30
0
11
25.160908115449111
21
-122.47948329903345
31
0
0
LINE
5
204
100
AcDbEntity
8
0
100
AcDbLine
10
25.160908115449111
20
-122.47948329903345
30
0
11
25.250568447854999
21
-122.48669734876725
31
0
0
LINE
5
205
100
AcDbEntity
8
0
100
AcDbLine
10
25.250568447854999
20
-122.48669734876725
30
0
11
25.609552336522672
21
-122.51672946438362
31
0
0
LINE
5
206
100
AcDbEntity
8
0
100
AcDbLine
10
25.609552336522672
20
-122.51672946438362
30
0
11
25.968229251109854
21
-122.5457275979856
31
0
0
LINE
5
207
100
AcDbEntity
8
0
100
AcDbLine
10
25.968229251109854
20
-122.5457275979856
30
0
11
26.685629251109852
21
-122.60572759798558
31
0
0
LINE
5
208
100
AcDbEntity
8
0
100
AcDbLine
10
26.685629251109852
20
-122.60572759798558
30
0
11
27.04432925111135
21
-122.63472759798572
31
0
0
LINE
5
209
100
AcDbEntity
8
0
100
AcDbLine
10
27.04432925111135
20
-122.63472759798572
30
0
11
27.403029251114933
21
-122.66472759798602
31
0
0
LINE
5
210
100
AcDbEntity
8
0
100
AcDbLine
10
27.403029251114933
20
-122.66472759798602
30
0
11
27.761729251114936
21
-122.69372759798603
31
0
0
LINE
5
211
100
AcDbEntity
8
0
100
AcDbLine
10
27.761729251114936
20
-122.69372759798603
30
0
11
28.479129251111345
21
-122.75372759798573
31
0
0
LINE
5
212
100
AcDbEntity
8
0
100
AcDbLine
10
28.479129251111345
20
-122.75372759798573
30
0
11
28.837829251109856
21
-122.78272759798561
31
0
0
LINE
5
213
100
AcDbEntity
8
0
100
AcDbLine
10
28.837829251109856
20
-122.78272759798561
30
0
11
29.555229251112646
21
-122.84272759798583
31
0
0
LINE
5
214
100
AcDbEntity
8
0
100
AcDbLine
10
29.555229251112646
20
-122.84272759798583
30
0
11
29.91429018043025
21
-122.8717567782206
31
0
0
LINE
5
215
100
AcDbEntity
8
0
100
AcDbLine
10
29.91429018043025
20
-122.8717567782206
30
0
11
30.134886947034509
21
-122.89028690661537
31
0
0
LINE
5
216
100
AcDbEntity
8
0
100
AcDbLine
10
30.134886947034509
20
-122.89028690661537
30
0
11
33.354330720540844
21
-123.05516381488472
31
0
0
LINE
5
217
100
AcDbEntity
8
0
100
AcDbLine
10
33.354330720540844
20
-123.05516381488472
30
0
11
36.606266108134577
21
-123.19278865648428
31
0
0
LINE
5
218
100
AcDbEntity
8
0
100
AcDbLine
10
36.606266108134577
20
-123.19278865648428
30
0
11
41.782599999999988
21
-123.41184906222256
31
0
0
LINE
5
219
100
AcDbEntity
8
0
100
AcDbLine
10
41.782599999999988
20
-123.41184906222256
30
0
11
41.782599999999988
21
-128.00001649447455
31
0
0
LINE
5
220
100
AcDbEntity
8
0
100
AcDbLine
10
41.782599999999988
20
-128.00001649447455
30
0
11
47.802130024226685
21
-128.00001649447455
31
0
0
LINE
5
221
100
AcDbEntity
8
0
100
AcDbLine
10
47.802130024226685
20
-128.00001649447455
30
0
11
47.846102990771122
21
-123.51903378807343
31
0
0
LINE
5
222
100
AcDbEntity
8
0
100
AcDbLine
10
47.846102990771122
20
-123.51903378807343
30
0
11
52.842965893450106
21
-123.56806921169444
31
0
0
LINE
5
223
100
AcDbEntity
8
0
100
AcDbLine
10
52.842965893450106
20
-123.56806921169444
30
0
11
56.084546483976048
21
-123.59093294673143
31
0
0
LINE
5
224
100
AcDbEntity
8
0
100
AcDbLine
10
56.084546483976048
20
-123.59093294673143
30
0
11
59.32909403486498
21
-123.56008745664381
31
0
0
LINE
5
225
100
AcDbEntity
8
0
100
AcDbLine
10
59.32909403486498
20
-123.56008745664381
30
0
11
62.590162522346247
21
-123.53008590657345
31
0
0
LINE
5
226
100
AcDbEntity
8
0
100
AcDbLine
10
62.590162522346247
20
-123.53008590657345
30
0
11
63.500000000000007
21
-123.52158951674996
31
0
0
LINE
5
227
100
AcDbEntity
8
0
100
AcDbLine
10
71.5
20
-123.4046529405606
30
0
11
72.348706219292396
21
-123.38645358885162
31
0
0
LINE
5
228
100
AcDbEntity
8
0
100
AcDbLine
10
72.348706219292396
20
-123.38645358885162
30
0
11
75.609583409853187
21
-123.31745407149485
31
0
0
LINE
5
229
100
AcDbEntity
8
0
100
AcDbLine
10
75.609583409853187
20
-123.31745407149485
30
0
11
78.865886254164508
21
-123.2475527561826
31
0
0
LINE
5
230
100
AcDbEntity
8
0
100
AcDbLine
10
78.865886254164508
20
-123.2475527561826
30
0
11
82.119027131663415
21
-123.16375005938735
31
0
0
LINE
5
231
100
AcDbEntity
8
0
100
AcDbLine
10
82.119027131663415
20
-123.16375005938735
30
0
11
88.637458587678779
21
-122.97384819538615
31
0
0
LINE
5
232
100
AcDbEntity
8
0
100
AcDbLine
10
88.637458587678779
20
-122.97384819538615
30
0
11
91.898256803085388
21
-122.8788482473776
31
0
0
LINE
5
233
100
AcDbEntity
8
0
100
AcDbLine
10
91.898256803085388
20
-122.8788482473776
30
0
11
98.420058587678781
21
-122.68884819538614
31
0
0
LINE
5
234
100
AcDbEntity
8
0
100
AcDbLine
10
98.420058587678781
20
-122.68884819538614
30
0
11
101.68075501838271
21
-122.59384829937386
31
0
0
LINE
5
235
100
AcDbEntity
8
0
100
AcDbLine
10
101.68075501838271
20
-122.59384829937386
30
0
11
104.93379947061595
21
-122.49908006172113
31
0
0
LINE
5
236
100
AcDbEntity
8
0
100
AcDbLine
10
104.93379947061595
20
-122.49908006172113
30
0
11
114.70882931053679
21
-122.13637579596521
31
0
0
LINE
5
237
100
AcDbEntity
8
0
100
AcDbLine
10
114.70882931053679
20
-122.13637579596521
30
0
11
117.96882931053284
21
-122.01537579596534
31
0
0
LINE
5
238
100
AcDbEntity
8
0
100
AcDbLine
10
117.96882931053284
20
-122.01537579596534
30
0
11
127.74908675576997
21
-121.65247755896024
31
0
0
LINE
5
239
100
AcDbEntity
8
0
100
AcDbLine
10
127.74908675576997
20
-121.65247755896024
30
0
11
131.0027451266063
21
-121.52277023353591
31
0
0
LINE
5
240
100
AcDbEntity
8
0
100
AcDbLine
10
131.0027451266063
20
-121.52277023353591
30
0
11
137.51985226336777
21
-121.23298779415217
31
0
0
LINE
5
241
100
AcDbEntity
8
0
100
AcDbLine
10
137.51985226336777
20
-121.23298779415217
30
0
11
140.78083866436478
21
-121.0869884030005
31
0
0
LINE
5
242
100
AcDbEntity
8
0
100
AcDbLine
10
140.78083866436478
20
-121.0869884030005
30
0
11
144.04114440746918
21
-120.9419748039974
31
0
0
LINE
5
243
100
AcDbEntity
8
0
100
AcDbLine
10
144.04114440746918
20
-120.9419748039974
30
0
11
147.30185226336783
21
-120.79698779415216
31
0
0
LINE
5
244
100
AcDbEntity
8
0
100
AcDbLine
10
147.30185226336783
20
-120.79698779415216
30
0
11
150.5628522633705
21
-120.65098779415203
31
0
0
LINE
5
245
100
AcDbEntity
8
0
100
AcDbLine
10
150.5628522633705
20
-120.65098779415203
30
0
11
153.82201798231517
21
-120.50606935525383
31
0
0
LINE
5
246
100
AcDbEntity
8
0
100
AcDbLine
10
153.82201798231517
20
-120.50606935525383
30
0
11
158.5183791021083
21
-120.28716506509484
31
0
0
LINE
5
247
100
AcDbEntity
8
0
100
AcDbLine
10
158.5183791021083
20
-128
30
0
11
168.21700000000004
21
-128
31
0
0
LINE
5
248
100
AcDbEntity
8
0
100
AcDbLine
10
168.21700000000004
20
-128
30
0
11
168.21700000000004
21
-119.82661324028869
31
0
0
LINE
5
249
100
AcDbEntity
8
0
100
AcDbLine
10
168.21700000000004
20
-119.82661324028869
30
0
11
171
21
-119.6946132402887
31
0
0
LINE
5
250
100
AcDbEntity
8
0
100
AcDbLine
10
179
20
-119.31605364121185
30
0
11
222.18889017668016
21
-117.25336410593223
31
0
0
LINE
5
251
100
AcDbEntity
8
0
100
AcDbLine
10
224.87258556752971
20
-114.12169488889654
30
0
11
215.58433266347311
21
-112.72253215997341
31
0
0
LINE
5
252
100
AcDbEntity
8
0
100
AcDbLine
10
215.58433266347311
20
-112.72253215997341
30
0
11
196.04273208783613
21
-110.02589914585593
31
0
0
LINE
5
253
100
AcDbEntity
8
0
100
AcDbLine
10
196.04273208783613
20
-110.02589914585593
30
0
11
186.27660033193439
21
-108.7998911928556
31
0
0
LINE
5
254
100
AcDbEntity
8
0
100
AcDbLine
10
186.27660033193439
20
-108.7998911928556
30
0
11
179
21
-107.91409747168997
31
0
0
LWPOLYLINE
5
255
100
AcDbEntity
8
0
100
AcDbPolyline
90
4
70
1
43
0.0
10
165.71654400684935
20
-119.94557981641339
10
161.00000239908695
20
-120.16998320833956
10
161.00000239908695
20
-124.44164942316749
10
165.71654400684935
20
-124.44164942316749
0
LINE
5
256
100
AcDbEntity
8
0
100
AcDbLine
10
158.5183791021083
20
-128
30
0
11
158.5183791021083
21
-120.28716506509484
31
0
0
LINE
5
257
100
AcDbEntity
8
0
100
AcDbLine
10
171
20
-119.6946132402887
30
0
11
173
21
-119.59975158020966
31
0
0
LINE
5
258
100
AcDbEntity
8
0
100
AcDbLine
10
179
20
-119.31605364121185
30
0
11
177
21
-119.41051205011676
31
0
0
LINE
5
259
100
AcDbEntity
8
0
100
AcDbLine
10
171
20
-107.08799968053629
30
0
11
173
21
-107.29452412832471
31
0
0
LINE
5
260
100
AcDbEntity
8
0
100
AcDbLine
10
177
20
-107.70757302390155
30
0
11
179
21
-107.91409747168997
31
0
0
LINE
5
261
100
AcDbEntity
8
0
100
AcDbLine
10
222.18889017668016
20
-117.25336410593223
30
0
11
224.18660421516645
21
-117.15776797402921
31
0
0
LINE
5
262
100
AcDbEntity
8
0
100
AcDbLine
10
224.87258556752971
20
-114.12169488889654
30
0
11
234.96015728937709
21
-115.64126531019542
31
0
0
LINE
5
263
100
AcDbEntity
8
0
100
AcDbLine
10
71.5
20
-102.55404075091361
30
0
11
69.5
21
-102.66926576608016
31
0
0
LINE
5
264
100
AcDbEntity
8
0
100
AcDbLine
10
65.5
20
-102.89971579641325
30
0
11
63.500000000000007
21
-103.01494081157981
31
0
0
LINE
5
265
100
AcDbEntity
8
0
100
AcDbLine
10
69.5
20
-102.66926576608016
30
0
11
69.5
21
-104.634
31
0
0
LINE
5
266
100
AcDbEntity
8
0
100
AcDbLine
10
69.5
20
-104.634
30
0
11
65.5
21
-104.634
31
0
0
LINE
5
267
100
AcDbEntity
8
0
100
AcDbLine
10
65.5
20
-102.89971579641325
30
0
11
65.5
21
-104.634
31
0
0
SPLINE
5
268
100
AcDbEntity
8
0
100
AcDbSpline
70
1064
71
5
72
21
73
15
74
0
42
0.000000001
43
0.0000000001
44
0.0000000001
40
0
40
0
40
0
40
0
40
0
40
0
40
0.10000000000000001
40
0.20000000000000001
40
0.30000000000000004
40
0.40000000000000002
40
0.5
40
0.59999999999999998
40
0.69999999999999996
40
0.79999999999999993
40
0.89999999999999991
40
1
40
1
40
1
40
1
40
1
40
1
10
10.655127173110273
20
-113.65245383656736
30
0
10
10.629501957341997
20
-113.66116638428312
30
0
10
10.577535897960937
20
-113.67987119958707
30
0
10
10.497439888275329
20
-113.71176764846942
30
0
10
10.386281047782528
20
-113.76210044784651
30
0
10
10.239582731864335
20
-113.83887494730885
30
0
10
10.084510598259318
20
-113.93062390725775
30
0
10
9.9204880099659558
20
-114.03837849748626
30
0
10
9.7473982246749387
20
-114.16234748214619
30
0
10
9.5657949374079347
20
-114.30154071735474
30
0
10
9.3764080330862036
20
-114.45465298804149
30
0
10
9.2192239920711767
20
-114.58729024767969
30
0
10
9.0983535090020169
20
-114.69210155594337
30
0
10
9.0164694540809993
20
-114.76430715879088
30
0
10
8.9752014730094842
20
-114.80099284601573
30
0
0
LINE
5
269
100
AcDbEntity
8
0
100
AcDbLine
10
11.035499999999985
20
-116.86100000000002
30
0
11
8.9752014730094842
21
-114.80099284601573
31
0
0
SPLINE
5
270
100
AcDbEntity
8
0
100
AcDbSpline
70
1064
71
5
72
21
73
15
74
0
42
0.000000001
43
0.0000000001
44
0.0000000001
40
0
40
0
40
0
40
0
40
0
40
0
40
0.10000000000000001
40
0.20000000000000001
40
0.30000000000000004
40
0.40000000000000002
40
0.5
40
0.59999999999999998
40
0.69999999999999996
40
0.79999999999999993
40
0.89999999999999991
40
1
40
1
40
1
40
1
40
1
40
1
10
10.866559395681508
20
-119.85859163009194
30
0
10
10.832063230218997
20
-119.84818968888051
30
0
10
10.762863705135393
20
-119.82656154403985
30
0
10
10.658442840839928
20
-119.79164656262178
30
0
10
10.51795136623986
20
-119.74006616364099
30
0
10
10.340090180110256
20
-119.66665224619781
30
0
10
10.159789983906965
20
-119.583535428077
30
0
10
9.976865099755539
20
-119.48997704321243
30
0
10
9.7912390439447492
20
-119.38567282313858
30
0
10
9.6030462208278919
20
-119.27115745695266
30
0
10
9.4124920444551812
20
-119.14724812542536
30
0
10
9.2583204084356971
20
-119.04124513552445
30
0
10
9.1417821816208651
20
-118.95812470950995
30
0
10
9.0636924327366781
20
-118.90112936407888
30
0
10
9.0245481540645152
20
-118.87223624020022
30
0
0
LINE
5
271
100
AcDbEntity
8
0
100
AcDbLine
10
11.035499999999985
20
-116.86100000000002
30
0
11
9.0245481540645152
21
-118.87223624020022
31
0
0
LINE
5
272
100
AcDbEntity
8
0
100
AcDbLine
10
63.500000000000007
20
-123.52158951674996
30
0
11
65.5
21
-123.49235537270262
31
0
0
LINE
5
273
100
AcDbEntity
8
0
100
AcDbLine
10
69.5
20
-123.43388708460793
30
0
11
71.5
21
-123.4046529405606
31
0
0
LINE
5
274
100
AcDbEntity
8
0
100
AcDbLine
10
65.5
20
-123.49235537270262
30
0
11
65.5
21
-121.503
31
0
0
LINE
5
275
100
AcDbEntity
8
0
100
AcDbLine
10
69.5
20
-121.503
30
0
11
69.5
21
-123.43388708460793
31
0
0
LINE
5
276
100
AcDbEntity
8
0
100
AcDbLine
10
65.5
20
-121.503
30
0
11
69.5
21
-121.503
31
0
0
LINE
5
277
100
AcDbEntity
8
0
100
AcDbLine
10
173
20
-119.59975158020966
30
0
11
173
21
-117.602
31
0
0
LINE
5
278
100
AcDbEntity
8
0
100
AcDbLine
10
177
20
-119.41051205011676
30
0
11
177
21
-117.602
31
0
0
LINE
5
279
100
AcDbEntity
8
0
100
AcDbLine
10
173
20
-117.602
30
0
11
177
21
-117.602
31
0
0
LINE
5
280
100
AcDbEntity
8
0
100
AcDbLine
10
177
20
-109.283
30
0
11
177
21
-107.70757302390155
31
0
0
LINE
5
281
100
AcDbEntity
8
0
100
AcDbLine
10
173
20
-109.283
30
0
11
173
21
-107.29452412832471
31
0
0
LINE
5
282
100
AcDbEntity
8
0
100
AcDbLine
10
173
20
-109.283
30
0
11
177
21
-109.283
31
0
0
LINE
5
283
100
AcDbEntity
8
0
100
AcDbLine
10
224.18660421516645
20
-117.15776797402921
30
0
11
224.13881502387713
21
-116.15909641247077
31
0
0
LWPOLYLINE
5
284
100
AcDbEntity
8
0
100
AcDbPolyline
90
4
70
1
43
0.0
10
45.640814657683094
20
-123.4800508394769
10
44.000000655651093
20
-123.45104612071157
10
44.000000655651093
20
-125.81159751919174
10
45.640814657683094
20
-125.81159751919174
0
ENDSEC
0
SECTION
2
OBJECTS
0
DICTIONARY
5
C
100
AcDbDictionary
3
ACAD_GROUP
350
D
3
ACAD_MLINESTYLE
350
17
0
DICTIONARY
5
D
100
AcDbDictionary
0
DICTIONARY
5
1A
330
C
100
AcDbDictionary
0
DICTIONARY
5
17
100
AcDbDictionary
0
ENDSEC
0
EOF
