0
SECTION
2
HEADER
9
$INSUNITS
70
4
9
$ACADVER
1
AC1014
9
$HANDSEED
5
FFFF
0
ENDSEC
0
SECTION
2
TABLES
0
TABLE
2
VPORT
5
8
100
AcDbSymbolTable
0
ENDTAB
0
TABLE
2
LTYPE
5
5
100
AcDbSymbolTable
0
LTYPE
5
14
100
AcDbSymbolTableRecord
100
AcDbLinetypeTableRecord
2
BYBLOCK
70
0
0
LTYPE
5
15
100
AcDbSymbolTableRecord
100
AcDbLinetypeTableRecord
2
BYLAYER
70
0
0
ENDTAB
0
TABLE
2
LAYER
5
2
100
AcDbSymbolTable
70
2
0
LAYER
5
50
100
AcDbSymbolTableRecord
100
AcDbLayerTableRecord
2
0
70
0
6
CONTINUOUS
0
ENDTAB
0
TABLE
2
STYLE
5
3
100
AcDbSymbolTable
70
1
0
STYLE
5
11
100
AcDbSymbolTableRecord
100
AcDbTextStyleTableRecord
2
STANDARD
70
0
0
ENDTAB
0
TABLE
2
VIEW
5
6
100
AcDbSymbolTable
70
0
0
ENDTAB
0
TABLE
2
UCS
5
7
100
AcDbSymbolTable
70
0
0
ENDTAB
0
TABLE
2
APPID
5
9
100
AcDbSymbolTable
70
2
0
APPID
5
12
100
AcDbSymbolTableRecord
100
AcDbRegAppTableRecord
2
ACAD
70
0
0
ENDTAB
0
TABLE
2
DIMSTYLE
5
A
100
AcDbSymbolTable
70
1
0
ENDTAB
0
TABLE
2
BLOCK_RECORD
5
1
100
AcDbSymbolTable
70
1
0
BLOCK_RECORD
5
1F
100
AcDbSymbolTableRecord
100
AcDbBlockTableRecord
2
*MODEL_SPACE
0
BLOCK_RECORD
5
1B
100
AcDbSymbolTableRecord
100
AcDbBlockTableRecord
2
*PAPER_SPACE
0
ENDTAB
0
ENDSEC
0
SECTION
2
BLOCKS
0
BLOCK
5
20
100
AcDbEntity
100
AcDbBlockBegin
2
*MODEL_SPACE
0
ENDBLK
5
21
100
AcDbEntity
100
AcDbBlockEnd
0
BLOCK
5
1C
100
AcDbEntity
100
AcDbBlockBegin
2
*PAPER_SPACE
0
ENDBLK
5
1D
100
AcDbEntity
100
AcDbBlockEnd
0
ENDSEC
0
SECTION
2
ENTITIES
0
LWPOLYLINE
5
100
100
AcDbEntity
8
0
100
AcDbPolyline
90
28
70
1
43
0.0
10
-3.0000000000000071
20
-56.604997651558158
10
-15.000000000000007
20
-56.604997651558158
10
-15.000000000000007
20
-71.604997651558165
10
-18.000000000000007
20
-71.604997651558165
10
-18.000000000000007
20
-113.60499765155815
10
-15.000000000000007
20
-113.60499765155815
10
-15.000000000000007
20
-128.60499765155816
10
-3.0000000000000071
20
-128.60499765155816
10
-3.0000000000000071
20
-125.60499765155814
10
15
20
-125.60499765155814
10
15
20
-128.60499765155816
10
93
20
-128.60499765155816
10
93
20
-125.60499765155814
10
111.00000187754631
20
-125.60499765155814
10
111.00000187754631
20
-128.60499765155816
10
123.00000187754631
20
-128.60499765155816
10
123.00000187754631
20
-113.60499765155815
10
126.00000187754631
20
-113.60499765155815
10
126.00000187754631
20
-71.604997651558165
10
123.00000187754631
20
-71.604997651558165
10
123.00000187754631
20
-56.604997651558158
10
111.00000187754631
20
-56.604997651558158
10
111.00000187754631
20
-59.604997651558129
10
93
20
-59.604997651558129
10
93
20
-56.604997651558158
10
15
20
-56.604997651558158
10
15
20
-59.604997651558129
10
-3.0000000000000071
20
-59.604997651558129
0
CIRCLE
5
101
100
AcDbEntity
8
0
100
AcDbCircle
10
-2.4995139564025943
20
-68.604997651558151
30
0
40
2.4999999999999991
0
CIRCLE
5
102
100
AcDbEntity
8
0
100
AcDbCircle
10
-2.4995139564025948
20
-68.604997651558151
30
0
40
2.4999999999999991
0
CIRCLE
5
103
100
AcDbEntity
8
0
100
AcDbCircle
10
10.056041599152961
20
-68.604997651558151
30
0
40
2.4999999999999991
0
CIRCLE
5
104
100
AcDbEntity
8
0
100
AcDbCircle
10
22.611597154708516
20
-68.604997651558151
30
0
40
2.4999999999999991
0
CIRCLE
5
105
100
AcDbEntity
8
0
100
AcDbCircle
10
35.16715271026407
20
-68.604997651558151
30
0
40
2.4999999999999991
0
CIRCLE
5
106
100
AcDbEntity
8
0
100
AcDbCircle
10
47.722708265819627
20
-68.604997651558151
30
0
40
2.4999999999999991
0
CIRCLE
5
107
100
AcDbEntity
8
0
100
AcDbCircle
10
60.278263821375184
20
-68.604997651558151
30
0
40
2.4999999999999991
0
CIRCLE
5
108
100
AcDbEntity
8
0
100
AcDbCircle
10
72.833819376930734
20
-68.604997651558151
30
0
40
2.4999999999999991
0
CIRCLE
5
109
100
AcDbEntity
8
0
100
AcDbCircle
10
85.389374932486277
20
-68.604997651558151
30
0
40
2.4999999999999991
0
CIRCLE
5
110
100
AcDbEntity
8
0
100
AcDbCircle
10
97.944930488041848
20
-68.604997651558151
30
0
40
2.4999999999999991
0
CIRCLE
5
111
100
AcDbEntity
8
0
100
AcDbCircle
10
110.50048604359742
20
-68.604997651558151
30
0
40
2.4999999999999991
0
CIRCLE
5
112
100
AcDbEntity
8
0
100
AcDbCircle
10
-2.4995139564025943
20
-78.604997651558151
30
0
40
2.4999999999999991
0
CIRCLE
5
113
100
AcDbEntity
8
0
100
AcDbCircle
10
10.056041599152961
20
-78.604997651558151
30
0
40
2.4999999999999991
0
CIRCLE
5
114
100
AcDbEntity
8
0
100
AcDbCircle
10
22.611597154708516
20
-78.604997651558151
30
0
40
2.4999999999999991
0
CIRCLE
5
115
100
AcDbEntity
8
0
100
AcDbCircle
10
35.16715271026407
20
-78.604997651558151
30
0
40
2.4999999999999991
0
CIRCLE
5
116
100
AcDbEntity
8
0
100
AcDbCircle
10
47.722708265819627
20
-78.604997651558151
30
0
40
2.4999999999999991
0
CIRCLE
5
117
100
AcDbEntity
8
0
100
AcDbCircle
10
60.278263821375184
20
-78.604997651558151
30
0
40
2.4999999999999991
0
CIRCLE
5
118
100
AcDbEntity
8
0
100
AcDbCircle
10
72.833819376930734
20
-78.604997651558151
30
0
40
2.4999999999999991
0
CIRCLE
5
119
100
AcDbEntity
8
0
100
AcDbCircle
10
85.389374932486277
20
-78.604997651558151
30
0
40
2.4999999999999991
0
CIRCLE
5
120
100
AcDbEntity
8
0
100
AcDbCircle
10
97.944930488041848
20
-78.604997651558151
30
0
40
2.4999999999999991
0
CIRCLE
5
121
100
AcDbEntity
8
0
100
AcDbCircle
10
110.50048604359742
20
-78.604997651558151
30
0
40
2.4999999999999991
0
CIRCLE
5
122
100
AcDbEntity
8
0
100
AcDbCircle
10
-2.4995139564025943
20
-88.604997651558151
30
0
40
2.4999999999999991
0
CIRCLE
5
123
100
AcDbEntity
8
0
100
AcDbCircle
10
10.056041599152961
20
-88.604997651558151
30
0
40
2.4999999999999991
0
CIRCLE
5
124
100
AcDbEntity
8
0
100
AcDbCircle
10
22.611597154708516
20
-88.604997651558151
30
0
40
2.4999999999999991
0
CIRCLE
5
125
100
AcDbEntity
8
0
100
AcDbCircle
10
35.16715271026407
20
-88.604997651558151
30
0
40
2.4999999999999991
0
CIRCLE
5
126
100
AcDbEntity
8
0
100
AcDbCircle
10
47.722708265819627
20
-88.604997651558151
30
0
40
2.4999999999999991
0
CIRCLE
5
127
100
AcDbEntity
8
0
100
AcDbCircle
10
60.278263821375184
20
-88.604997651558151
30
0
40
2.4999999999999991
0
CIRCLE
5
128
100
AcDbEntity
8
0
100
AcDbCircle
10
72.833819376930734
20
-88.604997651558151
30
0
40
2.4999999999999991
0
CIRCLE
5
129
100
AcDbEntity
8
0
100
AcDbCircle
10
85.389374932486277
20
-88.604997651558151
30
0
40
2.4999999999999991
0
CIRCLE
5
130
100
AcDbEntity
8
0
100
AcDbCircle
10
97.944930488041848
20
-88.604997651558151
30
0
40
2.4999999999999991
0
CIRCLE
5
131
100
AcDbEntity
8
0
100
AcDbCircle
10
110.50048604359742
20
-88.604997651558151
30
0
40
2.4999999999999991
0
CIRCLE
5
132
100
AcDbEntity
8
0
100
AcDbCircle
10
-2.4995139564025943
20
-98.604997651558151
30
0
40
2.4999999999999991
0
CIRCLE
5
133
100
AcDbEntity
8
0
100
AcDbCircle
10
10.056041599152961
20
-98.604997651558151
30
0
40
2.4999999999999991
0
CIRCLE
5
134
100
AcDbEntity
8
0
100
AcDbCircle
10
22.611597154708516
20
-98.604997651558151
30
0
40
2.4999999999999991
0
CIRCLE
5
135
100
AcDbEntity
8
0
100
AcDbCircle
10
35.16715271026407
20
-98.604997651558151
30
0
40
2.4999999999999991
0
CIRCLE
5
136
100
AcDbEntity
8
0
100
AcDbCircle
10
47.722708265819627
20
-98.604997651558151
30
0
40
2.4999999999999991
0
CIRCLE
5
137
100
AcDbEntity
8
0
100
AcDbCircle
10
60.278263821375184
20
-98.604997651558151
30
0
40
2.4999999999999991
0
CIRCLE
5
138
100
AcDbEntity
8
0
100
AcDbCircle
10
72.833819376930734
20
-98.604997651558151
30
0
40
2.4999999999999991
0
CIRCLE
5
139
100
AcDbEntity
8
0
100
AcDbCircle
10
85.389374932486277
20
-98.604997651558151
30
0
40
2.4999999999999991
0
CIRCLE
5
140
100
AcDbEntity
8
0
100
AcDbCircle
10
97.944930488041848
20
-98.604997651558151
30
0
40
2.4999999999999991
0
CIRCLE
5
141
100
AcDbEntity
8
0
100
AcDbCircle
10
110.50048604359742
20
-98.604997651558151
30
0
40
2.4999999999999991
0
LINE
5
142
100
AcDbEntity
8
0
100
AcDbLine
10
174.87001331520185
20
188.03307818255473
30
0
11
184.87001331520185
21
188.03307818255473
31
0
0
LINE
5
143
100
AcDbEntity
8
0
100
AcDbLine
10
184.87001331520185
20
188.03307818255473
30
0
11
174.87001331520185
21
188.03307818255473
31
0
0
LINE
5
144
100
AcDbEntity
8
0
100
AcDbLine
10
186.87001331520182
20
191.03307818255473
30
0
11
204.87001331520185
21
191.03307818255473
31
0
0
LINE
5
145
100
AcDbEntity
8
0
100
AcDbLine
10
204.87001331520185
20
191.03307818255473
30
0
11
204.87001331520185
21
188.03307818255473
31
0
0
LINE
5
146
100
AcDbEntity
8
0
100
AcDbLine
10
204.87001331520185
20
188.03307818255473
30
0
11
282.87001331520185
21
188.03307818255473
31
0
0
LINE
5
147
100
AcDbEntity
8
0
100
AcDbLine
10
282.87001331520185
20
188.03307818255473
30
0
11
282.87001331520185
21
191.03307818255473
31
0
0
LINE
5
148
100
AcDbEntity
8
0
100
AcDbLine
10
282.87001331520185
20
191.03307818255473
30
0
11
300.87001331520185
21
191.03307818255473
31
0
0
LINE
5
149
100
AcDbEntity
8
0
100
AcDbLine
10
302.87001331520185
20
188.03307818255473
30
0
11
312.87001331520185
21
188.03307818255473
31
0
0
LINE
5
150
100
AcDbEntity
8
0
100
AcDbLine
10
312.87001331520185
20
188.03307818255473
30
0
11
312.87001331520185
21
178.03307916603134
31
0
0
LINE
5
151
100
AcDbEntity
8
0
100
AcDbLine
10
312.87001331520185
20
178.03307916603134
30
0
11
315.87001519274816
21
178.03307916603134
31
0
0
LINE
5
152
100
AcDbEntity
8
0
100
AcDbLine
10
315.87001519274816
20
178.03307916603134
30
0
11
315.87001519274816
21
163.03307916603134
31
0
0
LINE
5
153
100
AcDbEntity
8
0
100
AcDbLine
10
315.87001519274816
20
163.03307916603134
30
0
11
312.87001331520185
21
163.03307916603134
31
0
0
LINE
5
154
100
AcDbEntity
8
0
100
AcDbLine
10
312.87001331520185
20
163.03307916603134
30
0
11
312.87001331520185
21
122.0330781825547
31
0
0
LINE
5
155
100
AcDbEntity
8
0
100
AcDbLine
10
312.87001331520185
20
122.0330781825547
30
0
11
315.87001331520185
21
122.0330781825547
31
0
0
LINE
5
156
100
AcDbEntity
8
0
100
AcDbLine
10
315.87001331520185
20
122.0330781825547
30
0
11
315.87001331520185
21
107.0330781825547
31
0
0
LINE
5
157
100
AcDbEntity
8
0
100
AcDbLine
10
315.87001331520185
20
107.0330781825547
30
0
11
312.87001331520185
21
107.0330781825547
31
0
0
LINE
5
158
100
AcDbEntity
8
0
100
AcDbLine
10
312.87001331520185
20
107.0330781825547
30
0
11
312.87001331520185
21
97.033078182554704
31
0
0
LINE
5
159
100
AcDbEntity
8
0
100
AcDbLine
10
312.87001331520185
20
97.033078182554704
30
0
11
302.87001331520185
21
97.033078182554704
31
0
0
LINE
5
160
100
AcDbEntity
8
0
100
AcDbLine
10
300.87001331520185
20
94.033078182554704
30
0
11
282.87001331520185
21
94.033078182554704
31
0
0
LINE
5
161
100
AcDbEntity
8
0
100
AcDbLine
10
282.87001331520185
20
94.033078182554704
30
0
11
282.87001331520185
21
97.033078182554704
31
0
0
LINE
5
162
100
AcDbEntity
8
0
100
AcDbLine
10
282.87001331520185
20
97.033078182554704
30
0
11
204.87001331520185
21
97.033078182554704
31
0
0
LINE
5
163
100
AcDbEntity
8
0
100
AcDbLine
10
204.87001331520185
20
97.033078182554704
30
0
11
204.87001331520185
21
94.033078182554704
31
0
0
LINE
5
164
100
AcDbEntity
8
0
100
AcDbLine
10
204.87001331520185
20
94.033078182554704
30
0
11
186.87001331520182
21
94.033078182554704
31
0
0
LINE
5
165
100
AcDbEntity
8
0
100
AcDbLine
10
184.87001331520185
20
97.033078182554704
30
0
11
174.87001331520185
21
97.033078182554704
31
0
0
LINE
5
166
100
AcDbEntity
8
0
100
AcDbLine
10
174.87001331520185
20
97.033078182554704
30
0
11
174.87001331520185
21
107.0330781825547
31
0
0
LINE
5
167
100
AcDbEntity
8
0
100
AcDbLine
10
174.87001331520185
20
107.0330781825547
30
0
11
171.87001331520182
21
107.0330781825547
31
0
0
LINE
5
168
100
AcDbEntity
8
0
100
AcDbLine
10
171.87001331520182
20
107.0330781825547
30
0
11
171.87001331520182
21
122.0330781825547
31
0
0
LINE
5
169
100
AcDbEntity
8
0
100
AcDbLine
10
171.87001331520182
20
122.0330781825547
30
0
11
174.87001331520185
21
122.0330781825547
31
0
0
LINE
5
170
100
AcDbEntity
8
0
100
AcDbLine
10
174.87001331520185
20
163.03307916603134
30
0
11
174.87001331520185
21
122.0330781825547
31
0
0
LINE
5
171
100
AcDbEntity
8
0
100
AcDbLine
10
174.87001331520185
20
122.0330781825547
30
0
11
174.87001331520185
21
163.03307916603134
31
0
0
LINE
5
172
100
AcDbEntity
8
0
100
AcDbLine
10
171.87001331520182
20
163.03307916603134
30
0
11
171.87001331520182
21
178.03307916603134
31
0
0
LINE
5
173
100
AcDbEntity
8
0
100
AcDbLine
10
171.87001331520182
20
178.03307916603134
30
0
11
174.87001331520185
21
178.03307916603134
31
0
0
LINE
5
174
100
AcDbEntity
8
0
100
AcDbLine
10
174.87001331520185
20
178.03307916603134
30
0
11
174.87001331520185
21
188.03307818255473
31
0
0
LINE
5
175
100
AcDbEntity
8
0
100
AcDbLine
10
171.87001331520182
20
163.03307916603134
30
0
11
174.87001331520185
21
163.03307916603134
31
0
0
LINE
5
176
100
AcDbEntity
8
0
100
AcDbLine
10
172
20
-43.779106310951363
30
0
11
172
21
-56.779106310951363
31
0
0
LINE
5
177
100
AcDbEntity
8
0
100
AcDbLine
10
172
20
-43.779106310951363
30
0
11
187
21
-43.779106310951363
31
0
0
LINE
5
178
100
AcDbEntity
8
0
100
AcDbLine
10
187
20
-43.779106310951363
30
0
11
172
21
-43.779106310951363
31
0
0
LINE
5
179
100
AcDbEntity
8
0
100
AcDbLine
10
187
20
-43.779106310951363
30
0
11
187
21
-46.779106310951363
31
0
0
LINE
5
180
100
AcDbEntity
8
0
100
AcDbLine
10
187
20
-46.779106310951363
30
0
11
229.00000000000003
21
-46.779106310951363
31
0
0
LINE
5
181
100
AcDbEntity
8
0
100
AcDbLine
10
229.00000000000003
20
-46.779106310951363
30
0
11
229.00000000000003
21
-43.779106310951363
31
0
0
LINE
5
182
100
AcDbEntity
8
0
100
AcDbLine
10
229.00000000000003
20
-43.779106310951363
30
0
11
244.00000000000003
21
-43.779106310951363
31
0
0
LINE
5
183
100
AcDbEntity
8
0
100
AcDbLine
10
244.00000000000003
20
-43.779106310951363
30
0
11
244.00000000000003
21
-56.779106310951363
31
0
0
LINE
5
184
100
AcDbEntity
8
0
100
AcDbLine
10
244.00000000000003
20
-56.779106310951363
30
0
11
241
21
-56.779106310951363
31
0
0
LINE
5
185
100
AcDbEntity
8
0
100
AcDbLine
10
241
20
-56.779106310951363
30
0
11
241
21
-71.779105327474724
31
0
0
LINE
5
186
100
AcDbEntity
8
0
100
AcDbLine
10
241
20
-71.779105327474724
30
0
11
244.00000000000003
21
-71.779105327474724
31
0
0
LINE
5
187
100
AcDbEntity
8
0
100
AcDbLine
10
244.00000000000003
20
-71.779105327474724
30
0
11
244.00000000000003
21
-112.77910631095136
31
0
0
LINE
5
188
100
AcDbEntity
8
0
100
AcDbLine
10
244.00000000000003
20
-112.77910631095136
30
0
11
241
21
-112.77910631095136
31
0
0
LINE
5
189
100
AcDbEntity
8
0
100
AcDbLine
10
241
20
-112.77910631095136
30
0
11
241
21
-127.77910631095136
31
0
0
LINE
5
190
100
AcDbEntity
8
0
100
AcDbLine
10
241
20
-127.77910631095136
30
0
11
241
21
-112.77910631095136
31
0
0
LINE
5
191
100
AcDbEntity
8
0
100
AcDbLine
10
241
20
-127.77910631095136
30
0
11
244.00000000000003
21
-127.77910631095136
31
0
0
LINE
5
192
100
AcDbEntity
8
0
100
AcDbLine
10
244.00000000000003
20
-127.77910631095136
30
0
11
244.00000000000003
21
-140.77910631095136
31
0
0
LINE
5
193
100
AcDbEntity
8
0
100
AcDbLine
10
244.00000000000003
20
-140.77910631095136
30
0
11
229.00000000000003
21
-140.77910631095136
31
0
0
LINE
5
194
100
AcDbEntity
8
0
100
AcDbLine
10
229.00000000000003
20
-140.77910631095136
30
0
11
229.00000000000003
21
-137.77910631095136
31
0
0
LINE
5
195
100
AcDbEntity
8
0
100
AcDbLine
10
229.00000000000003
20
-137.77910631095136
30
0
11
187
21
-137.77910631095136
31
0
0
LINE
5
196
100
AcDbEntity
8
0
100
AcDbLine
10
187
20
-137.77910631095136
30
0
11
187
21
-140.77910631095136
31
0
0
LINE
5
197
100
AcDbEntity
8
0
100
AcDbLine
10
187
20
-140.77910631095136
30
0
11
172
21
-140.77910631095136
31
0
0
LINE
5
198
100
AcDbEntity
8
0
100
AcDbLine
10
172
20
-140.77910631095136
30
0
11
172
21
-127.77910631095136
31
0
0
LINE
5
199
100
AcDbEntity
8
0
100
AcDbLine
10
172
20
-127.77910631095136
30
0
11
175
21
-127.77910631095136
31
0
0
LINE
5
200
100
AcDbEntity
8
0
100
AcDbLine
10
175
20
-127.77910631095136
30
0
11
175
21
-112.77910532747472
31
0
0
LINE
5
201
100
AcDbEntity
8
0
100
AcDbLine
10
175
20
-112.77910532747472
30
0
11
175
21
-127.77910631095136
31
0
0
LINE
5
202
100
AcDbEntity
8
0
100
AcDbLine
10
175
20
-112.77910532747472
30
0
11
172
21
-112.77910532747472
31
0
0
LINE
5
203
100
AcDbEntity
8
0
100
AcDbLine
10
172
20
-112.77910532747472
30
0
11
172
21
-71.779105327474724
31
0
0
LINE
5
204
100
AcDbEntity
8
0
100
AcDbLine
10
172
20
-71.779105327474724
30
0
11
172
21
-112.77910532747472
31
0
0
LINE
5
205
100
AcDbEntity
8
0
100
AcDbLine
10
172
20
-71.779105327474724
30
0
11
175
21
-71.779105327474724
31
0
0
LINE
5
206
100
AcDbEntity
8
0
100
AcDbLine
10
175
20
-71.779105327474724
30
0
11
175
21
-56.779106310951363
31
0
0
LINE
5
207
100
AcDbEntity
8
0
100
AcDbLine
10
175
20
-56.779106310951363
30
0
11
172
21
-56.779106310951363
31
0
0
LINE
5
208
100
AcDbEntity
8
0
100
AcDbLine
10
186.87001331520182
20
191.03307818255473
30
0
11
186.87001331520182
21
188.03307818255473
31
0
0
LINE
5
209
100
AcDbEntity
8
0
100
AcDbLine
10
186.87001331520182
20
188.03307818255473
30
0
11
184.87001331520185
21
188.03307818255473
31
0
0
LINE
5
210
100
AcDbEntity
8
0
100
AcDbLine
10
300.87001331520185
20
191.03307818255473
30
0
11
300.87001331520185
21
188.03307818255473
31
0
0
LINE
5
211
100
AcDbEntity
8
0
100
AcDbLine
10
300.87001331520185
20
188.03307818255473
30
0
11
302.87001331520185
21
188.03307818255473
31
0
0
LINE
5
212
100
AcDbEntity
8
0
100
AcDbLine
10
300.87001331520185
20
94.033078182554704
30
0
11
300.87001331520185
21
97.033078182554704
31
0
0
LINE
5
213
100
AcDbEntity
8
0
100
AcDbLine
10
300.87001331520185
20
97.033078182554704
30
0
11
302.87001331520185
21
97.033078182554704
31
0
0
LINE
5
214
100
AcDbEntity
8
0
100
AcDbLine
10
186.87001331520182
20
94.033078182554704
30
0
11
186.87001331520182
21
97.033078182554704
31
0
0
LINE
5
215
100
AcDbEntity
8
0
100
AcDbLine
10
186.87001331520182
20
97.033078182554704
30
0
11
184.87001331520185
21
97.033078182554704
31
0
0
CIRCLE
5
216
100
AcDbEntity
8
0
100
AcDbCircle
10
243.87001331520182
20
142.53307867429302
30
0
40
18.999999999999982
0
CIRCLE
5
217
100
AcDbEntity
8
0
100
AcDbCircle
10
259.87001331520179
20
158.53307867429302
30
0
40
1.5999999999999994
0
CIRCLE
5
218
100
AcDbEntity
8
0
100
AcDbCircle
10
227.87001331520185
20
158.53307867429302
30
0
40
1.6000000000000014
0
CIRCLE
5
219
100
AcDbEntity
8
0
100
AcDbCircle
10
227.87001331520185
20
126.53307867429304
30
0
40
1.5999999999999961
0
CIRCLE
5
220
100
AcDbEntity
8
0
100
AcDbCircle
10
259.87001331520179
20
126.53307867429304
30
0
40
1.5999999999999943
0
ENDSEC
0
SECTION
2
OBJECTS
0
DICTIONARY
5
C
100
AcDbDictionary
3
ACAD_GROUP
350
D
3
ACAD_MLINESTYLE
350
17
0
DICTIONARY
5
D
100
AcDbDictionary
0
DICTIONARY
5
1A
330
C
100
AcDbDictionary
0
DICTIONARY
5
17
100
AcDbDictionary
0
ENDSEC
0
EOF
