0
SECTION
2
HEADER
9
$INSUNITS
70
4
9
$ACADVER
1
AC1014
9
$HANDSEED
5
FFFF
0
ENDSEC
0
SECTION
2
TABLES
0
TABLE
2
VPORT
5
8
100
AcDbSymbolTable
0
ENDTAB
0
TABLE
2
LTYPE
5
5
100
AcDbSymbolTable
0
LTYPE
5
14
100
AcDbSymbolTableRecord
100
AcDbLinetypeTableRecord
2
BYBLOCK
70
0
0
LTYPE
5
15
100
AcDbSymbolTableRecord
100
AcDbLinetypeTableRecord
2
BYLAYER
70
0
0
ENDTAB
0
TABLE
2
LAYER
5
2
100
AcDbSymbolTable
70
2
0
LAYER
5
50
100
AcDbSymbolTableRecord
100
AcDbLayerTableRecord
2
0
70
0
6
CONTINUOUS
0
ENDTAB
0
TABLE
2
STYLE
5
3
100
AcDbSymbolTable
70
1
0
STYLE
5
11
100
AcDbSymbolTableRecord
100
AcDbTextStyleTableRecord
2
STANDARD
70
0
0
ENDTAB
0
TABLE
2
VIEW
5
6
100
AcDbSymbolTable
70
0
0
ENDTAB
0
TABLE
2
UCS
5
7
100
AcDbSymbolTable
70
0
0
ENDTAB
0
TABLE
2
APPID
5
9
100
AcDbSymbolTable
70
2
0
APPID
5
12
100
AcDbSymbolTableRecord
100
AcDbRegAppTableRecord
2
ACAD
70
0
0
ENDTAB
0
TABLE
2
DIMSTYLE
5
A
100
AcDbSymbolTable
70
1
0
ENDTAB
0
TABLE
2
BLOCK_RECORD
5
1
100
AcDbSymbolTable
70
1
0
BLOCK_RECORD
5
1F
100
AcDbSymbolTableRecord
100
AcDbBlockTableRecord
2
*MODEL_SPACE
0
BLOCK_RECORD
5
1B
100
AcDbSymbolTableRecord
100
AcDbBlockTableRecord
2
*PAPER_SPACE
0
ENDTAB
0
ENDSEC
0
SECTION
2
BLOCKS
0
BLOCK
5
20
100
AcDbEntity
100
AcDbBlockBegin
2
*MODEL_SPACE
0
ENDBLK
5
21
100
AcDbEntity
100
AcDbBlockEnd
0
BLOCK
5
1C
100
AcDbEntity
100
AcDbBlockBegin
2
*PAPER_SPACE
0
ENDBLK
5
1D
100
AcDbEntity
100
AcDbBlockEnd
0
ENDSEC
0
SECTION
2
ENTITIES
0
LWPOLYLINE
5
100
100
AcDbEntity
8
0
100
AcDbPolyline
90
12
70
1
43
0.0
10
108
20
0
10
0
20
0
10
0
20
61.000000000000007
10
108
20
61.000000000000007
10
108
20
58.000000000000007
10
118
20
58.000000000000007
10
118
20
37.500000000000007
10
108
20
37.500000000000007
10
108
20
22
10
118
20
22
10
118
20
10
10
108
20
10
0
CIRCLE
5
101
100
AcDbEntity
8
0
100
AcDbCircle
10
96.000000000000014
20
2
30
0
40
1.6000000000000003
0
CIRCLE
5
102
100
AcDbEntity
8
0
100
AcDbCircle
10
96.000000000000014
20
50.000000000000007
30
0
40
1.6000000000000003
0
CIRCLE
5
103
100
AcDbEntity
8
0
100
AcDbCircle
10
14.000000000000004
20
50.000000000000007
30
0
40
1.6000000000000003
0
LINE
5
104
100
AcDbEntity
8
0
100
AcDbLine
10
108
20
58.000000000000007
30
0
11
108
21
61.000000000000007
31
0
0
LINE
5
105
100
AcDbEntity
8
0
100
AcDbLine
10
108
20
0
30
0
11
108
21
10
31
0
0
LINE
5
106
100
AcDbEntity
8
0
100
AcDbLine
10
123
20
76
30
0
11
123
21
66.000000983476639
31
0
0
LINE
5
107
100
AcDbEntity
8
0
100
AcDbLine
10
123
20
66.000000983476639
30
0
11
126.00000187754631
21
66.000000983476639
31
0
0
LINE
5
108
100
AcDbEntity
8
0
100
AcDbLine
10
126.00000187754631
20
66.000000983476639
30
0
11
126.00000187754631
21
51.000000983476639
31
0
0
LINE
5
109
100
AcDbEntity
8
0
100
AcDbLine
10
126.00000187754631
20
51.000000983476639
30
0
11
123
21
51.000000983476639
31
0
0
LINE
5
110
100
AcDbEntity
8
0
100
AcDbLine
10
123
20
76
30
0
11
123
21
66.000000983476639
31
0
0
LINE
5
111
100
AcDbEntity
8
0
100
AcDbLine
10
123
20
-15
30
0
11
123
21
-5
31
0
0
LINE
5
112
100
AcDbEntity
8
0
100
AcDbLine
10
123
20
-5
30
0
11
126.00000000000001
21
-5
31
0
0
LINE
5
113
100
AcDbEntity
8
0
100
AcDbLine
10
126.00000000000001
20
-5
30
0
11
126.00000000000001
21
10
31
0
0
LINE
5
114
100
AcDbEntity
8
0
100
AcDbLine
10
126.00000000000001
20
10
30
0
11
123
21
10
31
0
0
LINE
5
115
100
AcDbEntity
8
0
100
AcDbLine
10
123
20
51.000000983476639
30
0
11
123
21
10
31
0
0
LINE
5
116
100
AcDbEntity
8
0
100
AcDbLine
10
123
20
-5
30
0
11
123
21
-15
31
0
0
LINE
5
117
100
AcDbEntity
8
0
100
AcDbLine
10
123
20
-15
30
0
11
113
21
-15
31
0
0
LINE
5
118
100
AcDbEntity
8
0
100
AcDbLine
10
111.00000165402889
20
-18
30
0
11
93
21
-18
31
0
0
LINE
5
119
100
AcDbEntity
8
0
100
AcDbLine
10
93
20
-18
30
0
11
93
21
-15.000000000000002
31
0
0
LINE
5
120
100
AcDbEntity
8
0
100
AcDbLine
10
123
20
-15
30
0
11
113
21
-15
31
0
0
LINE
5
121
100
AcDbEntity
8
0
100
AcDbLine
10
-15
20
-15.000000000000009
30
0
11
-5
21
-15.000000000000009
31
0
0
LINE
5
122
100
AcDbEntity
8
0
100
AcDbLine
10
-3
20
-18.000000000000011
30
0
11
15
21
-18.000000000000011
31
0
0
LINE
5
123
100
AcDbEntity
8
0
100
AcDbLine
10
15
20
-18.000000000000011
30
0
11
15
21
-15.000000000000007
31
0
0
LINE
5
124
100
AcDbEntity
8
0
100
AcDbLine
10
93
20
-15.000000000000002
30
0
11
15
21
-15.000000000000007
31
0
0
LINE
5
125
100
AcDbEntity
8
0
100
AcDbLine
10
-5
20
-15.000000000000009
30
0
11
-15
21
-15.000000000000009
31
0
0
LINE
5
126
100
AcDbEntity
8
0
100
AcDbLine
10
15
20
76
30
0
11
15
21
79
31
0
0
LINE
5
127
100
AcDbEntity
8
0
100
AcDbLine
10
15
20
79
30
0
11
-3.0000000447034836
21
79
31
0
0
LINE
5
128
100
AcDbEntity
8
0
100
AcDbLine
10
-15
20
76
30
0
11
-5
21
76
31
0
0
LINE
5
129
100
AcDbEntity
8
0
100
AcDbLine
10
111.00000000000001
20
79.000000000000014
30
0
11
93
21
79.000000000000014
31
0
0
LINE
5
130
100
AcDbEntity
8
0
100
AcDbLine
10
93
20
79.000000000000014
30
0
11
93
21
76.000000000000014
31
0
0
LINE
5
131
100
AcDbEntity
8
0
100
AcDbLine
10
15
20
76
30
0
11
93
21
76.000000000000014
31
0
0
LINE
5
132
100
AcDbEntity
8
0
100
AcDbLine
10
113
20
76.000000000000014
30
0
11
123
21
76
31
0
0
LINE
5
133
100
AcDbEntity
8
0
100
AcDbLine
10
-15
20
66.000000983476639
30
0
11
-18
21
66.000000983476639
31
0
0
LINE
5
134
100
AcDbEntity
8
0
100
AcDbLine
10
-18
20
66.000000983476639
30
0
11
-18
21
51.000000983476639
31
0
0
LINE
5
135
100
AcDbEntity
8
0
100
AcDbLine
10
-18
20
51.000000983476639
30
0
11
-15
21
51.000000983476639
31
0
0
LINE
5
136
100
AcDbEntity
8
0
100
AcDbLine
10
-15
20
66.000000983476639
30
0
11
-15
21
76
31
0
0
LINE
5
137
100
AcDbEntity
8
0
100
AcDbLine
10
-15
20
-5
30
0
11
-18
21
-5
31
0
0
LINE
5
138
100
AcDbEntity
8
0
100
AcDbLine
10
-18
20
-5
30
0
11
-18
21
10
31
0
0
LINE
5
139
100
AcDbEntity
8
0
100
AcDbLine
10
-18
20
10
30
0
11
-15
21
10
31
0
0
LINE
5
140
100
AcDbEntity
8
0
100
AcDbLine
10
-15
20
-15.000000000000009
30
0
11
-15
21
-5
31
0
0
LINE
5
141
100
AcDbEntity
8
0
100
AcDbLine
10
-15
20
10
30
0
11
-15
21
51.000000983476639
31
0
0
LWPOLYLINE
5
142
100
AcDbEntity
8
0
100
AcDbPolyline
90
32
70
1
43
0.0
10
229.00000000000003
20
-15
10
187
20
-15
10
187
20
-18
10
172
20
-18
10
172
20
-15
10
172
20
-5
10
175
20
-5
10
175
20
10.000000983476633
10
172
20
10.000000983476633
10
172
20
51.000000983476639
10
175
20
51.000000983476639
10
175
20
66
10
172
20
66
10
172
20
76
10
172
20
79
10
187
20
79
10
187
20
76
10
229.00000000000003
20
76
10
229.00000000000003
20
79
10
244.00000000000003
20
79
10
244.00000000000003
20
76
10
244.00000000000003
20
66
10
241
20
66
10
241
20
51.000000983476639
10
244.00000000000003
20
51.000000983476639
10
244.00000000000003
20
10
10
241
20
9.9999999999999982
10
241
20
-5.0000000000000009
10
244.00000000000003
20
-5.0000000000000009
10
244.00000000000003
20
-15
10
244.00000000000003
20
-18
10
229.00000000000003
20
-18
0
LWPOLYLINE
5
143
100
AcDbEntity
8
0
100
AcDbPolyline
90
4
70
1
43
0.0
10
200.5
20
10
10
185.5
20
10
10
185.5
20
22
10
200.5
20
22
0
LINE
5
144
100
AcDbEntity
8
0
100
AcDbLine
10
220.00000000000006
20
37.500000000000007
30
0
11
220.00000000000006
21
58.000000000000007
31
0
0
LINE
5
145
100
AcDbEntity
8
0
100
AcDbLine
10
200.00000000000006
20
58.000000000000007
30
0
11
200.00000000000006
21
37.500000000000007
31
0
0
LWPOLYLINE
5
146
100
AcDbEntity
8
0
100
AcDbPolyline
90
28
70
1
43
0.0
10
-18.000000000000007
20
168.98389085511641
10
-18.000000000000007
20
126.98389085511641
10
-15.000000000000007
20
126.98389085511641
10
-15.000000000000007
20
111.98389085511641
10
-3.0000000000000071
20
111.98389085511641
10
-3.0000000000000071
20
114.98389085511641
10
15
20
114.98389085511641
10
15
20
111.98389085511641
10
93
20
111.98389085511641
10
93
20
114.98389085511641
10
111.00000187754631
20
114.98389085511641
10
111.00000187754631
20
111.98389085511641
10
123.00000187754631
20
111.98389085511641
10
123.00000187754631
20
126.98389085511641
10
126.00000187754631
20
126.98389085511641
10
126.00000187754631
20
168.98389085511641
10
123.00000187754631
20
168.98389085511641
10
123.00000187754631
20
183.98389085511641
10
111.00000187754631
20
183.98389085511641
10
111.00000187754631
20
180.98389085511641
10
93
20
180.98389085511641
10
93
20
183.98389085511641
10
15
20
183.98389085511641
10
15
20
180.98389085511641
10
-3.0000000000000071
20
180.98389085511641
10
-3.0000000000000071
20
183.98389085511641
10
-15.000000000000007
20
183.98389085511641
10
-15.000000000000007
20
168.98389085511641
0
LWPOLYLINE
5
147
100
AcDbEntity
8
0
100
AcDbPolyline
90
4
70
1
43
0.0
10
113.00048604359742
20
163.98389085511641
10
113.00048604359742
20
173.98389085511641
10
59.000486043597405
20
173.98389085511641
10
59.000486043597405
20
163.98389085511641
0
LWPOLYLINE
5
148
100
AcDbEntity
8
0
100
AcDbPolyline
90
4
70
1
43
0.0
10
-4.9995139564025948
20
173.98389085511641
10
-4.9995139564025948
20
163.98389085511641
10
49.000486043597405
20
163.98389085511641
10
49.000486043597405
20
173.98389085511641
0
CIRCLE
5
149
100
AcDbEntity
8
0
100
AcDbCircle
10
-2.4995139564025948
20
153.98389085511641
30
0
40
2.4999999999999991
0
CIRCLE
5
150
100
AcDbEntity
8
0
100
AcDbCircle
10
10.056041599152961
20
153.98389085511641
30
0
40
2.4999999999999991
0
CIRCLE
5
151
100
AcDbEntity
8
0
100
AcDbCircle
10
22.611597154708516
20
153.98389085511641
30
0
40
2.4999999999999991
0
CIRCLE
5
152
100
AcDbEntity
8
0
100
AcDbCircle
10
35.16715271026407
20
153.98389085511641
30
0
40
2.4999999999999991
0
CIRCLE
5
153
100
AcDbEntity
8
0
100
AcDbCircle
10
47.722708265819627
20
153.98389085511641
30
0
40
2.4999999999999991
0
CIRCLE
5
154
100
AcDbEntity
8
0
100
AcDbCircle
10
60.278263821375184
20
153.98389085511641
30
0
40
2.4999999999999991
0
CIRCLE
5
155
100
AcDbEntity
8
0
100
AcDbCircle
10
72.833819376930734
20
153.98389085511641
30
0
40
2.4999999999999991
0
CIRCLE
5
156
100
AcDbEntity
8
0
100
AcDbCircle
10
85.389374932486277
20
153.98389085511641
30
0
40
2.4999999999999991
0
CIRCLE
5
157
100
AcDbEntity
8
0
100
AcDbCircle
10
97.944930488041848
20
153.98389085511641
30
0
40
2.4999999999999991
0
CIRCLE
5
158
100
AcDbEntity
8
0
100
AcDbCircle
10
110.50048604359742
20
153.98389085511641
30
0
40
2.4999999999999991
0
CIRCLE
5
159
100
AcDbEntity
8
0
100
AcDbCircle
10
-2.4995139564025948
20
143.98389085511641
30
0
40
2.4999999999999991
0
CIRCLE
5
160
100
AcDbEntity
8
0
100
AcDbCircle
10
10.056041599152961
20
143.98389085511641
30
0
40
2.4999999999999991
0
CIRCLE
5
161
100
AcDbEntity
8
0
100
AcDbCircle
10
22.611597154708516
20
143.98389085511641
30
0
40
2.4999999999999991
0
CIRCLE
5
162
100
AcDbEntity
8
0
100
AcDbCircle
10
35.16715271026407
20
143.98389085511641
30
0
40
2.4999999999999991
0
CIRCLE
5
163
100
AcDbEntity
8
0
100
AcDbCircle
10
47.722708265819627
20
143.98389085511641
30
0
40
2.4999999999999991
0
CIRCLE
5
164
100
AcDbEntity
8
0
100
AcDbCircle
10
60.278263821375184
20
143.98389085511641
30
0
40
2.4999999999999991
0
CIRCLE
5
165
100
AcDbEntity
8
0
100
AcDbCircle
10
72.833819376930734
20
143.98389085511641
30
0
40
2.4999999999999991
0
CIRCLE
5
166
100
AcDbEntity
8
0
100
AcDbCircle
10
85.389374932486277
20
143.98389085511641
30
0
40
2.4999999999999991
0
CIRCLE
5
167
100
AcDbEntity
8
0
100
AcDbCircle
10
97.944930488041848
20
143.98389085511641
30
0
40
2.4999999999999991
0
CIRCLE
5
168
100
AcDbEntity
8
0
100
AcDbCircle
10
110.50048604359742
20
143.98389085511641
30
0
40
2.4999999999999991
0
CIRCLE
5
169
100
AcDbEntity
8
0
100
AcDbCircle
10
-2.4995139564025948
20
133.98389085511641
30
0
40
2.4999999999999991
0
CIRCLE
5
170
100
AcDbEntity
8
0
100
AcDbCircle
10
10.056041599152961
20
133.98389085511641
30
0
40
2.4999999999999991
0
CIRCLE
5
171
100
AcDbEntity
8
0
100
AcDbCircle
10
22.611597154708516
20
133.98389085511641
30
0
40
2.4999999999999991
0
CIRCLE
5
172
100
AcDbEntity
8
0
100
AcDbCircle
10
35.16715271026407
20
133.98389085511641
30
0
40
2.4999999999999991
0
CIRCLE
5
173
100
AcDbEntity
8
0
100
AcDbCircle
10
47.722708265819627
20
133.98389085511641
30
0
40
2.4999999999999991
0
CIRCLE
5
174
100
AcDbEntity
8
0
100
AcDbCircle
10
60.278263821375184
20
133.98389085511641
30
0
40
2.4999999999999991
0
CIRCLE
5
175
100
AcDbEntity
8
0
100
AcDbCircle
10
72.833819376930734
20
133.98389085511641
30
0
40
2.4999999999999991
0
CIRCLE
5
176
100
AcDbEntity
8
0
100
AcDbCircle
10
85.389374932486277
20
133.98389085511641
30
0
40
2.4999999999999991
0
CIRCLE
5
177
100
AcDbEntity
8
0
100
AcDbCircle
10
97.944930488041848
20
133.98389085511641
30
0
40
2.4999999999999991
0
CIRCLE
5
178
100
AcDbEntity
8
0
100
AcDbCircle
10
110.50048604359742
20
133.98389085511641
30
0
40
2.4999999999999991
0
CIRCLE
5
179
100
AcDbEntity
8
0
100
AcDbCircle
10
-2.4995139564025948
20
123.98389085511641
30
0
40
2.4999999999999991
0
CIRCLE
5
180
100
AcDbEntity
8
0
100
AcDbCircle
10
10.056041599152961
20
123.98389085511641
30
0
40
2.4999999999999991
0
CIRCLE
5
181
100
AcDbEntity
8
0
100
AcDbCircle
10
22.611597154708516
20
123.98389085511641
30
0
40
2.4999999999999991
0
CIRCLE
5
182
100
AcDbEntity
8
0
100
AcDbCircle
10
35.16715271026407
20
123.98389085511641
30
0
40
2.4999999999999991
0
CIRCLE
5
183
100
AcDbEntity
8
0
100
AcDbCircle
10
47.722708265819627
20
123.98389085511641
30
0
40
2.4999999999999991
0
CIRCLE
5
184
100
AcDbEntity
8
0
100
AcDbCircle
10
60.278263821375184
20
123.98389085511641
30
0
40
2.4999999999999991
0
CIRCLE
5
185
100
AcDbEntity
8
0
100
AcDbCircle
10
72.833819376930734
20
123.98389085511641
30
0
40
2.4999999999999991
0
CIRCLE
5
186
100
AcDbEntity
8
0
100
AcDbCircle
10
85.389374932486277
20
123.98389085511641
30
0
40
2.4999999999999991
0
CIRCLE
5
187
100
AcDbEntity
8
0
100
AcDbCircle
10
97.944930488041848
20
123.98389085511641
30
0
40
2.4999999999999991
0
CIRCLE
5
188
100
AcDbEntity
8
0
100
AcDbCircle
10
110.50048604359742
20
123.98389085511641
30
0
40
2.4999999999999991
0
LINE
5
189
100
AcDbEntity
8
0
100
AcDbLine
10
-5
20
-15.000000000000009
30
0
11
-3
21
-15.000000000000009
31
0
0
LINE
5
190
100
AcDbEntity
8
0
100
AcDbLine
10
-3
20
-15.000000000000009
30
0
11
-3
21
-18.000000000000011
31
0
0
LINE
5
191
100
AcDbEntity
8
0
100
AcDbLine
10
111.00000165402889
20
-18
30
0
11
111.00000165402889
21
-15.000000223517418
31
0
0
LINE
5
192
100
AcDbEntity
8
0
100
AcDbLine
10
111.00000165402889
20
-15.000000223517418
30
0
11
113
21
-15.000000223517418
31
0
0
LINE
5
193
100
AcDbEntity
8
0
100
AcDbLine
10
111.00000000000001
20
79.000000000000014
30
0
11
111.00000000000001
21
76.000000000000014
31
0
0
LINE
5
194
100
AcDbEntity
8
0
100
AcDbLine
10
111.00000000000001
20
76.000000000000014
30
0
11
113
21
76.000000000000014
31
0
0
LINE
5
195
100
AcDbEntity
8
0
100
AcDbLine
10
-3.0000000447034836
20
79
30
0
11
-3.0000000447034836
21
76.000001132488251
31
0
0
LINE
5
196
100
AcDbEntity
8
0
100
AcDbLine
10
-3.0000000447034836
20
76.000001132488251
30
0
11
-5
21
76.000001132488251
31
0
0
LINE
5
197
100
AcDbEntity
8
0
100
AcDbLine
10
220.00000327825546
20
58.000000000000007
30
0
11
220.00000327825546
21
60.000000000000007
31
0
0
LINE
5
198
100
AcDbEntity
8
0
100
AcDbLine
10
220.00000327825546
20
60.000000000000007
30
0
11
200.00000000000006
21
60.000000000000007
31
0
0
LINE
5
199
100
AcDbEntity
8
0
100
AcDbLine
10
200.00000000000006
20
60.000000000000007
30
0
11
200.00000000000006
21
58.000000000000007
31
0
0
LINE
5
200
100
AcDbEntity
8
0
100
AcDbLine
10
220.00000327825546
20
37.500000000000007
30
0
11
220.00000327825546
21
35.5
31
0
0
LINE
5
201
100
AcDbEntity
8
0
100
AcDbLine
10
220.00000327825546
20
35.5
30
0
11
200.00000000000006
21
35.5
31
0
0
LINE
5
202
100
AcDbEntity
8
0
100
AcDbLine
10
200.00000000000006
20
35.5
30
0
11
200.00000000000006
21
37.500000000000007
31
0
0
ENDSEC
0
SECTION
2
OBJECTS
0
DICTIONARY
5
C
100
AcDbDictionary
3
ACAD_GROUP
350
D
3
ACAD_MLINESTYLE
350
17
0
DICTIONARY
5
D
100
AcDbDictionary
0
DICTIONARY
5
1A
330
C
100
AcDbDictionary
0
DICTIONARY
5
17
100
AcDbDictionary
0
ENDSEC
0
EOF
